<svg width="1920" height="996" viewBox="0 0 1920 996" fill="none" xmlns="http://www.w3.org/2000/svg">
<path d="M1797 0.5V80C1797 126.392 1758.89 164 1712.5 164V164C1666.11 164 1628 201.608 1628 248V771C1628 817.392 1590.39 855 1544 855H1043C996.608 855 959 892.608 959 939V995.5" stroke="#E6E9F1" stroke-width="3"/>
<path d="M1528 855H1920" stroke="#E6E9F1" stroke-width="3"/>
<path d="M1709 164H1920" stroke="#E6E9F1" stroke-width="3"/>
<path d="M122.744 0.5V80C122.744 126.392 160.676 164 207.068 164V164C253.46 164 291.392 201.608 291.392 248V771C291.392 817.392 329 855 375.392 855H875C921.392 855 959 892.608 959 939V995.5" stroke="#E6E9F1" stroke-width="3"/>
<path d="M391.184 855H-0.00056982" stroke="#E6E9F1" stroke-width="3"/>
<path d="M210.561 164H-0.000316679" stroke="#E6E9F1" stroke-width="3"/>
</svg>
