<svg width="173" height="39" viewBox="0 0 173 39" fill="none" xmlns="http://www.w3.org/2000/svg">
<path d="M10.494 21.146H14.982V31.805H10.494V21.146ZM12.804 29.231C11.154 29.231 9.614 28.945 8.184 28.373C6.754 27.801 5.489 26.998 4.389 25.964C3.311 24.908 2.464 23.665 1.848 22.235C1.232 20.783 0.924 19.188 0.924 17.45C0.924 15.712 1.232 14.128 1.848 12.698C2.464 11.246 3.311 10.003 4.389 8.969C5.489 7.913 6.754 7.099 8.184 6.527C9.614 5.955 11.154 5.669 12.804 5.669C14.454 5.669 15.994 5.955 17.424 6.527C18.876 7.099 20.141 7.913 21.219 8.969C22.297 10.003 23.144 11.246 23.76 12.698C24.376 14.128 24.684 15.712 24.684 17.45C24.684 19.188 24.376 20.783 23.76 22.235C23.144 23.665 22.286 24.908 21.186 25.964C20.108 26.998 18.854 27.801 17.424 28.373C15.994 28.945 14.454 29.231 12.804 29.231ZM12.804 24.314C14.014 24.314 15.07 24.017 15.972 23.423C16.874 22.829 17.578 22.015 18.084 20.981C18.59 19.947 18.843 18.77 18.843 17.45C18.843 16.108 18.59 14.931 18.084 13.919C17.578 12.885 16.874 12.071 15.972 11.477C15.07 10.883 14.014 10.586 12.804 10.586C11.572 10.586 10.505 10.883 9.603 11.477C8.701 12.071 7.997 12.885 7.491 13.919C7.007 14.931 6.765 16.108 6.765 17.45C6.765 18.77 7.007 19.947 7.491 20.981C7.997 22.015 8.701 22.829 9.603 23.423C10.505 24.017 11.572 24.314 12.804 24.314ZM33.1779 5.834V19.694C33.1779 21.08 33.5189 22.147 34.2009 22.895C34.8829 23.643 35.8839 24.017 37.2039 24.017C38.5239 24.017 39.5359 23.643 40.2399 22.895C40.9439 22.147 41.2959 21.08 41.2959 19.694V5.834H46.9389V19.661C46.9389 21.729 46.4989 23.478 45.6189 24.908C44.7389 26.338 43.5509 27.416 42.0549 28.142C40.5809 28.868 38.9309 29.231 37.1049 29.231C35.2789 29.231 33.6399 28.879 32.1879 28.175C30.7579 27.449 29.6249 26.371 28.7889 24.941C27.9529 23.489 27.5349 21.729 27.5349 19.661V5.834H33.1779ZM64.9265 17.12C66.2685 17.406 67.3465 18.077 68.1605 19.133C68.9745 20.167 69.3815 21.355 69.3815 22.697C69.3815 24.633 68.6995 26.173 67.3355 27.317C65.9935 28.439 64.1125 29 61.6925 29H50.9015V5.834H61.3295C63.6835 5.834 65.5205 6.373 66.8405 7.451C68.1825 8.529 68.8535 9.992 68.8535 11.84C68.8535 13.204 68.4905 14.337 67.7645 15.239C67.0605 16.141 66.1145 16.768 64.9265 17.12ZM56.5445 15.206H60.2405C61.1645 15.206 61.8685 15.008 62.3525 14.612C62.8585 14.194 63.1115 13.589 63.1115 12.797C63.1115 12.005 62.8585 11.4 62.3525 10.982C61.8685 10.564 61.1645 10.355 60.2405 10.355H56.5445V15.206ZM60.7025 24.446C61.6485 24.446 62.3745 24.237 62.8805 23.819C63.4085 23.379 63.6725 22.752 63.6725 21.938C63.6725 21.124 63.3975 20.486 62.8475 20.024C62.3195 19.562 61.5825 19.331 60.6365 19.331H56.5445V24.446H60.7025ZM78.2974 10.355V15.041H85.8544V19.397H78.2974V24.479H86.8444V29H72.6544V5.834H86.8444V10.355H78.2974Z" fill="url(#paint0_linear_799_7687)"/>
<path d="M108.869 29H107.384L93.7879 8.276V29H92.3029V5.867H93.7879L107.384 26.525V5.867H108.869V29ZM119.099 7.088V16.757H128.339V18.011H119.099V27.746H129.329V29H117.614V5.834H129.329V7.088H119.099ZM144.186 17.417L151.149 29H149.466L143.229 18.605L137.256 29H135.606L142.47 17.318L135.573 5.834H137.256L143.427 16.13L149.499 5.834H151.182L144.186 17.417ZM171.146 5.834V7.088H164.546V29H163.061V7.088H156.461V5.834H171.146Z" fill="#1E293B"/>
<path d="M40.05 36.601H41.807V37H39.56V32.107H40.05V36.601ZM46.2443 34.893C46.2443 35.061 46.2396 35.1893 46.2303 35.278H43.0593C43.0733 35.5673 43.1433 35.8147 43.2693 36.02C43.3953 36.2253 43.561 36.3817 43.7663 36.489C43.9716 36.5917 44.1956 36.643 44.4383 36.643C44.7556 36.643 45.0216 36.566 45.2363 36.412C45.4556 36.258 45.6003 36.0503 45.6703 35.789H46.1883C46.095 36.1623 45.8943 36.468 45.5863 36.706C45.283 36.9393 44.9003 37.056 44.4383 37.056C44.079 37.056 43.757 36.9767 43.4723 36.818C43.1876 36.6547 42.9636 36.426 42.8003 36.132C42.6416 35.8333 42.5623 35.4857 42.5623 35.089C42.5623 34.6923 42.6416 34.3447 42.8003 34.046C42.959 33.7473 43.1806 33.5187 43.4653 33.36C43.75 33.2013 44.0743 33.122 44.4383 33.122C44.8023 33.122 45.1196 33.2013 45.3903 33.36C45.6656 33.5187 45.8756 33.7333 46.0203 34.004C46.1696 34.27 46.2443 34.5663 46.2443 34.893ZM45.7473 34.879C45.752 34.5943 45.6936 34.3517 45.5723 34.151C45.4556 33.9503 45.2946 33.7987 45.0893 33.696C44.884 33.5933 44.66 33.542 44.4173 33.542C44.0533 33.542 43.743 33.6587 43.4863 33.892C43.2296 34.1253 43.0873 34.4543 43.0593 34.879H45.7473ZM48.0578 33.591V35.964C48.0578 36.1973 48.1021 36.3583 48.1908 36.447C48.2794 36.5357 48.4358 36.58 48.6598 36.58H49.1078V37H48.5828C48.2374 37 47.9808 36.9207 47.8128 36.762C47.6448 36.5987 47.5608 36.3327 47.5608 35.964V33.591H47.0288V33.178H47.5608V32.219H48.0578V33.178H49.1078V33.591H48.0578ZM50.2589 32.107H50.8259L50.2099 33.619H49.8529L50.2589 32.107ZM53.1728 37.056C52.7341 37.056 52.3748 36.9557 52.0948 36.755C51.8194 36.5497 51.6654 36.272 51.6328 35.922H52.1368C52.1601 36.1367 52.2604 36.3117 52.4378 36.447C52.6198 36.5777 52.8624 36.643 53.1658 36.643C53.4318 36.643 53.6394 36.58 53.7888 36.454C53.9428 36.328 54.0198 36.1717 54.0198 35.985C54.0198 35.8543 53.9778 35.747 53.8938 35.663C53.8098 35.579 53.7024 35.5137 53.5718 35.467C53.4458 35.4157 53.2731 35.362 53.0538 35.306C52.7691 35.2313 52.5381 35.1567 52.3608 35.082C52.1834 35.0073 52.0318 34.8977 51.9058 34.753C51.7844 34.6037 51.7238 34.4053 51.7238 34.158C51.7238 33.9713 51.7798 33.7987 51.8918 33.64C52.0038 33.4813 52.1624 33.3553 52.3678 33.262C52.5731 33.1687 52.8064 33.122 53.0678 33.122C53.4784 33.122 53.8098 33.227 54.0618 33.437C54.3138 33.6423 54.4491 33.927 54.4678 34.291H53.9778C53.9638 34.067 53.8751 33.8873 53.7118 33.752C53.5531 33.612 53.3338 33.542 53.0538 33.542C52.8064 33.542 52.6058 33.6003 52.4518 33.717C52.2978 33.8337 52.2208 33.9783 52.2208 34.151C52.2208 34.3003 52.2651 34.424 52.3538 34.522C52.4471 34.6153 52.5614 34.69 52.6968 34.746C52.8321 34.7973 53.0141 34.8557 53.2428 34.921C53.5181 34.9957 53.7374 35.068 53.9008 35.138C54.0641 35.208 54.2041 35.3107 54.3208 35.446C54.4374 35.5813 54.4981 35.761 54.5028 35.985C54.5028 36.1903 54.4468 36.3747 54.3348 36.538C54.2228 36.6967 54.0664 36.8227 53.8658 36.916C53.6651 37.0093 53.4341 37.056 53.1728 37.056ZM58.389 34.025C58.515 33.759 58.7087 33.542 58.97 33.374C59.236 33.206 59.5487 33.122 59.908 33.122C60.258 33.122 60.5707 33.2037 60.846 33.367C61.1213 33.5257 61.336 33.7543 61.49 34.053C61.6487 34.347 61.728 34.69 61.728 35.082C61.728 35.474 61.6487 35.8193 61.49 36.118C61.336 36.4167 61.119 36.6477 60.839 36.811C60.5637 36.9743 60.2533 37.056 59.908 37.056C59.544 37.056 59.229 36.9743 58.963 36.811C58.7017 36.643 58.5103 36.426 58.389 36.16V37H57.906V31.82H58.389V34.025ZM61.231 35.082C61.231 34.7647 61.168 34.4917 61.042 34.263C60.9207 34.0297 60.7527 33.8523 60.538 33.731C60.3233 33.6097 60.0807 33.549 59.81 33.549C59.5487 33.549 59.3083 33.612 59.089 33.738C58.8743 33.864 58.704 34.0437 58.578 34.277C58.452 34.5103 58.389 34.781 58.389 35.089C58.389 35.397 58.452 35.6677 58.578 35.901C58.704 36.1343 58.8743 36.314 59.089 36.44C59.3083 36.566 59.5487 36.629 59.81 36.629C60.0807 36.629 60.3233 36.5683 60.538 36.447C60.7527 36.321 60.9207 36.1413 61.042 35.908C61.168 35.67 61.231 35.3947 61.231 35.082ZM66.2206 33.178V37H65.7306V36.328C65.6186 36.566 65.446 36.748 65.2126 36.874C64.9793 37 64.718 37.063 64.4286 37.063C63.9713 37.063 63.598 36.923 63.3086 36.643C63.0193 36.3583 62.8746 35.9477 62.8746 35.411V33.178H63.3576V35.355C63.3576 35.7703 63.4603 36.0877 63.6656 36.307C63.8756 36.5263 64.1603 36.636 64.5196 36.636C64.8883 36.636 65.1823 36.5193 65.4016 36.286C65.621 36.0527 65.7306 35.7097 65.7306 35.257V33.178H66.2206ZM67.8643 32.457C67.7663 32.457 67.6823 32.422 67.6123 32.352C67.5423 32.282 67.5073 32.1957 67.5073 32.093C67.5073 31.9903 67.5423 31.9063 67.6123 31.841C67.6823 31.771 67.7663 31.736 67.8643 31.736C67.9623 31.736 68.0463 31.771 68.1163 31.841C68.1863 31.9063 68.2213 31.9903 68.2213 32.093C68.2213 32.1957 68.1863 32.282 68.1163 32.352C68.0463 32.422 67.9623 32.457 67.8643 32.457ZM68.1093 33.178V37H67.6193V33.178H68.1093ZM69.9889 31.82V37H69.4989V31.82H69.9889ZM71.1546 35.082C71.1546 34.69 71.2339 34.347 71.3926 34.053C71.5512 33.7543 71.7682 33.5257 72.0436 33.367C72.3236 33.2037 72.6386 33.122 72.9886 33.122C73.3246 33.122 73.6279 33.2037 73.8986 33.367C74.1692 33.5303 74.3676 33.7427 74.4936 34.004V31.82H74.9836V37H74.4936V36.146C74.3769 36.412 74.1856 36.6313 73.9196 36.804C73.6536 36.972 73.3409 37.056 72.9816 37.056C72.6316 37.056 72.3166 36.9743 72.0366 36.811C71.7612 36.6477 71.5442 36.4167 71.3856 36.118C71.2316 35.8193 71.1546 35.474 71.1546 35.082ZM74.4936 35.089C74.4936 34.781 74.4306 34.5103 74.3046 34.277C74.1786 34.0437 74.0059 33.864 73.7866 33.738C73.5719 33.612 73.3339 33.549 73.0726 33.549C72.8019 33.549 72.5592 33.6097 72.3446 33.731C72.1299 33.8523 71.9596 34.0297 71.8336 34.263C71.7122 34.4917 71.6516 34.7647 71.6516 35.082C71.6516 35.3947 71.7122 35.67 71.8336 35.908C71.9596 36.1413 72.1299 36.321 72.3446 36.447C72.5592 36.5683 72.8019 36.629 73.0726 36.629C73.3339 36.629 73.5719 36.566 73.7866 36.44C74.0059 36.314 74.1786 36.1343 74.3046 35.901C74.4306 35.6677 74.4936 35.397 74.4936 35.089ZM79.2201 33.591V35.964C79.2201 36.1973 79.2644 36.3583 79.3531 36.447C79.4418 36.5357 79.5981 36.58 79.8221 36.58H80.2701V37H79.7451C79.3998 37 79.1431 36.9207 78.9751 36.762C78.8071 36.5987 78.7231 36.3327 78.7231 35.964V33.591H78.1911V33.178H78.7231V32.219H79.2201V33.178H80.2701V33.591H79.2201ZM83.0312 37.056C82.6719 37.056 82.3475 36.9767 82.0582 36.818C81.7735 36.6547 81.5472 36.426 81.3792 36.132C81.2159 35.8333 81.1342 35.4857 81.1342 35.089C81.1342 34.6923 81.2182 34.347 81.3862 34.053C81.5542 33.7543 81.7829 33.5257 82.0722 33.367C82.3615 33.2037 82.6859 33.122 83.0452 33.122C83.4045 33.122 83.7289 33.2037 84.0182 33.367C84.3122 33.5257 84.5409 33.7543 84.7042 34.053C84.8722 34.347 84.9562 34.6923 84.9562 35.089C84.9562 35.481 84.8722 35.8263 84.7042 36.125C84.5362 36.4237 84.3052 36.6547 84.0112 36.818C83.7172 36.9767 83.3905 37.056 83.0312 37.056ZM83.0312 36.629C83.2832 36.629 83.5165 36.573 83.7312 36.461C83.9459 36.3443 84.1185 36.1717 84.2492 35.943C84.3845 35.7097 84.4522 35.425 84.4522 35.089C84.4522 34.753 84.3869 34.4707 84.2562 34.242C84.1255 34.0087 83.9529 33.836 83.7382 33.724C83.5235 33.6073 83.2902 33.549 83.0382 33.549C82.7862 33.549 82.5529 33.6073 82.3382 33.724C82.1235 33.836 81.9509 34.0087 81.8202 34.242C81.6942 34.4707 81.6312 34.753 81.6312 35.089C81.6312 35.425 81.6942 35.7097 81.8202 35.943C81.9509 36.1717 82.1212 36.3443 82.3312 36.461C82.5459 36.573 82.7792 36.629 83.0312 36.629ZM87.7324 33.122C88.0917 33.122 88.4044 33.206 88.6704 33.374C88.9364 33.542 89.1277 33.7543 89.2444 34.011V33.178H89.7344V37.098C89.7344 37.448 89.6574 37.7583 89.5034 38.029C89.3541 38.2997 89.1441 38.5073 88.8734 38.652C88.6027 38.8013 88.2947 38.876 87.9494 38.876C87.4594 38.876 87.0511 38.7593 86.7244 38.526C86.4024 38.2927 86.2017 37.9753 86.1224 37.574H86.6054C86.6894 37.84 86.8481 38.0523 87.0814 38.211C87.3194 38.3697 87.6087 38.449 87.9494 38.449C88.1967 38.449 88.4184 38.3953 88.6144 38.288C88.8104 38.1853 88.9644 38.0313 89.0764 37.826C89.1884 37.6207 89.2444 37.378 89.2444 37.098V36.153C89.1231 36.4143 88.9294 36.6313 88.6634 36.804C88.4021 36.972 88.0917 37.056 87.7324 37.056C87.3824 37.056 87.0674 36.9743 86.7874 36.811C86.5121 36.6477 86.2951 36.4167 86.1364 36.118C85.9824 35.8193 85.9054 35.474 85.9054 35.082C85.9054 34.69 85.9824 34.347 86.1364 34.053C86.2951 33.7543 86.5121 33.5257 86.7874 33.367C87.0674 33.2037 87.3824 33.122 87.7324 33.122ZM89.2444 35.089C89.2444 34.781 89.1814 34.5103 89.0554 34.277C88.9294 34.0437 88.7567 33.864 88.5374 33.738C88.3227 33.612 88.0847 33.549 87.8234 33.549C87.5527 33.549 87.3101 33.6097 87.0954 33.731C86.8807 33.8523 86.7104 34.0297 86.5844 34.263C86.4631 34.4917 86.4024 34.7647 86.4024 35.082C86.4024 35.3947 86.4631 35.67 86.5844 35.908C86.7104 36.1413 86.8807 36.321 87.0954 36.447C87.3101 36.5683 87.5527 36.629 87.8234 36.629C88.0847 36.629 88.3227 36.566 88.5374 36.44C88.7567 36.314 88.9294 36.1343 89.0554 35.901C89.1814 35.6677 89.2444 35.397 89.2444 35.089ZM94.591 34.893C94.591 35.061 94.5864 35.1893 94.577 35.278H91.406C91.42 35.5673 91.49 35.8147 91.616 36.02C91.742 36.2253 91.9077 36.3817 92.113 36.489C92.3184 36.5917 92.5424 36.643 92.785 36.643C93.1024 36.643 93.3684 36.566 93.583 36.412C93.8024 36.258 93.947 36.0503 94.017 35.789H94.535C94.4417 36.1623 94.241 36.468 93.933 36.706C93.6297 36.9393 93.247 37.056 92.785 37.056C92.4257 37.056 92.1037 36.9767 91.819 36.818C91.5344 36.6547 91.3104 36.426 91.147 36.132C90.9884 35.8333 90.909 35.4857 90.909 35.089C90.909 34.6923 90.9884 34.3447 91.147 34.046C91.3057 33.7473 91.5274 33.5187 91.812 33.36C92.0967 33.2013 92.421 33.122 92.785 33.122C93.149 33.122 93.4664 33.2013 93.737 33.36C94.0124 33.5187 94.2224 33.7333 94.367 34.004C94.5164 34.27 94.591 34.5663 94.591 34.893ZM94.094 34.879C94.0987 34.5943 94.0404 34.3517 93.919 34.151C93.8024 33.9503 93.6414 33.7987 93.436 33.696C93.2307 33.5933 93.0067 33.542 92.764 33.542C92.4 33.542 92.0897 33.6587 91.833 33.892C91.5764 34.1253 91.434 34.4543 91.406 34.879H94.094ZM96.4045 33.591V35.964C96.4045 36.1973 96.4489 36.3583 96.5375 36.447C96.6262 36.5357 96.7825 36.58 97.0065 36.58H97.4545V37H96.9295C96.5842 37 96.3275 36.9207 96.1595 36.762C95.9915 36.5987 95.9075 36.3327 95.9075 35.964V33.591H95.3755V33.178H95.9075V32.219H96.4045V33.178H97.4545V33.591H96.4045ZM100.363 33.108C100.652 33.108 100.911 33.1687 101.14 33.29C101.373 33.4113 101.555 33.598 101.686 33.85C101.821 34.0973 101.889 34.4007 101.889 34.76V37H101.406V34.816C101.406 34.4007 101.301 34.0833 101.091 33.864C100.885 33.6447 100.603 33.535 100.244 33.535C99.875 33.535 99.581 33.6517 99.3617 33.885C99.1423 34.1183 99.0327 34.4613 99.0327 34.914V37H98.5427V31.82H99.0327V33.829C99.154 33.6003 99.3313 33.423 99.5647 33.297C99.8027 33.171 100.069 33.108 100.363 33.108ZM106.71 34.893C106.71 35.061 106.706 35.1893 106.696 35.278H103.525C103.539 35.5673 103.609 35.8147 103.735 36.02C103.861 36.2253 104.027 36.3817 104.232 36.489C104.438 36.5917 104.662 36.643 104.904 36.643C105.222 36.643 105.488 36.566 105.702 36.412C105.922 36.258 106.066 36.0503 106.136 35.789H106.654C106.561 36.1623 106.36 36.468 106.052 36.706C105.749 36.9393 105.366 37.056 104.904 37.056C104.545 37.056 104.223 36.9767 103.938 36.818C103.654 36.6547 103.43 36.426 103.266 36.132C103.108 35.8333 103.028 35.4857 103.028 35.089C103.028 34.6923 103.108 34.3447 103.266 34.046C103.425 33.7473 103.647 33.5187 103.931 33.36C104.216 33.2013 104.54 33.122 104.904 33.122C105.268 33.122 105.586 33.2013 105.856 33.36C106.132 33.5187 106.342 33.7333 106.486 34.004C106.636 34.27 106.71 34.5663 106.71 34.893ZM106.213 34.879C106.218 34.5943 106.16 34.3517 106.038 34.151C105.922 33.9503 105.761 33.7987 105.555 33.696C105.35 33.5933 105.126 33.542 104.883 33.542C104.519 33.542 104.209 33.6587 103.952 33.892C103.696 34.1253 103.553 34.4543 103.525 34.879H106.213ZM108.377 33.857C108.484 33.619 108.648 33.4347 108.867 33.304C109.091 33.1733 109.364 33.108 109.686 33.108V33.619H109.553C109.198 33.619 108.914 33.7147 108.699 33.906C108.484 34.0973 108.377 34.417 108.377 34.865V37H107.887V33.178H108.377V33.857ZM112.68 35.082C112.68 34.69 112.757 34.347 112.911 34.053C113.07 33.7543 113.287 33.5257 113.562 33.367C113.842 33.2037 114.157 33.122 114.507 33.122C114.871 33.122 115.184 33.206 115.445 33.374C115.711 33.542 115.902 33.7567 116.019 34.018V33.178H116.509V37H116.019V36.153C115.898 36.4143 115.704 36.6313 115.438 36.804C115.177 36.972 114.864 37.056 114.5 37.056C114.155 37.056 113.842 36.9743 113.562 36.811C113.287 36.6477 113.07 36.4167 112.911 36.118C112.757 35.8193 112.68 35.474 112.68 35.082ZM116.019 35.089C116.019 34.781 115.956 34.5103 115.83 34.277C115.704 34.0437 115.531 33.864 115.312 33.738C115.097 33.612 114.859 33.549 114.598 33.549C114.327 33.549 114.085 33.6097 113.87 33.731C113.655 33.8523 113.485 34.0297 113.359 34.263C113.238 34.4917 113.177 34.7647 113.177 35.082C113.177 35.3947 113.238 35.67 113.359 35.908C113.485 36.1413 113.655 36.321 113.87 36.447C114.085 36.5683 114.327 36.629 114.598 36.629C114.859 36.629 115.097 36.566 115.312 36.44C115.531 36.314 115.704 36.1343 115.83 35.901C115.956 35.6677 116.019 35.397 116.019 35.089ZM118.545 33.591V35.964C118.545 36.1973 118.589 36.3583 118.678 36.447C118.766 36.5357 118.923 36.58 119.147 36.58H119.595V37H119.07C118.724 37 118.468 36.9207 118.3 36.762C118.132 36.5987 118.048 36.3327 118.048 35.964V33.591H117.516V33.178H118.048V32.219H118.545V33.178H119.595V33.591H118.545ZM123.521 33.591V35.964C123.521 36.1973 123.565 36.3583 123.654 36.447C123.742 36.5357 123.899 36.58 124.123 36.58H124.571V37H124.046C123.7 37 123.444 36.9207 123.276 36.762C123.108 36.5987 123.024 36.3327 123.024 35.964V33.591H122.492V33.178H123.024V32.219H123.521V33.178H124.571V33.591H123.521ZM127.479 33.108C127.768 33.108 128.027 33.1687 128.256 33.29C128.489 33.4113 128.671 33.598 128.802 33.85C128.937 34.0973 129.005 34.4007 129.005 34.76V37H128.522V34.816C128.522 34.4007 128.417 34.0833 128.207 33.864C128.001 33.6447 127.719 33.535 127.36 33.535C126.991 33.535 126.697 33.6517 126.478 33.885C126.258 34.1183 126.149 34.4613 126.149 34.914V37H125.659V31.82H126.149V33.829C126.27 33.6003 126.447 33.423 126.681 33.297C126.919 33.171 127.185 33.108 127.479 33.108ZM133.826 34.893C133.826 35.061 133.822 35.1893 133.812 35.278H130.641C130.655 35.5673 130.725 35.8147 130.851 36.02C130.977 36.2253 131.143 36.3817 131.348 36.489C131.554 36.5917 131.778 36.643 132.02 36.643C132.338 36.643 132.604 36.566 132.818 36.412C133.038 36.258 133.182 36.0503 133.252 35.789H133.77C133.677 36.1623 133.476 36.468 133.168 36.706C132.865 36.9393 132.482 37.056 132.02 37.056C131.661 37.056 131.339 36.9767 131.054 36.818C130.77 36.6547 130.546 36.426 130.382 36.132C130.224 35.8333 130.144 35.4857 130.144 35.089C130.144 34.6923 130.224 34.3447 130.382 34.046C130.541 33.7473 130.763 33.5187 131.047 33.36C131.332 33.2013 131.656 33.122 132.02 33.122C132.384 33.122 132.702 33.2013 132.972 33.36C133.248 33.5187 133.458 33.7333 133.602 34.004C133.752 34.27 133.826 34.5663 133.826 34.893ZM133.329 34.879C133.334 34.5943 133.276 34.3517 133.154 34.151C133.038 33.9503 132.877 33.7987 132.671 33.696C132.466 33.5933 132.242 33.542 131.999 33.542C131.635 33.542 131.325 33.6587 131.068 33.892C130.812 34.1253 130.669 34.4543 130.641 34.879H133.329ZM156.457 31.82V37H155.967V31.82H156.457ZM161.305 34.893C161.305 35.061 161.3 35.1893 161.291 35.278H158.12C158.134 35.5673 158.204 35.8147 158.33 36.02C158.456 36.2253 158.621 36.3817 158.827 36.489C159.032 36.5917 159.256 36.643 159.499 36.643C159.816 36.643 160.082 36.566 160.297 36.412C160.516 36.258 160.661 36.0503 160.731 35.789H161.249C161.155 36.1623 160.955 36.468 160.647 36.706C160.343 36.9393 159.961 37.056 159.499 37.056C159.139 37.056 158.817 36.9767 158.533 36.818C158.248 36.6547 158.024 36.426 157.861 36.132C157.702 35.8333 157.623 35.4857 157.623 35.089C157.623 34.6923 157.702 34.3447 157.861 34.046C158.019 33.7473 158.241 33.5187 158.526 33.36C158.81 33.2013 159.135 33.122 159.499 33.122C159.863 33.122 160.18 33.2013 160.451 33.36C160.726 33.5187 160.936 33.7333 161.081 34.004C161.23 34.27 161.305 34.5663 161.305 34.893ZM160.808 34.879C160.812 34.5943 160.754 34.3517 160.633 34.151C160.516 33.9503 160.355 33.7987 160.15 33.696C159.944 33.5933 159.72 33.542 159.478 33.542C159.114 33.542 158.803 33.6587 158.547 33.892C158.29 34.1253 158.148 34.4543 158.12 34.879H160.808ZM163.839 36.524L165.127 33.178H165.645L164.112 37H163.559L162.026 33.178H162.551L163.839 36.524ZM170.047 34.893C170.047 35.061 170.043 35.1893 170.033 35.278H166.862C166.876 35.5673 166.946 35.8147 167.072 36.02C167.198 36.2253 167.364 36.3817 167.569 36.489C167.775 36.5917 167.999 36.643 168.241 36.643C168.559 36.643 168.825 36.566 169.039 36.412C169.259 36.258 169.403 36.0503 169.473 35.789H169.991C169.898 36.1623 169.697 36.468 169.389 36.706C169.086 36.9393 168.703 37.056 168.241 37.056C167.882 37.056 167.56 36.9767 167.275 36.818C166.991 36.6547 166.767 36.426 166.603 36.132C166.445 35.8333 166.365 35.4857 166.365 35.089C166.365 34.6923 166.445 34.3447 166.603 34.046C166.762 33.7473 166.984 33.5187 167.268 33.36C167.553 33.2013 167.877 33.122 168.241 33.122C168.605 33.122 168.923 33.2013 169.193 33.36C169.469 33.5187 169.679 33.7333 169.823 34.004C169.973 34.27 170.047 34.5663 170.047 34.893ZM169.55 34.879C169.555 34.5943 169.497 34.3517 169.375 34.151C169.259 33.9503 169.098 33.7987 168.892 33.696C168.687 33.5933 168.463 33.542 168.22 33.542C167.856 33.542 167.546 33.6587 167.289 33.892C167.033 34.1253 166.89 34.4543 166.862 34.879H169.55ZM171.714 31.82V37H171.224V31.82H171.714Z" fill="#1E293B"/>
<path d="M139.276 33.066C139.738 33.066 140.111 33.213 140.396 33.507C140.68 33.7963 140.823 34.2023 140.823 34.725V37H139.843V34.858C139.843 34.55 139.766 34.3143 139.612 34.151C139.458 33.983 139.248 33.899 138.982 33.899C138.711 33.899 138.496 33.983 138.338 34.151C138.184 34.3143 138.107 34.55 138.107 34.858V37H137.127V33.122H138.107V33.605C138.237 33.437 138.403 33.3063 138.604 33.213C138.809 33.115 139.033 33.066 139.276 33.066ZM145.64 34.977C145.64 35.117 145.63 35.243 145.612 35.355H142.777C142.8 35.635 142.898 35.8543 143.071 36.013C143.243 36.1717 143.456 36.251 143.708 36.251C144.072 36.251 144.331 36.0947 144.485 35.782H145.542C145.43 36.1553 145.215 36.4633 144.898 36.706C144.58 36.944 144.191 37.063 143.729 37.063C143.355 37.063 143.019 36.9813 142.721 36.818C142.427 36.65 142.196 36.4143 142.028 36.111C141.864 35.8077 141.783 35.4577 141.783 35.061C141.783 34.6597 141.864 34.3073 142.028 34.004C142.191 33.7007 142.42 33.4673 142.714 33.304C143.008 33.1407 143.346 33.059 143.729 33.059C144.097 33.059 144.426 33.1383 144.716 33.297C145.01 33.4557 145.236 33.682 145.395 33.976C145.558 34.2653 145.64 34.599 145.64 34.977ZM144.625 34.697C144.62 34.445 144.529 34.2443 144.352 34.095C144.174 33.941 143.957 33.864 143.701 33.864C143.458 33.864 143.253 33.9387 143.085 34.088C142.921 34.2327 142.821 34.4357 142.784 34.697H144.625ZM148.777 37L147.979 35.796L147.272 37H146.222L147.489 35.054L146.208 33.122H147.314L148.105 34.319L148.819 33.122H149.869L148.595 35.054L149.883 37H148.777ZM151.836 33.927V35.803C151.836 35.9337 151.867 36.0293 151.927 36.09C151.993 36.146 152.1 36.174 152.249 36.174H152.704V37H152.088C151.262 37 150.849 36.5987 150.849 35.796V33.927H150.387V33.122H150.849V32.163H151.836V33.122H152.704V33.927H151.836Z" fill="url(#paint1_linear_799_7687)"/>
<defs>
<linearGradient id="paint0_linear_799_7687" x1="86.5" y1="0" x2="86.5" y2="34.7872" gradientUnits="userSpaceOnUse">
<stop offset="0.510417" stop-color="#2563EB"/>
<stop offset="1" stop-color="#1E40AF"/>
</linearGradient>
<linearGradient id="paint1_linear_799_7687" x1="106" y1="31" x2="106" y2="39" gradientUnits="userSpaceOnUse">
<stop offset="0.494792" stop-color="#2563EB"/>
<stop offset="1" stop-color="#1E40AF"/>
</linearGradient>
</defs>
</svg>
