<svg width="616" height="222" viewBox="0 0 616 222" fill="none" xmlns="http://www.w3.org/2000/svg">
<g filter="url(#filter0_d_871_3205)">
<rect x="4" y="2" width="612" height="295" rx="16" fill="white" shape-rendering="crispEdges"/>
<path d="M33.1477 38.3636H35.7273L39.1818 46.7955H39.3182L42.7727 38.3636H45.3523V50H43.3295V42.0057H43.2216L40.0057 49.9659H38.4943L35.2784 41.9886H35.1705V50H33.1477V38.3636ZM50.8636 50.1705C50.0114 50.1705 49.2727 49.983 48.6477 49.608C48.0227 49.233 47.5379 48.7083 47.1932 48.0341C46.8523 47.3598 46.6818 46.572 46.6818 45.6705C46.6818 44.7689 46.8523 43.9792 47.1932 43.3011C47.5379 42.6231 48.0227 42.0966 48.6477 41.7216C49.2727 41.3466 50.0114 41.1591 50.8636 41.1591C51.7159 41.1591 52.4545 41.3466 53.0795 41.7216C53.7045 42.0966 54.1875 42.6231 54.5284 43.3011C54.8731 43.9792 55.0455 44.7689 55.0455 45.6705C55.0455 46.572 54.8731 47.3598 54.5284 48.0341C54.1875 48.7083 53.7045 49.233 53.0795 49.608C52.4545 49.983 51.7159 50.1705 50.8636 50.1705ZM50.875 48.5227C51.3371 48.5227 51.7235 48.3958 52.0341 48.142C52.3447 47.8845 52.5758 47.5398 52.7273 47.108C52.8826 46.6761 52.9602 46.1951 52.9602 45.6648C52.9602 45.1307 52.8826 44.6477 52.7273 44.2159C52.5758 43.7803 52.3447 43.4337 52.0341 43.1761C51.7235 42.9186 51.3371 42.7898 50.875 42.7898C50.4015 42.7898 50.0076 42.9186 49.6932 43.1761C49.3826 43.4337 49.1496 43.7803 48.9943 44.2159C48.8428 44.6477 48.767 45.1307 48.767 45.6648C48.767 46.1951 48.8428 46.6761 48.9943 47.108C49.1496 47.5398 49.3826 47.8845 49.6932 48.142C50.0076 48.3958 50.4015 48.5227 50.875 48.5227ZM58.348 44.8864V50H56.2912V41.2727H58.2571V42.7557H58.3594C58.5601 42.267 58.8802 41.8788 59.3196 41.5909C59.7628 41.303 60.3101 41.1591 60.9616 41.1591C61.5639 41.1591 62.0885 41.2879 62.5355 41.5455C62.9863 41.803 63.3348 42.1761 63.581 42.6648C63.831 43.1534 63.9541 43.7462 63.9503 44.4432V50H61.8935V44.7614C61.8935 44.178 61.742 43.7216 61.4389 43.392C61.1397 43.0625 60.7249 42.8977 60.1946 42.8977C59.8348 42.8977 59.5147 42.9773 59.2344 43.1364C58.9579 43.2917 58.7401 43.517 58.581 43.8125C58.4257 44.108 58.348 44.4659 58.348 44.8864ZM69.8991 41.2727V42.8636H64.8821V41.2727H69.8991ZM66.1207 39.1818H68.1776V47.375C68.1776 47.6515 68.2192 47.8636 68.3026 48.0114C68.3897 48.1553 68.5033 48.2538 68.6435 48.3068C68.7836 48.3598 68.9389 48.3864 69.1094 48.3864C69.2382 48.3864 69.3556 48.3769 69.4616 48.358C69.5715 48.339 69.6548 48.322 69.7116 48.3068L70.0582 49.9148C69.9484 49.9527 69.7912 49.9943 69.5866 50.0398C69.3859 50.0852 69.1397 50.1117 68.848 50.1193C68.3329 50.1345 67.8688 50.0568 67.456 49.8864C67.0431 49.7121 66.7154 49.4432 66.473 49.0795C66.2344 48.7159 66.117 48.2614 66.1207 47.7159V39.1818ZM73.3636 44.8864V50H71.3068V38.3636H73.3182V42.7557H73.4205C73.625 42.2633 73.9413 41.875 74.3693 41.5909C74.8011 41.303 75.3504 41.1591 76.017 41.1591C76.6231 41.1591 77.1515 41.286 77.6023 41.5398C78.053 41.7936 78.4015 42.1648 78.6477 42.6534C78.8977 43.142 79.0227 43.7386 79.0227 44.4432V50H76.9659V44.7614C76.9659 44.1742 76.8144 43.7178 76.5114 43.392C76.2121 43.0625 75.7917 42.8977 75.25 42.8977C74.8864 42.8977 74.5606 42.9773 74.2727 43.1364C73.9886 43.2917 73.7652 43.517 73.6023 43.8125C73.4432 44.108 73.3636 44.4659 73.3636 44.8864ZM82.6761 38.3636V50H80.6193V38.3636H82.6761ZM85.5696 53.2727C85.2893 53.2727 85.0298 53.25 84.7912 53.2045C84.5563 53.1629 84.3688 53.1136 84.2287 53.0568L84.706 51.4545C85.0052 51.5417 85.2723 51.5833 85.5071 51.5795C85.742 51.5758 85.9484 51.5019 86.1264 51.358C86.3082 51.2178 86.4616 50.983 86.5866 50.6534L86.7628 50.1818L83.598 41.2727H85.7798L87.7912 47.8636H87.8821L89.8991 41.2727H92.0866L88.5923 51.0568C88.4295 51.5189 88.2135 51.9148 87.9446 52.2443C87.6757 52.5777 87.3461 52.8314 86.956 53.0057C86.5696 53.1837 86.1075 53.2727 85.5696 53.2727ZM102.893 41.5625C102.84 41.0663 102.617 40.6799 102.223 40.4034C101.833 40.1269 101.325 39.9886 100.7 39.9886C100.261 39.9886 99.884 40.0549 99.5696 40.1875C99.2552 40.3201 99.0147 40.5 98.848 40.7273C98.6813 40.9545 98.5961 41.214 98.5923 41.5057C98.5923 41.7481 98.6473 41.9583 98.7571 42.1364C98.8707 42.3144 99.0241 42.4659 99.2173 42.5909C99.4105 42.7121 99.6245 42.8144 99.8594 42.8977C100.094 42.9811 100.331 43.0511 100.57 43.108L101.661 43.3807C102.1 43.483 102.522 43.6212 102.928 43.7955C103.337 43.9697 103.702 44.1894 104.024 44.4545C104.35 44.7197 104.607 45.0398 104.797 45.4148C104.986 45.7898 105.081 46.2292 105.081 46.733C105.081 47.4148 104.907 48.0152 104.558 48.5341C104.21 49.0492 103.706 49.4527 103.047 49.7443C102.392 50.0322 101.598 50.1761 100.666 50.1761C99.7609 50.1761 98.9749 50.036 98.3082 49.7557C97.6454 49.4754 97.1264 49.0663 96.7514 48.5284C96.3802 47.9905 96.1795 47.3352 96.1491 46.5625H98.223C98.2533 46.9678 98.3783 47.3049 98.598 47.5739C98.8177 47.8428 99.1037 48.0436 99.456 48.1761C99.812 48.3087 100.21 48.375 100.649 48.375C101.107 48.375 101.509 48.3068 101.854 48.1705C102.202 48.0303 102.475 47.8371 102.672 47.5909C102.869 47.3409 102.969 47.0492 102.973 46.7159C102.969 46.4129 102.88 46.1629 102.706 45.9659C102.532 45.7652 102.287 45.5985 101.973 45.4659C101.662 45.3295 101.299 45.2083 100.882 45.1023L99.5582 44.7614C98.5999 44.5152 97.8423 44.142 97.2855 43.642C96.7325 43.1383 96.456 42.4697 96.456 41.6364C96.456 40.9508 96.6416 40.3504 97.0128 39.8352C97.3878 39.3201 97.8973 38.9205 98.5412 38.6364C99.1851 38.3485 99.9143 38.2045 100.729 38.2045C101.554 38.2045 102.278 38.3485 102.899 38.6364C103.524 38.9205 104.015 39.3163 104.371 39.8239C104.727 40.3277 104.911 40.9072 104.922 41.5625H102.893ZM110.727 41.2727V42.8636H105.71V41.2727H110.727ZM106.949 39.1818H109.006V47.375C109.006 47.6515 109.047 47.8636 109.131 48.0114C109.218 48.1553 109.331 48.2538 109.472 48.3068C109.612 48.3598 109.767 48.3864 109.938 48.3864C110.066 48.3864 110.184 48.3769 110.29 48.358C110.4 48.339 110.483 48.322 110.54 48.3068L110.886 49.9148C110.777 49.9527 110.619 49.9943 110.415 50.0398C110.214 50.0852 109.968 50.1117 109.676 50.1193C109.161 50.1345 108.697 50.0568 108.284 49.8864C107.871 49.7121 107.544 49.4432 107.301 49.0795C107.063 48.7159 106.945 48.2614 106.949 47.7159V39.1818ZM114.459 50.1761C113.906 50.1761 113.408 50.0777 112.964 49.8807C112.525 49.6799 112.177 49.3845 111.919 48.9943C111.665 48.6042 111.538 48.1231 111.538 47.5511C111.538 47.0587 111.629 46.6515 111.811 46.3295C111.993 46.0076 112.241 45.75 112.555 45.5568C112.87 45.3636 113.224 45.2178 113.618 45.1193C114.016 45.017 114.427 44.9432 114.851 44.8977C115.362 44.8447 115.777 44.7973 116.095 44.7557C116.413 44.7102 116.644 44.642 116.788 44.5511C116.936 44.4564 117.01 44.3106 117.01 44.1136V44.0795C117.01 43.6515 116.883 43.3201 116.629 43.0852C116.375 42.8504 116.01 42.733 115.533 42.733C115.029 42.733 114.629 42.8428 114.334 43.0625C114.042 43.2822 113.845 43.5417 113.743 43.8409L111.822 43.5682C111.974 43.0379 112.224 42.5947 112.572 42.2386C112.921 41.8788 113.347 41.6098 113.851 41.4318C114.355 41.25 114.911 41.1591 115.521 41.1591C115.942 41.1591 116.36 41.2083 116.777 41.3068C117.194 41.4053 117.574 41.5682 117.919 41.7955C118.264 42.0189 118.54 42.3239 118.749 42.7102C118.961 43.0966 119.067 43.5795 119.067 44.1591V50H117.089V48.8011H117.021C116.896 49.0436 116.72 49.2708 116.493 49.483C116.269 49.6913 115.987 49.8598 115.646 49.9886C115.309 50.1136 114.913 50.1761 114.459 50.1761ZM114.993 48.6648C115.406 48.6648 115.764 48.5833 116.067 48.4205C116.37 48.2538 116.603 48.0341 116.766 47.7614C116.932 47.4886 117.016 47.1913 117.016 46.8693V45.8409C116.951 45.8939 116.841 45.9432 116.686 45.9886C116.535 46.0341 116.364 46.0739 116.175 46.108C115.985 46.142 115.798 46.1723 115.612 46.1989C115.427 46.2254 115.266 46.2481 115.129 46.267C114.822 46.3087 114.548 46.3769 114.305 46.4716C114.063 46.5663 113.872 46.6989 113.732 46.8693C113.591 47.036 113.521 47.2519 113.521 47.517C113.521 47.8958 113.66 48.1818 113.936 48.375C114.213 48.5682 114.565 48.6648 114.993 48.6648ZM124.993 41.2727V42.8636H119.976V41.2727H124.993ZM121.214 39.1818H123.271V47.375C123.271 47.6515 123.313 47.8636 123.396 48.0114C123.483 48.1553 123.597 48.2538 123.737 48.3068C123.877 48.3598 124.033 48.3864 124.203 48.3864C124.332 48.3864 124.449 48.3769 124.555 48.358C124.665 48.339 124.749 48.322 124.805 48.3068L125.152 49.9148C125.042 49.9527 124.885 49.9943 124.68 50.0398C124.48 50.0852 124.233 50.1117 123.942 50.1193C123.427 50.1345 122.963 50.0568 122.55 49.8864C122.137 49.7121 121.809 49.4432 121.567 49.0795C121.328 48.7159 121.211 48.2614 121.214 47.7159V39.1818ZM126.213 50V41.2727H128.27V50H126.213ZM127.247 40.0341C126.921 40.0341 126.641 39.9261 126.406 39.7102C126.171 39.4905 126.054 39.2273 126.054 38.9205C126.054 38.6098 126.171 38.3466 126.406 38.1307C126.641 37.911 126.921 37.8011 127.247 37.8011C127.577 37.8011 127.857 37.911 128.088 38.1307C128.323 38.3466 128.44 38.6098 128.44 38.9205C128.44 39.2273 128.323 39.4905 128.088 39.7102C127.857 39.9261 127.577 40.0341 127.247 40.0341ZM136.783 43.5795L134.908 43.7841C134.855 43.5947 134.762 43.4167 134.629 43.25C134.5 43.0833 134.326 42.9489 134.107 42.8466C133.887 42.7443 133.618 42.6932 133.3 42.6932C132.872 42.6932 132.512 42.786 132.22 42.9716C131.932 43.1572 131.79 43.3977 131.794 43.6932C131.79 43.947 131.883 44.1534 132.072 44.3125C132.266 44.4716 132.584 44.6023 133.027 44.7045L134.516 45.0227C135.341 45.2008 135.955 45.483 136.357 45.8693C136.762 46.2557 136.966 46.7614 136.97 47.3864C136.966 47.9356 136.805 48.4205 136.487 48.8409C136.173 49.2576 135.735 49.5833 135.175 49.8182C134.614 50.053 133.97 50.1705 133.243 50.1705C132.175 50.1705 131.315 49.947 130.663 49.5C130.012 49.0492 129.624 48.4223 129.499 47.6193L131.504 47.4261C131.595 47.8201 131.788 48.1174 132.084 48.3182C132.379 48.5189 132.764 48.6193 133.237 48.6193C133.726 48.6193 134.118 48.5189 134.413 48.3182C134.713 48.1174 134.862 47.8693 134.862 47.5739C134.862 47.3239 134.766 47.1174 134.572 46.9545C134.383 46.7917 134.088 46.6667 133.686 46.5795L132.197 46.267C131.36 46.0928 130.741 45.7992 130.339 45.3864C129.938 44.9697 129.739 44.4432 129.743 43.8068C129.739 43.2689 129.885 42.803 130.18 42.4091C130.48 42.0114 130.894 41.7045 131.425 41.4886C131.959 41.2689 132.574 41.1591 133.271 41.1591C134.294 41.1591 135.099 41.3769 135.686 41.8125C136.277 42.2481 136.643 42.8371 136.783 43.5795ZM142.524 41.2727V42.8636H137.507V41.2727H142.524ZM138.746 39.1818H140.803V47.375C140.803 47.6515 140.844 47.8636 140.928 48.0114C141.015 48.1553 141.128 48.2538 141.268 48.3068C141.409 48.3598 141.564 48.3864 141.734 48.3864C141.863 48.3864 141.981 48.3769 142.087 48.358C142.196 48.339 142.28 48.322 142.337 48.3068L142.683 49.9148C142.573 49.9527 142.416 49.9943 142.212 50.0398C142.011 50.0852 141.765 50.1117 141.473 50.1193C140.958 50.1345 140.494 50.0568 140.081 49.8864C139.668 49.7121 139.34 49.4432 139.098 49.0795C138.859 48.7159 138.742 48.2614 138.746 47.7159V39.1818ZM143.744 50V41.2727H145.801V50H143.744ZM144.778 40.0341C144.453 40.0341 144.172 39.9261 143.938 39.7102C143.703 39.4905 143.585 39.2273 143.585 38.9205C143.585 38.6098 143.703 38.3466 143.938 38.1307C144.172 37.911 144.453 37.8011 144.778 37.8011C145.108 37.8011 145.388 37.911 145.619 38.1307C145.854 38.3466 145.972 38.6098 145.972 38.9205C145.972 39.2273 145.854 39.4905 145.619 39.7102C145.388 39.9261 145.108 40.0341 144.778 40.0341ZM151.223 50.1705C150.352 50.1705 149.604 49.9792 148.979 49.5966C148.357 49.214 147.878 48.6856 147.541 48.0114C147.208 47.3333 147.041 46.553 147.041 45.6705C147.041 44.7841 147.212 44.0019 147.553 43.3239C147.893 42.642 148.375 42.1117 148.996 41.733C149.621 41.3504 150.359 41.1591 151.212 41.1591C151.92 41.1591 152.547 41.2898 153.092 41.5511C153.642 41.8087 154.079 42.1742 154.405 42.6477C154.731 43.1174 154.916 43.6667 154.962 44.2955H152.996C152.916 43.875 152.727 43.5246 152.428 43.2443C152.132 42.9602 151.736 42.8182 151.24 42.8182C150.82 42.8182 150.45 42.9318 150.132 43.1591C149.814 43.3826 149.566 43.7045 149.388 44.125C149.214 44.5455 149.126 45.0492 149.126 45.6364C149.126 46.2311 149.214 46.7424 149.388 47.1705C149.562 47.5947 149.806 47.9223 150.121 48.1534C150.439 48.3807 150.812 48.4943 151.24 48.4943C151.543 48.4943 151.814 48.4375 152.053 48.3239C152.295 48.2064 152.498 48.0379 152.661 47.8182C152.823 47.5985 152.935 47.3314 152.996 47.017H154.962C154.912 47.6345 154.731 48.1818 154.416 48.6591C154.102 49.1326 153.674 49.5038 153.132 49.7727C152.59 50.0379 151.954 50.1705 151.223 50.1705ZM163.048 43.5795L161.173 43.7841C161.12 43.5947 161.027 43.4167 160.895 43.25C160.766 43.0833 160.592 42.9489 160.372 42.8466C160.152 42.7443 159.884 42.6932 159.565 42.6932C159.137 42.6932 158.777 42.786 158.486 42.9716C158.198 43.1572 158.056 43.3977 158.06 43.6932C158.056 43.947 158.149 44.1534 158.338 44.3125C158.531 44.4716 158.849 44.6023 159.293 44.7045L160.781 45.0227C161.607 45.2008 162.221 45.483 162.622 45.8693C163.027 46.2557 163.232 46.7614 163.236 47.3864C163.232 47.9356 163.071 48.4205 162.753 48.8409C162.438 49.2576 162.001 49.5833 161.44 49.8182C160.88 50.053 160.236 50.1705 159.509 50.1705C158.44 50.1705 157.58 49.947 156.929 49.5C156.277 49.0492 155.889 48.4223 155.764 47.6193L157.77 47.4261C157.861 47.8201 158.054 48.1174 158.349 48.3182C158.645 48.5189 159.029 48.6193 159.503 48.6193C159.991 48.6193 160.384 48.5189 160.679 48.3182C160.978 48.1174 161.128 47.8693 161.128 47.5739C161.128 47.3239 161.031 47.1174 160.838 46.9545C160.649 46.7917 160.353 46.6667 159.952 46.5795L158.463 46.267C157.626 46.0928 157.007 45.7992 156.605 45.3864C156.204 44.9697 156.005 44.4432 156.009 43.8068C156.005 43.2689 156.151 42.803 156.446 42.4091C156.745 42.0114 157.16 41.7045 157.69 41.4886C158.224 41.2689 158.84 41.1591 159.537 41.1591C160.56 41.1591 161.365 41.3769 161.952 41.8125C162.543 42.2481 162.908 42.8371 163.048 43.5795Z" fill="#7A7A7A"/>
<rect x="336" y="30" width="240" height="28" rx="6" fill="#EEF2F5"/>
<rect x="338" y="32" width="55" height="24" rx="6" fill="white"/>
<path d="M349.666 49.3327V41.9993H352.333V49.3327H349.666ZM353.666 49.3327V38.666H356.333V49.3327H353.666ZM357.666 49.3327V44.666H360.333V49.3327H357.666Z" fill="#1E293B"/>
<path d="M366.057 48V39.2727H369.108C369.716 39.2727 370.217 39.3778 370.612 39.5881C371.007 39.7955 371.301 40.0753 371.494 40.4276C371.688 40.777 371.784 41.1648 371.784 41.5909C371.784 41.9659 371.717 42.2756 371.584 42.5199C371.453 42.7642 371.28 42.9574 371.064 43.0994C370.851 43.2415 370.619 43.3466 370.369 43.4148V43.5C370.636 43.517 370.905 43.6108 371.175 43.7812C371.445 43.9517 371.67 44.196 371.852 44.5142C372.034 44.8324 372.125 45.2216 372.125 45.6818C372.125 46.1193 372.026 46.5128 371.827 46.8622C371.628 47.2116 371.314 47.4886 370.885 47.6932C370.456 47.8977 369.898 48 369.21 48H366.057ZM367.114 47.0625H369.21C369.901 47.0625 370.391 46.929 370.68 46.6619C370.973 46.392 371.119 46.0653 371.119 45.6818C371.119 45.3864 371.044 45.1136 370.893 44.8636C370.743 44.6108 370.528 44.4091 370.25 44.2585C369.972 44.1051 369.642 44.0284 369.261 44.0284H367.114V47.0625ZM367.114 43.108H369.074C369.392 43.108 369.679 43.0455 369.935 42.9205C370.193 42.7955 370.398 42.6193 370.548 42.392C370.702 42.1648 370.778 41.8977 370.778 41.5909C370.778 41.2074 370.645 40.8821 370.378 40.6151C370.111 40.3452 369.688 40.2102 369.108 40.2102H367.114V43.108ZM375.651 48.1534C375.237 48.1534 374.86 48.0753 374.522 47.919C374.184 47.7599 373.915 47.5312 373.717 47.233C373.518 46.9318 373.418 46.5682 373.418 46.142C373.418 45.767 373.492 45.4631 373.64 45.2301C373.788 44.9943 373.985 44.8097 374.232 44.6761C374.479 44.5426 374.752 44.4432 375.05 44.3778C375.352 44.3097 375.654 44.2557 375.958 44.2159C376.356 44.1648 376.678 44.1264 376.925 44.1009C377.175 44.0724 377.357 44.0256 377.471 43.9602C377.587 43.8949 377.646 43.7812 377.646 43.6193V43.5852C377.646 43.1648 377.531 42.8381 377.3 42.6051C377.073 42.3722 376.728 42.2557 376.265 42.2557C375.785 42.2557 375.408 42.3608 375.136 42.571C374.863 42.7812 374.671 43.0057 374.56 43.2443L373.606 42.9034C373.776 42.5057 374.004 42.196 374.288 41.9744C374.575 41.75 374.887 41.5937 375.225 41.5057C375.566 41.4148 375.901 41.3693 376.231 41.3693C376.441 41.3693 376.683 41.3949 376.955 41.446C377.231 41.4943 377.496 41.5952 377.752 41.7486C378.011 41.902 378.225 42.1335 378.396 42.4432C378.566 42.7528 378.651 43.1676 378.651 43.6875V48H377.646V47.1136H377.594C377.526 47.2557 377.413 47.4077 377.254 47.5696C377.094 47.7315 376.883 47.8693 376.619 47.983C376.354 48.0966 376.032 48.1534 375.651 48.1534ZM375.805 47.25C376.202 47.25 376.538 47.1719 376.81 47.0156C377.086 46.8594 377.293 46.6577 377.433 46.4105C377.575 46.1634 377.646 45.9034 377.646 45.6307V44.7102C377.603 44.7614 377.509 44.8082 377.364 44.8509C377.222 44.8906 377.058 44.9261 376.87 44.9574C376.685 44.9858 376.505 45.0114 376.329 45.0341C376.156 45.054 376.015 45.071 375.907 45.0852C375.646 45.1193 375.401 45.1747 375.174 45.2514C374.95 45.3253 374.768 45.4375 374.629 45.5881C374.492 45.7358 374.424 45.9375 374.424 46.1932C374.424 46.5426 374.553 46.8068 374.812 46.9858C375.073 47.1619 375.404 47.25 375.805 47.25ZM380.487 48V41.4545H381.458V42.4432H381.527C381.646 42.1193 381.862 41.8565 382.174 41.6548C382.487 41.4531 382.839 41.3523 383.231 41.3523C383.305 41.3523 383.397 41.3537 383.508 41.3565C383.619 41.3594 383.703 41.3636 383.76 41.3693V42.392C383.725 42.3835 383.647 42.3707 383.525 42.3537C383.406 42.3338 383.279 42.3239 383.146 42.3239C382.828 42.3239 382.544 42.3906 382.294 42.5241C382.047 42.6548 381.85 42.8366 381.706 43.0696C381.564 43.2997 381.493 43.5625 381.493 43.858V48H380.487Z" fill="#1E293B"/>
<path d="M419.667 43.8533L422.494 38.9667L423.647 39.6333L420.161 45.6667L415.821 43.1667L412.641 48.6667H423.667V50H410.334V38H411.667V47.6933L415.334 41.3333L419.667 43.8533Z" fill="#545F71"/>
<path d="M428.057 48V39.2727H429.114V47.0625H433.17V48H428.057ZM434.67 48V41.4545H435.676V48H434.67ZM435.182 40.3636C434.986 40.3636 434.817 40.2969 434.675 40.1634C434.536 40.0298 434.466 39.8693 434.466 39.6818C434.466 39.4943 434.536 39.3338 434.675 39.2003C434.817 39.0668 434.986 39 435.182 39C435.378 39 435.545 39.0668 435.685 39.2003C435.827 39.3338 435.898 39.4943 435.898 39.6818C435.898 39.8693 435.827 40.0298 435.685 40.1634C435.545 40.2969 435.378 40.3636 435.182 40.3636ZM438.524 44.0625V48H437.518V41.4545H438.49V42.4773H438.575C438.728 42.1449 438.961 41.8778 439.274 41.6761C439.586 41.4716 439.99 41.3693 440.484 41.3693C440.927 41.3693 441.315 41.4602 441.647 41.642C441.98 41.821 442.238 42.0938 442.423 42.4602C442.608 42.8239 442.7 43.2841 442.7 43.8409V48H441.694V43.9091C441.694 43.3949 441.561 42.9943 441.294 42.7074C441.027 42.4176 440.66 42.2727 440.194 42.2727C439.873 42.2727 439.586 42.3423 439.333 42.4815C439.083 42.6207 438.886 42.8239 438.741 43.0909C438.596 43.358 438.524 43.6818 438.524 44.0625ZM447.282 48.1364C446.651 48.1364 446.107 47.9972 445.65 47.7188C445.195 47.4375 444.844 47.0455 444.597 46.5426C444.353 46.0369 444.231 45.4489 444.231 44.7784C444.231 44.108 444.353 43.517 444.597 43.0057C444.844 42.4915 445.188 42.0909 445.629 41.804C446.072 41.5142 446.589 41.3693 447.18 41.3693C447.521 41.3693 447.857 41.4261 448.19 41.5398C448.522 41.6534 448.825 41.8381 449.097 42.0938C449.37 42.3466 449.587 42.6818 449.749 43.0994C449.911 43.517 449.992 44.0312 449.992 44.642V45.0682H444.947V44.1989H448.969C448.969 43.8295 448.896 43.5 448.748 43.2102C448.603 42.9205 448.396 42.6918 448.126 42.5241C447.859 42.3565 447.543 42.2727 447.18 42.2727C446.779 42.2727 446.433 42.3722 446.14 42.571C445.85 42.767 445.627 43.0227 445.471 43.3381C445.315 43.6534 445.237 43.9915 445.237 44.3523V44.9318C445.237 45.4261 445.322 45.8452 445.492 46.1889C445.665 46.5298 445.906 46.7898 446.212 46.9688C446.519 47.1449 446.876 47.233 447.282 47.233C447.546 47.233 447.785 47.196 447.998 47.1222C448.214 47.0455 448.4 46.9318 448.556 46.7812C448.712 46.6278 448.833 46.4375 448.918 46.2102L449.89 46.483C449.788 46.8125 449.616 47.1023 449.374 47.3523C449.133 47.5994 448.835 47.7926 448.479 47.9318C448.124 48.0682 447.725 48.1364 447.282 48.1364Z" fill="#545F71"/>
<path d="M477.667 43.8533L480.494 38.9667L481.647 39.6333L478.161 45.6667L473.821 43.1667L470.641 48.6667H481.667V50H468.334V38H469.667V47.6933L473.334 41.3333L477.667 43.8533Z" fill="#545F71"/>
<path d="M486.415 48H485.307L488.511 39.2727H489.602L492.807 48H491.699L489.091 40.6534H489.023L486.415 48ZM486.824 44.5909H491.29V45.5284H486.824V44.5909ZM494.03 48V41.4545H495.001V42.4432H495.07C495.189 42.1193 495.405 41.8565 495.717 41.6548C496.03 41.4531 496.382 41.3523 496.774 41.3523C496.848 41.3523 496.94 41.3537 497.051 41.3565C497.162 41.3594 497.246 41.3636 497.303 41.3693V42.392C497.268 42.3835 497.19 42.3707 497.068 42.3537C496.949 42.3338 496.822 42.3239 496.689 42.3239C496.371 42.3239 496.087 42.3906 495.837 42.5241C495.589 42.6548 495.393 42.8366 495.249 43.0696C495.107 43.2997 495.036 43.5625 495.036 43.858V48H494.03ZM501.04 48.1364C500.409 48.1364 499.865 47.9972 499.408 47.7188C498.953 47.4375 498.602 47.0455 498.355 46.5426C498.111 46.0369 497.989 45.4489 497.989 44.7784C497.989 44.108 498.111 43.517 498.355 43.0057C498.602 42.4915 498.946 42.0909 499.386 41.804C499.83 41.5142 500.347 41.3693 500.938 41.3693C501.278 41.3693 501.615 41.4261 501.947 41.5398C502.28 41.6534 502.582 41.8381 502.855 42.0938C503.128 42.3466 503.345 42.6818 503.507 43.0994C503.669 43.517 503.75 44.0312 503.75 44.642V45.0682H498.705V44.1989H502.727C502.727 43.8295 502.653 43.5 502.506 43.2102C502.361 42.9205 502.153 42.6918 501.884 42.5241C501.616 42.3565 501.301 42.2727 500.938 42.2727C500.537 42.2727 500.19 42.3722 499.898 42.571C499.608 42.767 499.385 43.0227 499.229 43.3381C499.072 43.6534 498.994 43.9915 498.994 44.3523V44.9318C498.994 45.4261 499.08 45.8452 499.25 46.1889C499.423 46.5298 499.663 46.7898 499.97 46.9688C500.277 47.1449 500.634 47.233 501.04 47.233C501.304 47.233 501.543 47.196 501.756 47.1222C501.972 47.0455 502.158 46.9318 502.314 46.7812C502.47 46.6278 502.591 46.4375 502.676 46.2102L503.648 46.483C503.545 46.8125 503.374 47.1023 503.132 47.3523C502.891 47.5994 502.592 47.7926 502.237 47.9318C501.882 48.0682 501.483 48.1364 501.04 48.1364ZM507.206 48.1534C506.791 48.1534 506.415 48.0753 506.077 47.919C505.739 47.7599 505.47 47.5312 505.271 47.233C505.072 46.9318 504.973 46.5682 504.973 46.142C504.973 45.767 505.047 45.4631 505.195 45.2301C505.342 44.9943 505.54 44.8097 505.787 44.6761C506.034 44.5426 506.307 44.4432 506.605 44.3778C506.906 44.3097 507.209 44.2557 507.513 44.2159C507.911 44.1648 508.233 44.1264 508.48 44.1009C508.73 44.0724 508.912 44.0256 509.026 43.9602C509.142 43.8949 509.2 43.7812 509.2 43.6193V43.5852C509.2 43.1648 509.085 42.8381 508.855 42.6051C508.628 42.3722 508.283 42.2557 507.82 42.2557C507.339 42.2557 506.963 42.3608 506.69 42.571C506.418 42.7812 506.226 43.0057 506.115 43.2443L505.161 42.9034C505.331 42.5057 505.558 42.196 505.842 41.9744C506.129 41.75 506.442 41.5937 506.78 41.5057C507.121 41.4148 507.456 41.3693 507.786 41.3693C507.996 41.3693 508.237 41.3949 508.51 41.446C508.786 41.4943 509.051 41.5952 509.307 41.7486C509.565 41.902 509.78 42.1335 509.95 42.4432C510.121 42.7528 510.206 43.1676 510.206 43.6875V48H509.2V47.1136H509.149C509.081 47.2557 508.967 47.4077 508.808 47.5696C508.649 47.7315 508.438 47.8693 508.173 47.983C507.909 48.0966 507.587 48.1534 507.206 48.1534ZM507.359 47.25C507.757 47.25 508.092 47.1719 508.365 47.0156C508.641 46.8594 508.848 46.6577 508.987 46.4105C509.129 46.1634 509.2 45.9034 509.2 45.6307V44.7102C509.158 44.7614 509.064 44.8082 508.919 44.8509C508.777 44.8906 508.612 44.9261 508.425 44.9574C508.24 44.9858 508.06 45.0114 507.884 45.0341C507.71 45.054 507.57 45.071 507.462 45.0852C507.2 45.1193 506.956 45.1747 506.729 45.2514C506.504 45.3253 506.322 45.4375 506.183 45.5881C506.047 45.7358 505.979 45.9375 505.979 46.1932C505.979 46.5426 506.108 46.8068 506.366 46.9858C506.628 47.1619 506.959 47.25 507.359 47.25Z" fill="#1E293B"/>
<path d="M538.667 43.8533L541.494 38.9667L542.647 39.6333L539.161 45.6667L534.821 43.1667L531.641 48.6667H542.667V50H529.334V38H530.667V47.6933L534.334 41.3333L538.667 43.8533Z" fill="#545F71"/>
<path d="M547.057 48V39.2727H550.006C550.69 39.2727 551.25 39.3963 551.685 39.6435C552.122 39.8878 552.446 40.2188 552.656 40.6364C552.866 41.054 552.972 41.5199 552.972 42.0341C552.972 42.5483 552.866 43.0156 552.656 43.4361C552.449 43.8565 552.128 44.1918 551.693 44.4418C551.259 44.6889 550.702 44.8125 550.023 44.8125H547.909V43.875H549.989C550.457 43.875 550.834 43.794 551.118 43.6321C551.402 43.4702 551.608 43.2514 551.736 42.9759C551.866 42.6974 551.932 42.3835 551.932 42.0341C551.932 41.6847 551.866 41.3722 551.736 41.0966C551.608 40.821 551.401 40.6051 551.114 40.4489C550.827 40.2898 550.446 40.2102 549.972 40.2102H548.114V48H547.057ZM554.538 48V41.4545H555.543V48H554.538ZM555.049 40.3636C554.853 40.3636 554.684 40.2969 554.542 40.1634C554.403 40.0298 554.333 39.8693 554.333 39.6818C554.333 39.4943 554.403 39.3338 554.542 39.2003C554.684 39.0668 554.853 39 555.049 39C555.245 39 555.413 39.0668 555.552 39.2003C555.694 39.3338 555.765 39.4943 555.765 39.6818C555.765 39.8693 555.694 40.0298 555.552 40.1634C555.413 40.2969 555.245 40.3636 555.049 40.3636ZM560.13 48.1364C559.499 48.1364 558.955 47.9972 558.498 47.7188C558.043 47.4375 557.692 47.0455 557.445 46.5426C557.201 46.0369 557.078 45.4489 557.078 44.7784C557.078 44.108 557.201 43.517 557.445 43.0057C557.692 42.4915 558.036 42.0909 558.476 41.804C558.919 41.5142 559.436 41.3693 560.027 41.3693C560.368 41.3693 560.705 41.4261 561.037 41.5398C561.37 41.6534 561.672 41.8381 561.945 42.0938C562.218 42.3466 562.435 42.6818 562.597 43.0994C562.759 43.517 562.84 44.0312 562.84 44.642V45.0682H557.794V44.1989H561.817C561.817 43.8295 561.743 43.5 561.596 43.2102C561.451 42.9205 561.243 42.6918 560.973 42.5241C560.706 42.3565 560.391 42.2727 560.027 42.2727C559.627 42.2727 559.28 42.3722 558.988 42.571C558.698 42.767 558.475 43.0227 558.319 43.3381C558.162 43.6534 558.084 43.9915 558.084 44.3523V44.9318C558.084 45.4261 558.169 45.8452 558.34 46.1889C558.513 46.5298 558.753 46.7898 559.06 46.9688C559.367 47.1449 559.723 47.233 560.13 47.233C560.394 47.233 560.632 47.196 560.846 47.1222C561.061 47.0455 561.248 46.9318 561.404 46.7812C561.56 46.6278 561.681 46.4375 561.766 46.2102L562.738 46.483C562.635 46.8125 562.463 47.1023 562.222 47.3523C561.98 47.5994 561.682 47.7926 561.327 47.9318C560.972 48.0682 560.573 48.1364 560.13 48.1364Z" fill="#1E293B"/>
<path d="M32.8631 97V96.2671L35.6154 93.2543C35.9384 92.9014 36.2044 92.5947 36.4134 92.3341C36.6224 92.0708 36.7772 91.8238 36.8776 91.5931C36.9807 91.3597 37.0323 91.1154 37.0323 90.8603C37.0323 90.5671 36.9617 90.3133 36.8206 90.0989C36.6822 89.8845 36.4922 89.7189 36.2506 89.6022C36.009 89.4855 35.7376 89.4271 35.4363 89.4271C35.116 89.4271 34.8364 89.4936 34.5976 89.6266C34.3614 89.7569 34.1782 89.9401 34.0479 90.1763C33.9204 90.4124 33.8566 90.6893 33.8566 91.0068H32.8957C32.8957 90.5183 33.0084 90.0894 33.2336 89.7203C33.4589 89.3511 33.7656 89.0634 34.1538 88.8571C34.5447 88.6508 34.983 88.5477 35.4689 88.5477C35.9574 88.5477 36.3904 88.6508 36.7677 88.8571C37.1449 89.0634 37.4408 89.3416 37.6552 89.6918C37.8697 90.0419 37.9769 90.4314 37.9769 90.8603C37.9769 91.167 37.9212 91.4669 37.8099 91.7601C37.7014 92.0505 37.5114 92.3748 37.2399 92.7331C36.9712 93.0887 36.598 93.523 36.1203 94.036L34.2474 96.0391V96.1043H38.1234V97H32.8631ZM42.5247 97.114C41.9112 97.114 41.3887 96.9471 40.9572 96.6132C40.5256 96.2766 40.1958 95.7894 39.9678 95.1516C39.7398 94.511 39.6258 93.7374 39.6258 92.8308C39.6258 91.9297 39.7398 91.1602 39.9678 90.5223C40.1985 89.8818 40.5297 89.3932 40.9612 89.0566C41.3955 88.7173 41.9167 88.5477 42.5247 88.5477C43.1327 88.5477 43.6525 88.7173 44.084 89.0566C44.5183 89.3932 44.8495 89.8818 45.0775 90.5223C45.3082 91.1602 45.4235 91.9297 45.4235 92.8308C45.4235 93.7374 45.3095 94.511 45.0815 95.1516C44.8535 95.7894 44.5238 96.2766 44.0922 96.6132C43.6606 96.9471 43.1381 97.114 42.5247 97.114ZM42.5247 96.2183C43.1327 96.2183 43.605 95.9251 43.9415 95.3389C44.2781 94.7526 44.4464 93.9166 44.4464 92.8308C44.4464 92.1088 44.369 91.4941 44.2143 90.9865C44.0623 90.4789 43.8425 90.0921 43.5548 89.8261C43.2698 89.5601 42.9264 89.4271 42.5247 89.4271C41.9221 89.4271 41.4512 89.7243 41.1119 90.3188C40.7726 90.9105 40.603 91.7478 40.603 92.8308C40.603 93.5528 40.679 94.1663 40.831 94.6711C40.983 95.176 41.2015 95.5601 41.4865 95.8234C41.7742 96.0866 42.1202 96.2183 42.5247 96.2183ZM49.6904 97.114C49.077 97.114 48.5545 96.9471 48.1229 96.6132C47.6913 96.2766 47.3616 95.7894 47.1336 95.1516C46.9056 94.511 46.7916 93.7374 46.7916 92.8308C46.7916 91.9297 46.9056 91.1602 47.1336 90.5223C47.3643 89.8818 47.6954 89.3932 48.127 89.0566C48.5613 88.7173 49.0824 88.5477 49.6904 88.5477C50.2984 88.5477 50.8182 88.7173 51.2498 89.0566C51.6841 89.3932 52.0152 89.8818 52.2432 90.5223C52.4739 91.1602 52.5893 91.9297 52.5893 92.8308C52.5893 93.7374 52.4753 94.511 52.2473 95.1516C52.0193 95.7894 51.6895 96.2766 51.2579 96.6132C50.8263 96.9471 50.3038 97.114 49.6904 97.114ZM49.6904 96.2183C50.2984 96.2183 50.7707 95.9251 51.1073 95.3389C51.4439 94.7526 51.6121 93.9166 51.6121 92.8308C51.6121 92.1088 51.5348 91.4941 51.3801 90.9865C51.2281 90.4789 51.0082 90.0921 50.7205 89.8261C50.4355 89.5601 50.0921 89.4271 49.6904 89.4271C49.0878 89.4271 48.6169 89.7243 48.2776 90.3188C47.9383 90.9105 47.7687 91.7478 47.7687 92.8308C47.7687 93.5528 47.8447 94.1663 47.9967 94.6711C48.1487 95.176 48.3672 95.5601 48.6522 95.8234C48.9399 96.0866 49.286 96.2183 49.6904 96.2183ZM56.8562 97.114C56.2427 97.114 55.7202 96.9471 55.2886 96.6132C54.8571 96.2766 54.5273 95.7894 54.2993 95.1516C54.0713 94.511 53.9573 93.7374 53.9573 92.8308C53.9573 91.9297 54.0713 91.1602 54.2993 90.5223C54.53 89.8818 54.8611 89.3932 55.2927 89.0566C55.727 88.7173 56.2482 88.5477 56.8562 88.5477C57.4642 88.5477 57.9839 88.7173 58.4155 89.0566C58.8498 89.3932 59.1809 89.8818 59.4089 90.5223C59.6397 91.1602 59.755 91.9297 59.755 92.8308C59.755 93.7374 59.641 94.511 59.413 95.1516C59.185 95.7894 58.8552 96.2766 58.4237 96.6132C57.9921 96.9471 57.4696 97.114 56.8562 97.114ZM56.8562 96.2183C57.4642 96.2183 57.9364 95.9251 58.273 95.3389C58.6096 94.7526 58.7779 93.9166 58.7779 92.8308C58.7779 92.1088 58.7005 91.4941 58.5458 90.9865C58.3938 90.4789 58.1739 90.0921 57.8862 89.8261C57.6012 89.5601 57.2579 89.4271 56.8562 89.4271C56.2536 89.4271 55.7827 89.7243 55.4434 90.3188C55.1041 90.9105 54.9344 91.7478 54.9344 92.8308C54.9344 93.5528 55.0104 94.1663 55.1624 94.6711C55.3144 95.176 55.5329 95.5601 55.8179 95.8234C56.1057 96.0866 56.4517 96.2183 56.8562 96.2183ZM35.7946 130.662V139H34.7849V131.72H34.736L32.7003 133.072V132.046L34.7849 130.662H35.7946ZM40.7984 139.114C40.3207 139.114 39.8905 139.019 39.5077 138.829C39.125 138.639 38.8183 138.378 38.5876 138.047C38.3569 137.716 38.2307 137.339 38.2089 136.915H39.1861C39.2241 137.293 39.3951 137.605 39.6991 137.852C40.0058 138.096 40.3722 138.218 40.7984 138.218C41.1404 138.218 41.4444 138.138 41.7104 137.978C41.9791 137.818 42.1895 137.598 42.3415 137.318C42.4962 137.036 42.5735 136.717 42.5735 136.362C42.5735 135.998 42.4935 135.674 42.3333 135.389C42.1759 135.101 41.9587 134.874 41.6819 134.709C41.405 134.543 41.0888 134.459 40.7332 134.456C40.4781 134.454 40.2162 134.493 39.9475 134.574C39.6787 134.653 39.4575 134.755 39.2838 134.88L38.3392 134.766L38.8441 130.662H43.1761V131.557H39.691L39.3978 134.017H39.4467C39.6177 133.881 39.8321 133.768 40.09 133.679C40.3478 133.589 40.6165 133.544 40.8961 133.544C41.4064 133.544 41.861 133.666 42.26 133.911C42.6618 134.152 42.9766 134.483 43.2046 134.904C43.4353 135.325 43.5507 135.805 43.5507 136.345C43.5507 136.877 43.4313 137.352 43.1924 137.77C42.9563 138.186 42.6305 138.514 42.2152 138.756C41.8 138.995 41.3277 139.114 40.7984 139.114ZM47.8878 139.114C47.2744 139.114 46.7519 138.947 46.3203 138.613C45.8887 138.277 45.5589 137.789 45.3309 137.152C45.1029 136.511 44.9889 135.737 44.9889 134.831C44.9889 133.93 45.1029 133.16 45.3309 132.522C45.5616 131.882 45.8928 131.393 46.3244 131.057C46.7586 130.717 47.2798 130.548 47.8878 130.548C48.4958 130.548 49.0156 130.717 49.4471 131.057C49.8814 131.393 50.2126 131.882 50.4406 132.522C50.6713 133.16 50.7867 133.93 50.7867 134.831C50.7867 135.737 50.6727 136.511 50.4447 137.152C50.2167 137.789 49.8869 138.277 49.4553 138.613C49.0237 138.947 48.5012 139.114 47.8878 139.114ZM47.8878 138.218C48.4958 138.218 48.9681 137.925 49.3046 137.339C49.6412 136.753 49.8095 135.917 49.8095 134.831C49.8095 134.109 49.7321 133.494 49.5774 132.986C49.4254 132.479 49.2056 132.092 48.9179 131.826C48.6329 131.56 48.2895 131.427 47.8878 131.427C47.2852 131.427 46.8143 131.724 46.475 132.319C46.1357 132.91 45.9661 133.748 45.9661 134.831C45.9661 135.553 46.0421 136.166 46.1941 136.671C46.3461 137.176 46.5646 137.56 46.8496 137.823C47.1373 138.087 47.4834 138.218 47.8878 138.218ZM55.0535 139.114C54.4401 139.114 53.9176 138.947 53.486 138.613C53.0544 138.277 52.7247 137.789 52.4967 137.152C52.2687 136.511 52.1547 135.737 52.1547 134.831C52.1547 133.93 52.2687 133.16 52.4967 132.522C52.7274 131.882 53.0585 131.393 53.4901 131.057C53.9244 130.717 54.4455 130.548 55.0535 130.548C55.6615 130.548 56.1813 130.717 56.6129 131.057C57.0472 131.393 57.3783 131.882 57.6063 132.522C57.837 133.16 57.9524 133.93 57.9524 134.831C57.9524 135.737 57.8384 136.511 57.6104 137.152C57.3824 137.789 57.0526 138.277 56.621 138.613C56.1895 138.947 55.667 139.114 55.0535 139.114ZM55.0535 138.218C55.6615 138.218 56.1338 137.925 56.4704 137.339C56.807 136.753 56.9752 135.917 56.9752 134.831C56.9752 134.109 56.8979 133.494 56.7432 132.986C56.5912 132.479 56.3713 132.092 56.0836 131.826C55.7986 131.56 55.4552 131.427 55.0535 131.427C54.4509 131.427 53.98 131.724 53.6407 132.319C53.3014 132.91 53.1318 133.748 53.1318 134.831C53.1318 135.553 53.2078 136.166 53.3598 136.671C53.5118 137.176 53.7303 137.56 54.0153 137.823C54.303 138.087 54.6491 138.218 55.0535 138.218ZM35.7946 172.662V181H34.7849V173.72H34.736L32.7003 175.072V174.046L34.7849 172.662H35.7946ZM40.9124 181.114C40.299 181.114 39.7765 180.947 39.3449 180.613C38.9133 180.277 38.5835 179.789 38.3555 179.152C38.1275 178.511 38.0135 177.737 38.0135 176.831C38.0135 175.93 38.1275 175.16 38.3555 174.522C38.5862 173.882 38.9174 173.393 39.349 173.057C39.7832 172.717 40.3044 172.548 40.9124 172.548C41.5204 172.548 42.0402 172.717 42.4717 173.057C42.906 173.393 43.2372 173.882 43.4652 174.522C43.6959 175.16 43.8113 175.93 43.8113 176.831C43.8113 177.737 43.6973 178.511 43.4693 179.152C43.2413 179.789 42.9115 180.277 42.4799 180.613C42.0483 180.947 41.5258 181.114 40.9124 181.114ZM40.9124 180.218C41.5204 180.218 41.9927 179.925 42.3292 179.339C42.6658 178.753 42.8341 177.917 42.8341 176.831C42.8341 176.109 42.7568 175.494 42.602 174.986C42.45 174.479 42.2302 174.092 41.9425 173.826C41.6575 173.56 41.3141 173.427 40.9124 173.427C40.3098 173.427 39.8389 173.724 39.4996 174.319C39.1603 174.91 38.9907 175.748 38.9907 176.831C38.9907 177.553 39.0667 178.166 39.2187 178.671C39.3707 179.176 39.5892 179.56 39.8742 179.823C40.1619 180.087 40.508 180.218 40.9124 180.218ZM48.0781 181.114C47.4647 181.114 46.9422 180.947 46.5106 180.613C46.079 180.277 45.7493 179.789 45.5213 179.152C45.2933 178.511 45.1793 177.737 45.1793 176.831C45.1793 175.93 45.2933 175.16 45.5213 174.522C45.752 173.882 46.0831 173.393 46.5147 173.057C46.949 172.717 47.4701 172.548 48.0781 172.548C48.6861 172.548 49.2059 172.717 49.6375 173.057C50.0718 173.393 50.4029 173.882 50.6309 174.522C50.8616 175.16 50.977 175.93 50.977 176.831C50.977 177.737 50.863 178.511 50.635 179.152C50.407 179.789 50.0772 180.277 49.6456 180.613C49.2141 180.947 48.6916 181.114 48.0781 181.114ZM48.0781 180.218C48.6861 180.218 49.1584 179.925 49.495 179.339C49.8316 178.753 49.9998 177.917 49.9998 176.831C49.9998 176.109 49.9225 175.494 49.7678 174.986C49.6158 174.479 49.3959 174.092 49.1082 173.826C48.8232 173.56 48.4798 173.427 48.0781 173.427C47.4756 173.427 47.0046 173.724 46.6653 174.319C46.326 174.91 46.1564 175.748 46.1564 176.831C46.1564 177.553 46.2324 178.166 46.3844 178.671C46.5364 179.176 46.7549 179.56 47.0399 179.823C47.3276 180.087 47.6737 180.218 48.0781 180.218ZM55.2439 181.114C54.6304 181.114 54.1079 180.947 53.6764 180.613C53.2448 180.277 52.915 179.789 52.687 179.152C52.459 178.511 52.345 177.737 52.345 176.831C52.345 175.93 52.459 175.16 52.687 174.522C52.9177 173.882 53.2489 173.393 53.6804 173.057C54.1147 172.717 54.6359 172.548 55.2439 172.548C55.8519 172.548 56.3717 172.717 56.8032 173.057C57.2375 173.393 57.5687 173.882 57.7967 174.522C58.0274 175.16 58.1427 175.93 58.1427 176.831C58.1427 177.737 58.0287 178.511 57.8007 179.152C57.5727 179.789 57.2429 180.277 56.8114 180.613C56.3798 180.947 55.8573 181.114 55.2439 181.114ZM55.2439 180.218C55.8519 180.218 56.3242 179.925 56.6607 179.339C56.9973 178.753 57.1656 177.917 57.1656 176.831C57.1656 176.109 57.0882 175.494 56.9335 174.986C56.7815 174.479 56.5617 174.092 56.2739 173.826C55.9889 173.56 55.6456 173.427 55.2439 173.427C54.6413 173.427 54.1704 173.724 53.8311 174.319C53.4918 174.91 53.3221 175.748 53.3221 176.831C53.3221 177.553 53.3981 178.166 53.5501 178.671C53.7021 179.176 53.9206 179.56 54.2056 179.823C54.4934 180.087 54.8394 180.218 55.2439 180.218ZM35.4689 223.114C34.9912 223.114 34.5609 223.019 34.1782 222.829C33.7955 222.639 33.4888 222.378 33.2581 222.047C33.0274 221.716 32.9011 221.339 32.8794 220.915H33.8566C33.8946 221.293 34.0656 221.605 34.3696 221.852C34.6763 222.096 35.0427 222.218 35.4689 222.218C35.8109 222.218 36.1149 222.138 36.3809 221.978C36.6496 221.818 36.8599 221.598 37.0119 221.318C37.1667 221.036 37.244 220.717 37.244 220.362C37.244 219.998 37.1639 219.674 37.0038 219.389C36.8464 219.101 36.6292 218.874 36.3524 218.709C36.0755 218.543 35.7593 218.459 35.4037 218.456C35.1486 218.454 34.8867 218.493 34.6179 218.574C34.3492 218.653 34.128 218.755 33.9543 218.88L33.0097 218.766L33.5146 214.662H37.8466V215.557H34.3614L34.0683 218.017H34.1171C34.2882 217.881 34.5026 217.768 34.7604 217.679C35.0183 217.589 35.287 217.544 35.5666 217.544C36.0769 217.544 36.5315 217.666 36.9305 217.911C37.3322 218.152 37.6471 218.483 37.8751 218.904C38.1058 219.325 38.2212 219.805 38.2212 220.345C38.2212 220.877 38.1017 221.352 37.8629 221.77C37.6267 222.186 37.301 222.514 36.8857 222.756C36.4704 222.995 35.9982 223.114 35.4689 223.114ZM42.5583 223.114C41.9448 223.114 41.4223 222.947 40.9908 222.613C40.5592 222.277 40.2294 221.789 40.0014 221.152C39.7734 220.511 39.6594 219.737 39.6594 218.831C39.6594 217.93 39.7734 217.16 40.0014 216.522C40.2321 215.882 40.5633 215.393 40.9948 215.057C41.4291 214.717 41.9503 214.548 42.5583 214.548C43.1663 214.548 43.6861 214.717 44.1176 215.057C44.5519 215.393 44.8831 215.882 45.1111 216.522C45.3418 217.16 45.4571 217.93 45.4571 218.831C45.4571 219.737 45.3431 220.511 45.1151 221.152C44.8871 221.789 44.5573 222.277 44.1258 222.613C43.6942 222.947 43.1717 223.114 42.5583 223.114ZM42.5583 222.218C43.1663 222.218 43.6386 221.925 43.9751 221.339C44.3117 220.753 44.48 219.917 44.48 218.831C44.48 218.109 44.4026 217.494 44.2479 216.986C44.0959 216.479 43.8761 216.092 43.5883 215.826C43.3033 215.56 42.96 215.427 42.5583 215.427C41.9557 215.427 41.4848 215.724 41.1455 216.319C40.8062 216.91 40.6365 217.748 40.6365 218.831C40.6365 219.553 40.7125 220.166 40.8645 220.671C41.0165 221.176 41.235 221.56 41.5201 221.823C41.8078 222.087 42.1538 222.218 42.5583 222.218ZM49.724 223.114C49.1106 223.114 48.5881 222.947 48.1565 222.613C47.7249 222.277 47.3951 221.789 47.1671 221.152C46.9391 220.511 46.8251 219.737 46.8251 218.831C46.8251 217.93 46.9391 217.16 47.1671 216.522C47.3979 215.882 47.729 215.393 48.1606 215.057C48.5949 214.717 49.116 214.548 49.724 214.548C50.332 214.548 50.8518 214.717 51.2834 215.057C51.7177 215.393 52.0488 215.882 52.2768 216.522C52.5075 217.16 52.6229 217.93 52.6229 218.831C52.6229 219.737 52.5089 220.511 52.2809 221.152C52.0529 221.789 51.7231 222.277 51.2915 222.613C50.8599 222.947 50.3374 223.114 49.724 223.114ZM49.724 222.218C50.332 222.218 50.8043 221.925 51.1409 221.339C51.4774 220.753 51.6457 219.917 51.6457 218.831C51.6457 218.109 51.5684 217.494 51.4137 216.986C51.2617 216.479 51.0418 216.092 50.7541 215.826C50.4691 215.56 50.1257 215.427 49.724 215.427C49.1214 215.427 48.6505 215.724 48.3112 216.319C47.9719 216.91 47.8023 217.748 47.8023 218.831C47.8023 219.553 47.8783 220.166 48.0303 220.671C48.1823 221.176 48.4008 221.56 48.6858 221.823C48.9735 222.087 49.3196 222.218 49.724 222.218ZM35.5829 265.114C34.9694 265.114 34.4469 264.947 34.0154 264.613C33.5838 264.277 33.254 263.789 33.026 263.152C32.798 262.511 32.684 261.737 32.684 260.831C32.684 259.93 32.798 259.16 33.026 258.522C33.2567 257.882 33.5879 257.393 34.0194 257.057C34.4537 256.717 34.9749 256.548 35.5829 256.548C36.1909 256.548 36.7107 256.717 37.1422 257.057C37.5765 257.393 37.9077 257.882 38.1357 258.522C38.3664 259.16 38.4817 259.93 38.4817 260.831C38.4817 261.737 38.3677 262.511 38.1397 263.152C37.9117 263.789 37.5819 264.277 37.1504 264.613C36.7188 264.947 36.1963 265.114 35.5829 265.114ZM35.5829 264.218C36.1909 264.218 36.6632 263.925 36.9997 263.339C37.3363 262.753 37.5046 261.917 37.5046 260.831C37.5046 260.109 37.4272 259.494 37.2725 258.986C37.1205 258.479 36.9007 258.092 36.6129 257.826C36.3279 257.56 35.9846 257.427 35.5829 257.427C34.9803 257.427 34.5094 257.724 34.1701 258.319C33.8308 258.91 33.6611 259.748 33.6611 260.831C33.6611 261.553 33.7371 262.166 33.8891 262.671C34.0411 263.176 34.2597 263.56 34.5447 263.823C34.8324 264.087 35.1784 264.218 35.5829 264.218Z" fill="black"/>
<rect width="16.2674" height="92.2468" rx="8.1337" transform="matrix(-1 0.000365641 -0.00393406 -0.999992 149.605 236.268)" fill="#245EE7"/>
<rect width="16.2674" height="98.3646" rx="8.1337" transform="matrix(-1 0.000365641 -0.00393406 -0.999992 229.314 236.268)" fill="#245EE7"/>
<rect width="16.2674" height="71.5471" rx="8.1337" transform="matrix(-1 0.000365641 -0.00393406 -0.999992 310.654 236.268)" fill="#245EE7"/>
<rect width="16.2674" height="55.5504" rx="8.1337" transform="matrix(-1 0.000365641 -0.00393406 -0.999992 393.615 236.268)" fill="#245EE7"/>
<rect width="16.2674" height="82.4357" rx="8.1337" transform="matrix(-1 0.000365641 -0.00393406 -0.999992 473.172 236.377)" fill="#245EE7"/>
<rect width="16.2674" height="29.2616" rx="8.1337" transform="matrix(-1 0.000365641 -0.00393406 -0.999992 549.418 236.27)" fill="#245EE7"/>
<rect width="16.2674" height="80.8345" rx="8.1337" transform="matrix(-1 -0.00055509 0.00597235 -0.999982 173.527 236.273)" fill="#B8B5EC"/>
<rect width="16.2674" height="42.6576" rx="8.1337" transform="matrix(-1 -0.00055509 0.00597235 -0.999982 253.236 236.273)" fill="#B8B5EC"/>
<rect width="16.2674" height="99.194" rx="8.1337" transform="matrix(-1 -0.00055509 0.00597235 -0.999982 334.574 236.273)" fill="#B8B5EC"/>
<rect width="16.2674" height="68.9389" rx="8.1337" transform="matrix(-1 -0.00055509 0.00597235 -0.999982 417.539 236.273)" fill="#B8B5EC"/>
<rect width="16.2674" height="89.267" rx="8.1337" transform="matrix(-1 -0.00055509 0.00597235 -0.999982 498.875 236.273)" fill="#B8B5EC"/>
<rect width="16.2674" height="64.4745" rx="8.1337" transform="matrix(-1 -0.00055509 0.00597235 -0.999982 573.707 236.279)" fill="#B8B5EC"/>
<rect x="4.5" y="2.5" width="611" height="294" rx="15.5" stroke="#F9F9F9" shape-rendering="crispEdges"/>
</g>
<defs>
<filter id="filter0_d_871_3205" x="0" y="0" width="620" height="303" filterUnits="userSpaceOnUse" color-interpolation-filters="sRGB">
<feFlood flood-opacity="0" result="BackgroundImageFix"/>
<feColorMatrix in="SourceAlpha" type="matrix" values="0 0 0 0 0 0 0 0 0 0 0 0 0 0 0 0 0 0 127 0" result="hardAlpha"/>
<feOffset dy="2"/>
<feGaussianBlur stdDeviation="2"/>
<feComposite in2="hardAlpha" operator="out"/>
<feColorMatrix type="matrix" values="0 0 0 0 0 0 0 0 0 0 0 0 0 0 0 0 0 0 0.04 0"/>
<feBlend mode="normal" in2="BackgroundImageFix" result="effect1_dropShadow_871_3205"/>
<feBlend mode="normal" in="SourceGraphic" in2="effect1_dropShadow_871_3205" result="shape"/>
</filter>
</defs>
</svg>
