<svg width="616" height="222" viewBox="0 0 616 222" fill="none" xmlns="http://www.w3.org/2000/svg">
<g filter="url(#filter0_d_871_3051)">
<rect x="4" y="2" width="612" height="366" rx="16" fill="white" shape-rendering="crispEdges"/>
<path d="M33.1477 36.3636H35.7273L39.1818 44.7955H39.3182L42.7727 36.3636H45.3523V48H43.3295V40.0057H43.2216L40.0057 47.9659H38.4943L35.2784 39.9886H35.1705V48H33.1477V36.3636ZM50.8636 48.1705C50.0114 48.1705 49.2727 47.983 48.6477 47.608C48.0227 47.233 47.5379 46.7083 47.1932 46.0341C46.8523 45.3598 46.6818 44.572 46.6818 43.6705C46.6818 42.7689 46.8523 41.9792 47.1932 41.3011C47.5379 40.6231 48.0227 40.0966 48.6477 39.7216C49.2727 39.3466 50.0114 39.1591 50.8636 39.1591C51.7159 39.1591 52.4545 39.3466 53.0795 39.7216C53.7045 40.0966 54.1875 40.6231 54.5284 41.3011C54.8731 41.9792 55.0455 42.7689 55.0455 43.6705C55.0455 44.572 54.8731 45.3598 54.5284 46.0341C54.1875 46.7083 53.7045 47.233 53.0795 47.608C52.4545 47.983 51.7159 48.1705 50.8636 48.1705ZM50.875 46.5227C51.3371 46.5227 51.7235 46.3958 52.0341 46.142C52.3447 45.8845 52.5758 45.5398 52.7273 45.108C52.8826 44.6761 52.9602 44.1951 52.9602 43.6648C52.9602 43.1307 52.8826 42.6477 52.7273 42.2159C52.5758 41.7803 52.3447 41.4337 52.0341 41.1761C51.7235 40.9186 51.3371 40.7898 50.875 40.7898C50.4015 40.7898 50.0076 40.9186 49.6932 41.1761C49.3826 41.4337 49.1496 41.7803 48.9943 42.2159C48.8428 42.6477 48.767 43.1307 48.767 43.6648C48.767 44.1951 48.8428 44.6761 48.9943 45.108C49.1496 45.5398 49.3826 45.8845 49.6932 46.142C50.0076 46.3958 50.4015 46.5227 50.875 46.5227ZM58.348 42.8864V48H56.2912V39.2727H58.2571V40.7557H58.3594C58.5601 40.267 58.8802 39.8788 59.3196 39.5909C59.7628 39.303 60.3101 39.1591 60.9616 39.1591C61.5639 39.1591 62.0885 39.2879 62.5355 39.5455C62.9863 39.803 63.3348 40.1761 63.581 40.6648C63.831 41.1534 63.9541 41.7462 63.9503 42.4432V48H61.8935V42.7614C61.8935 42.178 61.742 41.7216 61.4389 41.392C61.1397 41.0625 60.7249 40.8977 60.1946 40.8977C59.8348 40.8977 59.5147 40.9773 59.2344 41.1364C58.9579 41.2917 58.7401 41.517 58.581 41.8125C58.4257 42.108 58.348 42.4659 58.348 42.8864ZM69.8991 39.2727V40.8636H64.8821V39.2727H69.8991ZM66.1207 37.1818H68.1776V45.375C68.1776 45.6515 68.2192 45.8636 68.3026 46.0114C68.3897 46.1553 68.5033 46.2538 68.6435 46.3068C68.7836 46.3598 68.9389 46.3864 69.1094 46.3864C69.2382 46.3864 69.3556 46.3769 69.4616 46.358C69.5715 46.339 69.6548 46.322 69.7116 46.3068L70.0582 47.9148C69.9484 47.9527 69.7912 47.9943 69.5866 48.0398C69.3859 48.0852 69.1397 48.1117 68.848 48.1193C68.3329 48.1345 67.8688 48.0568 67.456 47.8864C67.0431 47.7121 66.7154 47.4432 66.473 47.0795C66.2344 46.7159 66.117 46.2614 66.1207 45.7159V37.1818ZM73.3636 42.8864V48H71.3068V36.3636H73.3182V40.7557H73.4205C73.625 40.2633 73.9413 39.875 74.3693 39.5909C74.8011 39.303 75.3504 39.1591 76.017 39.1591C76.6231 39.1591 77.1515 39.286 77.6023 39.5398C78.053 39.7936 78.4015 40.1648 78.6477 40.6534C78.8977 41.142 79.0227 41.7386 79.0227 42.4432V48H76.9659V42.7614C76.9659 42.1742 76.8144 41.7178 76.5114 41.392C76.2121 41.0625 75.7917 40.8977 75.25 40.8977C74.8864 40.8977 74.5606 40.9773 74.2727 41.1364C73.9886 41.2917 73.7652 41.517 73.6023 41.8125C73.4432 42.108 73.3636 42.4659 73.3636 42.8864ZM82.6761 36.3636V48H80.6193V36.3636H82.6761ZM85.5696 51.2727C85.2893 51.2727 85.0298 51.25 84.7912 51.2045C84.5563 51.1629 84.3688 51.1136 84.2287 51.0568L84.706 49.4545C85.0052 49.5417 85.2723 49.5833 85.5071 49.5795C85.742 49.5758 85.9484 49.5019 86.1264 49.358C86.3082 49.2178 86.4616 48.983 86.5866 48.6534L86.7628 48.1818L83.598 39.2727H85.7798L87.7912 45.8636H87.8821L89.8991 39.2727H92.0866L88.5923 49.0568C88.4295 49.5189 88.2135 49.9148 87.9446 50.2443C87.6757 50.5777 87.3461 50.8314 86.956 51.0057C86.5696 51.1837 86.1075 51.2727 85.5696 51.2727ZM102.893 39.5625C102.84 39.0663 102.617 38.6799 102.223 38.4034C101.833 38.1269 101.325 37.9886 100.7 37.9886C100.261 37.9886 99.884 38.0549 99.5696 38.1875C99.2552 38.3201 99.0147 38.5 98.848 38.7273C98.6813 38.9545 98.5961 39.214 98.5923 39.5057C98.5923 39.7481 98.6473 39.9583 98.7571 40.1364C98.8707 40.3144 99.0241 40.4659 99.2173 40.5909C99.4105 40.7121 99.6245 40.8144 99.8594 40.8977C100.094 40.9811 100.331 41.0511 100.57 41.108L101.661 41.3807C102.1 41.483 102.522 41.6212 102.928 41.7955C103.337 41.9697 103.702 42.1894 104.024 42.4545C104.35 42.7197 104.607 43.0398 104.797 43.4148C104.986 43.7898 105.081 44.2292 105.081 44.733C105.081 45.4148 104.907 46.0152 104.558 46.5341C104.21 47.0492 103.706 47.4527 103.047 47.7443C102.392 48.0322 101.598 48.1761 100.666 48.1761C99.7609 48.1761 98.9749 48.036 98.3082 47.7557C97.6454 47.4754 97.1264 47.0663 96.7514 46.5284C96.3802 45.9905 96.1795 45.3352 96.1491 44.5625H98.223C98.2533 44.9678 98.3783 45.3049 98.598 45.5739C98.8177 45.8428 99.1037 46.0436 99.456 46.1761C99.812 46.3087 100.21 46.375 100.649 46.375C101.107 46.375 101.509 46.3068 101.854 46.1705C102.202 46.0303 102.475 45.8371 102.672 45.5909C102.869 45.3409 102.969 45.0492 102.973 44.7159C102.969 44.4129 102.88 44.1629 102.706 43.9659C102.532 43.7652 102.287 43.5985 101.973 43.4659C101.662 43.3295 101.299 43.2083 100.882 43.1023L99.5582 42.7614C98.5999 42.5152 97.8423 42.142 97.2855 41.642C96.7325 41.1383 96.456 40.4697 96.456 39.6364C96.456 38.9508 96.6416 38.3504 97.0128 37.8352C97.3878 37.3201 97.8973 36.9205 98.5412 36.6364C99.1851 36.3485 99.9143 36.2045 100.729 36.2045C101.554 36.2045 102.278 36.3485 102.899 36.6364C103.524 36.9205 104.015 37.3163 104.371 37.8239C104.727 38.3277 104.911 38.9072 104.922 39.5625H102.893ZM110.727 39.2727V40.8636H105.71V39.2727H110.727ZM106.949 37.1818H109.006V45.375C109.006 45.6515 109.047 45.8636 109.131 46.0114C109.218 46.1553 109.331 46.2538 109.472 46.3068C109.612 46.3598 109.767 46.3864 109.938 46.3864C110.066 46.3864 110.184 46.3769 110.29 46.358C110.4 46.339 110.483 46.322 110.54 46.3068L110.886 47.9148C110.777 47.9527 110.619 47.9943 110.415 48.0398C110.214 48.0852 109.968 48.1117 109.676 48.1193C109.161 48.1345 108.697 48.0568 108.284 47.8864C107.871 47.7121 107.544 47.4432 107.301 47.0795C107.063 46.7159 106.945 46.2614 106.949 45.7159V37.1818ZM114.459 48.1761C113.906 48.1761 113.408 48.0777 112.964 47.8807C112.525 47.6799 112.177 47.3845 111.919 46.9943C111.665 46.6042 111.538 46.1231 111.538 45.5511C111.538 45.0587 111.629 44.6515 111.811 44.3295C111.993 44.0076 112.241 43.75 112.555 43.5568C112.87 43.3636 113.224 43.2178 113.618 43.1193C114.016 43.017 114.427 42.9432 114.851 42.8977C115.362 42.8447 115.777 42.7973 116.095 42.7557C116.413 42.7102 116.644 42.642 116.788 42.5511C116.936 42.4564 117.01 42.3106 117.01 42.1136V42.0795C117.01 41.6515 116.883 41.3201 116.629 41.0852C116.375 40.8504 116.01 40.733 115.533 40.733C115.029 40.733 114.629 40.8428 114.334 41.0625C114.042 41.2822 113.845 41.5417 113.743 41.8409L111.822 41.5682C111.974 41.0379 112.224 40.5947 112.572 40.2386C112.921 39.8788 113.347 39.6098 113.851 39.4318C114.355 39.25 114.911 39.1591 115.521 39.1591C115.942 39.1591 116.36 39.2083 116.777 39.3068C117.194 39.4053 117.574 39.5682 117.919 39.7955C118.264 40.0189 118.54 40.3239 118.749 40.7102C118.961 41.0966 119.067 41.5795 119.067 42.1591V48H117.089V46.8011H117.021C116.896 47.0436 116.72 47.2708 116.493 47.483C116.269 47.6913 115.987 47.8598 115.646 47.9886C115.309 48.1136 114.913 48.1761 114.459 48.1761ZM114.993 46.6648C115.406 46.6648 115.764 46.5833 116.067 46.4205C116.37 46.2538 116.603 46.0341 116.766 45.7614C116.932 45.4886 117.016 45.1913 117.016 44.8693V43.8409C116.951 43.8939 116.841 43.9432 116.686 43.9886C116.535 44.0341 116.364 44.0739 116.175 44.108C115.985 44.142 115.798 44.1723 115.612 44.1989C115.427 44.2254 115.266 44.2481 115.129 44.267C114.822 44.3087 114.548 44.3769 114.305 44.4716C114.063 44.5663 113.872 44.6989 113.732 44.8693C113.591 45.036 113.521 45.2519 113.521 45.517C113.521 45.8958 113.66 46.1818 113.936 46.375C114.213 46.5682 114.565 46.6648 114.993 46.6648ZM124.993 39.2727V40.8636H119.976V39.2727H124.993ZM121.214 37.1818H123.271V45.375C123.271 45.6515 123.313 45.8636 123.396 46.0114C123.483 46.1553 123.597 46.2538 123.737 46.3068C123.877 46.3598 124.033 46.3864 124.203 46.3864C124.332 46.3864 124.449 46.3769 124.555 46.358C124.665 46.339 124.749 46.322 124.805 46.3068L125.152 47.9148C125.042 47.9527 124.885 47.9943 124.68 48.0398C124.48 48.0852 124.233 48.1117 123.942 48.1193C123.427 48.1345 122.963 48.0568 122.55 47.8864C122.137 47.7121 121.809 47.4432 121.567 47.0795C121.328 46.7159 121.211 46.2614 121.214 45.7159V37.1818ZM126.213 48V39.2727H128.27V48H126.213ZM127.247 38.0341C126.921 38.0341 126.641 37.9261 126.406 37.7102C126.171 37.4905 126.054 37.2273 126.054 36.9205C126.054 36.6098 126.171 36.3466 126.406 36.1307C126.641 35.911 126.921 35.8011 127.247 35.8011C127.577 35.8011 127.857 35.911 128.088 36.1307C128.323 36.3466 128.44 36.6098 128.44 36.9205C128.44 37.2273 128.323 37.4905 128.088 37.7102C127.857 37.9261 127.577 38.0341 127.247 38.0341ZM136.783 41.5795L134.908 41.7841C134.855 41.5947 134.762 41.4167 134.629 41.25C134.5 41.0833 134.326 40.9489 134.107 40.8466C133.887 40.7443 133.618 40.6932 133.3 40.6932C132.872 40.6932 132.512 40.786 132.22 40.9716C131.932 41.1572 131.79 41.3977 131.794 41.6932C131.79 41.947 131.883 42.1534 132.072 42.3125C132.266 42.4716 132.584 42.6023 133.027 42.7045L134.516 43.0227C135.341 43.2008 135.955 43.483 136.357 43.8693C136.762 44.2557 136.966 44.7614 136.97 45.3864C136.966 45.9356 136.805 46.4205 136.487 46.8409C136.173 47.2576 135.735 47.5833 135.175 47.8182C134.614 48.053 133.97 48.1705 133.243 48.1705C132.175 48.1705 131.315 47.947 130.663 47.5C130.012 47.0492 129.624 46.4223 129.499 45.6193L131.504 45.4261C131.595 45.8201 131.788 46.1174 132.084 46.3182C132.379 46.5189 132.764 46.6193 133.237 46.6193C133.726 46.6193 134.118 46.5189 134.413 46.3182C134.713 46.1174 134.862 45.8693 134.862 45.5739C134.862 45.3239 134.766 45.1174 134.572 44.9545C134.383 44.7917 134.088 44.6667 133.686 44.5795L132.197 44.267C131.36 44.0928 130.741 43.7992 130.339 43.3864C129.938 42.9697 129.739 42.4432 129.743 41.8068C129.739 41.2689 129.885 40.803 130.18 40.4091C130.48 40.0114 130.894 39.7045 131.425 39.4886C131.959 39.2689 132.574 39.1591 133.271 39.1591C134.294 39.1591 135.099 39.3769 135.686 39.8125C136.277 40.2481 136.643 40.8371 136.783 41.5795ZM142.524 39.2727V40.8636H137.507V39.2727H142.524ZM138.746 37.1818H140.803V45.375C140.803 45.6515 140.844 45.8636 140.928 46.0114C141.015 46.1553 141.128 46.2538 141.268 46.3068C141.409 46.3598 141.564 46.3864 141.734 46.3864C141.863 46.3864 141.981 46.3769 142.087 46.358C142.196 46.339 142.28 46.322 142.337 46.3068L142.683 47.9148C142.573 47.9527 142.416 47.9943 142.212 48.0398C142.011 48.0852 141.765 48.1117 141.473 48.1193C140.958 48.1345 140.494 48.0568 140.081 47.8864C139.668 47.7121 139.34 47.4432 139.098 47.0795C138.859 46.7159 138.742 46.2614 138.746 45.7159V37.1818ZM143.744 48V39.2727H145.801V48H143.744ZM144.778 38.0341C144.453 38.0341 144.172 37.9261 143.938 37.7102C143.703 37.4905 143.585 37.2273 143.585 36.9205C143.585 36.6098 143.703 36.3466 143.938 36.1307C144.172 35.911 144.453 35.8011 144.778 35.8011C145.108 35.8011 145.388 35.911 145.619 36.1307C145.854 36.3466 145.972 36.6098 145.972 36.9205C145.972 37.2273 145.854 37.4905 145.619 37.7102C145.388 37.9261 145.108 38.0341 144.778 38.0341ZM151.223 48.1705C150.352 48.1705 149.604 47.9792 148.979 47.5966C148.357 47.214 147.878 46.6856 147.541 46.0114C147.208 45.3333 147.041 44.553 147.041 43.6705C147.041 42.7841 147.212 42.0019 147.553 41.3239C147.893 40.642 148.375 40.1117 148.996 39.733C149.621 39.3504 150.359 39.1591 151.212 39.1591C151.92 39.1591 152.547 39.2898 153.092 39.5511C153.642 39.8087 154.079 40.1742 154.405 40.6477C154.731 41.1174 154.916 41.6667 154.962 42.2955H152.996C152.916 41.875 152.727 41.5246 152.428 41.2443C152.132 40.9602 151.736 40.8182 151.24 40.8182C150.82 40.8182 150.45 40.9318 150.132 41.1591C149.814 41.3826 149.566 41.7045 149.388 42.125C149.214 42.5455 149.126 43.0492 149.126 43.6364C149.126 44.2311 149.214 44.7424 149.388 45.1705C149.562 45.5947 149.806 45.9223 150.121 46.1534C150.439 46.3807 150.812 46.4943 151.24 46.4943C151.543 46.4943 151.814 46.4375 152.053 46.3239C152.295 46.2064 152.498 46.0379 152.661 45.8182C152.823 45.5985 152.935 45.3314 152.996 45.017H154.962C154.912 45.6345 154.731 46.1818 154.416 46.6591C154.102 47.1326 153.674 47.5038 153.132 47.7727C152.59 48.0379 151.954 48.1705 151.223 48.1705ZM163.048 41.5795L161.173 41.7841C161.12 41.5947 161.027 41.4167 160.895 41.25C160.766 41.0833 160.592 40.9489 160.372 40.8466C160.152 40.7443 159.884 40.6932 159.565 40.6932C159.137 40.6932 158.777 40.786 158.486 40.9716C158.198 41.1572 158.056 41.3977 158.06 41.6932C158.056 41.947 158.149 42.1534 158.338 42.3125C158.531 42.4716 158.849 42.6023 159.293 42.7045L160.781 43.0227C161.607 43.2008 162.221 43.483 162.622 43.8693C163.027 44.2557 163.232 44.7614 163.236 45.3864C163.232 45.9356 163.071 46.4205 162.753 46.8409C162.438 47.2576 162.001 47.5833 161.44 47.8182C160.88 48.053 160.236 48.1705 159.509 48.1705C158.44 48.1705 157.58 47.947 156.929 47.5C156.277 47.0492 155.889 46.4223 155.764 45.6193L157.77 45.4261C157.861 45.8201 158.054 46.1174 158.349 46.3182C158.645 46.5189 159.029 46.6193 159.503 46.6193C159.991 46.6193 160.384 46.5189 160.679 46.3182C160.978 46.1174 161.128 45.8693 161.128 45.5739C161.128 45.3239 161.031 45.1174 160.838 44.9545C160.649 44.7917 160.353 44.6667 159.952 44.5795L158.463 44.267C157.626 44.0928 157.007 43.7992 156.605 43.3864C156.204 42.9697 156.005 42.4432 156.009 41.8068C156.005 41.2689 156.151 40.803 156.446 40.4091C156.745 40.0114 157.16 39.7045 157.69 39.4886C158.224 39.2689 158.84 39.1591 159.537 39.1591C160.56 39.1591 161.365 39.3769 161.952 39.8125C162.543 40.2481 162.908 40.8371 163.048 41.5795Z" fill="#7A7A7A"/>
<path d="M37.6768 226.5C37.6768 226.5 159.018 130 179.597 130.5C200.175 131 215.077 154.5 223.592 154.5C232.107 154.5 278.94 155.6 296.68 154.5C314.42 153.4 337.128 115.5 354.868 113C372.607 110.5 472.661 115.5 483.305 113C493.949 110.5 616 17 616 17" stroke="#245DE0" stroke-width="3" stroke-linecap="round"/>
<path d="M37.6768 273.5C37.6768 273.5 159.018 177 179.597 177.5C200.175 178 215.077 201.5 223.592 201.5C232.107 201.5 278.94 202.6 296.68 201.5C314.42 200.4 337.128 162.5 354.868 160C372.607 157.5 472.661 162.5 483.305 160C493.949 157.5 616 64 616 64" stroke="#C8C3FB" stroke-width="3" stroke-linecap="round"/>
<path d="M423.5 117.5C426.643 117.5 429.5 115.199 429.5 112C429.5 108.801 426.643 106.5 423.5 106.5C420.357 106.5 417.5 108.801 417.5 112C417.5 115.199 420.357 117.5 423.5 117.5Z" fill="white" stroke="url(#paint0_linear_871_3051)" stroke-width="3"/>
<path d="M35.1939 93.9091V84.8182H35.7763V93.9091H35.1939ZM37.0156 87.6378C36.9777 87.3016 36.8215 87.0412 36.5469 86.8565C36.2723 86.6695 35.9266 86.576 35.5099 86.576C35.2116 86.576 34.9536 86.6233 34.7358 86.718C34.518 86.8104 34.3487 86.9382 34.228 87.1016C34.1096 87.2625 34.0504 87.446 34.0504 87.652C34.0504 87.8248 34.0907 87.974 34.1712 88.0994C34.254 88.2249 34.3617 88.3303 34.4943 88.4155C34.6293 88.4983 34.7737 88.5682 34.9276 88.625C35.0814 88.6795 35.2294 88.7244 35.3714 88.7599L36.0817 88.9446C36.3137 89.0014 36.5516 89.0784 36.7955 89.1754C37.0393 89.2725 37.2654 89.4003 37.4737 89.5589C37.6821 89.7176 37.8501 89.9141 37.978 90.1484C38.1082 90.3828 38.1733 90.6634 38.1733 90.9901C38.1733 91.402 38.0668 91.7678 37.8537 92.0874C37.643 92.407 37.3364 92.6591 36.9339 92.8438C36.5339 93.0284 36.0497 93.1207 35.4815 93.1207C34.937 93.1207 34.4659 93.0343 34.0682 92.8615C33.6705 92.6887 33.3591 92.4437 33.1342 92.1264C32.9093 91.8068 32.785 91.428 32.7614 90.9901H33.8622C33.8835 91.2528 33.9688 91.4718 34.1179 91.647C34.2694 91.8198 34.4624 91.9489 34.6967 92.0341C34.9335 92.117 35.1927 92.1584 35.4744 92.1584C35.7846 92.1584 36.0604 92.1098 36.3018 92.0128C36.5457 91.9134 36.7375 91.776 36.8771 91.6009C37.0168 91.4233 37.0866 91.2161 37.0866 90.9794C37.0866 90.764 37.0251 90.5876 36.902 90.4503C36.7813 90.313 36.6167 90.1993 36.4084 90.1094C36.2024 90.0194 35.9692 89.9401 35.7088 89.8714L34.8494 89.6371C34.267 89.4785 33.8054 89.2453 33.4645 88.9375C33.1259 88.6297 32.9567 88.2225 32.9567 87.7159C32.9567 87.2969 33.0703 86.9311 33.2976 86.6186C33.5249 86.3061 33.8326 86.0634 34.2209 85.8906C34.6091 85.7154 35.0471 85.6278 35.5348 85.6278C36.0272 85.6278 36.4616 85.7143 36.8381 85.8871C37.2169 86.0599 37.5152 86.2978 37.733 86.6009C37.9508 86.9015 38.0644 87.2472 38.0739 87.6378H37.0156ZM41.6444 85.7273V93H40.5435V86.8281H40.5009L38.7608 87.9645V86.9134L40.5755 85.7273H41.6444ZM45.6436 93.1207C45.0826 93.1184 44.6032 92.9704 44.2054 92.6768C43.8077 92.3833 43.5035 91.956 43.2928 91.3949C43.0821 90.8338 42.9767 90.1579 42.9767 89.3672C42.9767 88.5788 43.0821 87.9053 43.2928 87.3466C43.5059 86.7879 43.8113 86.3617 44.209 86.0682C44.6091 85.7746 45.0873 85.6278 45.6436 85.6278C46.2 85.6278 46.677 85.7758 47.0748 86.0717C47.4725 86.3653 47.7767 86.7914 47.9874 87.3501C48.2005 87.9065 48.307 88.5788 48.307 89.3672C48.307 90.1603 48.2016 90.8374 47.9909 91.3984C47.7802 91.9571 47.476 92.3845 47.0783 92.6804C46.6806 92.974 46.2024 93.1207 45.6436 93.1207ZM45.6436 92.1726C46.1361 92.1726 46.5208 91.9323 46.7978 91.4517C47.0771 90.9711 47.2168 90.2763 47.2168 89.3672C47.2168 88.7635 47.1529 88.2533 47.025 87.8366C46.8996 87.4176 46.7185 87.1004 46.4817 86.8849C46.2473 86.6671 45.968 86.5582 45.6436 86.5582C45.1536 86.5582 44.7689 86.7997 44.4895 87.2827C44.2102 87.7656 44.0693 88.4605 44.0669 89.3672C44.0669 89.9732 44.1297 90.4858 44.2551 90.9048C44.383 91.3215 44.5641 91.6375 44.7985 91.853C45.0328 92.0661 45.3146 92.1726 45.6436 92.1726ZM51.5987 93.1207C51.0376 93.1184 50.5582 92.9704 50.1605 92.6768C49.7628 92.3833 49.4586 91.956 49.2479 91.3949C49.0372 90.8338 48.9318 90.1579 48.9318 89.3672C48.9318 88.5788 49.0372 87.9053 49.2479 87.3466C49.4609 86.7879 49.7663 86.3617 50.1641 86.0682C50.5642 85.7746 51.0424 85.6278 51.5987 85.6278C52.1551 85.6278 52.6321 85.7758 53.0298 86.0717C53.4276 86.3653 53.7318 86.7914 53.9425 87.3501C54.1555 87.9065 54.2621 88.5788 54.2621 89.3672C54.2621 90.1603 54.1567 90.8374 53.946 91.3984C53.7353 91.9571 53.4311 92.3845 53.0334 92.6804C52.6357 92.974 52.1574 93.1207 51.5987 93.1207ZM51.5987 92.1726C52.0911 92.1726 52.4759 91.9323 52.7528 91.4517C53.0322 90.9711 53.1719 90.2763 53.1719 89.3672C53.1719 88.7635 53.108 88.2533 52.9801 87.8366C52.8546 87.4176 52.6735 87.1004 52.4368 86.8849C52.2024 86.6671 51.9231 86.5582 51.5987 86.5582C51.1087 86.5582 50.724 86.7997 50.4446 87.2827C50.1652 87.7656 50.0244 88.4605 50.022 89.3672C50.022 89.9732 50.0848 90.4858 50.2102 90.9048C50.3381 91.3215 50.5192 91.6375 50.7536 91.853C50.9879 92.0661 51.2696 92.1726 51.5987 92.1726ZM57.5538 93.1207C56.9927 93.1184 56.5133 92.9704 56.1156 92.6768C55.7179 92.3833 55.4136 91.956 55.2029 91.3949C54.9922 90.8338 54.8869 90.1579 54.8869 89.3672C54.8869 88.5788 54.9922 87.9053 55.2029 87.3466C55.416 86.7879 55.7214 86.3617 56.1191 86.0682C56.5192 85.7746 56.9975 85.6278 57.5538 85.6278C58.1101 85.6278 58.5872 85.7758 58.9849 86.0717C59.3826 86.3653 59.6868 86.7914 59.8975 87.3501C60.1106 87.9065 60.2172 88.5788 60.2172 89.3672C60.2172 90.1603 60.1118 90.8374 59.9011 91.3984C59.6904 91.9571 59.3862 92.3845 58.9885 92.6804C58.5907 92.974 58.1125 93.1207 57.5538 93.1207ZM57.5538 92.1726C58.0462 92.1726 58.4309 91.9323 58.7079 91.4517C58.9873 90.9711 59.127 90.2763 59.127 89.3672C59.127 88.7635 59.063 88.2533 58.9352 87.8366C58.8097 87.4176 58.6286 87.1004 58.3919 86.8849C58.1575 86.6671 57.8781 86.5582 57.5538 86.5582C57.0637 86.5582 56.679 86.7997 56.3997 87.2827C56.1203 87.7656 55.9795 88.4605 55.9771 89.3672C55.9771 89.9732 56.0398 90.4858 56.1653 90.9048C56.2931 91.3215 56.4743 91.6375 56.7086 91.853C56.943 92.0661 57.2247 92.1726 57.5538 92.1726Z" fill="#464646"/>
<path d="M35.1939 131.909V122.818H35.7763V131.909H35.1939ZM37.0156 125.638C36.9777 125.302 36.8215 125.041 36.5469 124.857C36.2723 124.67 35.9266 124.576 35.5099 124.576C35.2116 124.576 34.9536 124.623 34.7358 124.718C34.518 124.81 34.3487 124.938 34.228 125.102C34.1096 125.263 34.0504 125.446 34.0504 125.652C34.0504 125.825 34.0907 125.974 34.1712 126.099C34.254 126.225 34.3617 126.33 34.4943 126.415C34.6293 126.498 34.7737 126.568 34.9276 126.625C35.0814 126.679 35.2294 126.724 35.3714 126.76L36.0817 126.945C36.3137 127.001 36.5516 127.078 36.7955 127.175C37.0393 127.272 37.2654 127.4 37.4737 127.559C37.6821 127.718 37.8501 127.914 37.978 128.148C38.1082 128.383 38.1733 128.663 38.1733 128.99C38.1733 129.402 38.0668 129.768 37.8537 130.087C37.643 130.407 37.3364 130.659 36.9339 130.844C36.5339 131.028 36.0497 131.121 35.4815 131.121C34.937 131.121 34.4659 131.034 34.0682 130.862C33.6705 130.689 33.3591 130.444 33.1342 130.126C32.9093 129.807 32.785 129.428 32.7614 128.99H33.8622C33.8835 129.253 33.9688 129.472 34.1179 129.647C34.2694 129.82 34.4624 129.949 34.6967 130.034C34.9335 130.117 35.1927 130.158 35.4744 130.158C35.7846 130.158 36.0604 130.11 36.3018 130.013C36.5457 129.913 36.7375 129.776 36.8771 129.601C37.0168 129.423 37.0866 129.216 37.0866 128.979C37.0866 128.764 37.0251 128.588 36.902 128.45C36.7813 128.313 36.6167 128.199 36.4084 128.109C36.2024 128.019 35.9692 127.94 35.7088 127.871L34.8494 127.637C34.267 127.478 33.8054 127.245 33.4645 126.938C33.1259 126.63 32.9567 126.223 32.9567 125.716C32.9567 125.297 33.0703 124.931 33.2976 124.619C33.5249 124.306 33.8326 124.063 34.2209 123.891C34.6091 123.715 35.0471 123.628 35.5348 123.628C36.0272 123.628 36.4616 123.714 36.8381 123.887C37.2169 124.06 37.5152 124.298 37.733 124.601C37.9508 124.902 38.0644 125.247 38.0739 125.638H37.0156ZM41.2857 131.099C40.8406 131.099 40.4405 131.014 40.0854 130.844C39.7327 130.671 39.4509 130.434 39.2402 130.134C39.0295 129.833 38.9171 129.49 38.9029 129.104H39.9682C39.9943 129.416 40.1328 129.673 40.3837 129.874C40.6346 130.076 40.9353 130.176 41.2857 130.176C41.565 130.176 41.8124 130.112 42.0279 129.984C42.2457 129.854 42.4161 129.675 42.5392 129.448C42.6647 129.221 42.7275 128.962 42.7275 128.67C42.7275 128.375 42.6635 128.111 42.5357 127.879C42.4078 127.647 42.2315 127.464 42.0066 127.332C41.784 127.199 41.5283 127.132 41.2395 127.129C41.0194 127.129 40.798 127.167 40.5755 127.243C40.3529 127.319 40.173 127.418 40.0357 127.541L39.0307 127.392L39.4391 123.727H43.4377V124.668H40.3517L40.1209 126.703H40.1635C40.3056 126.566 40.4938 126.451 40.7282 126.359C40.9649 126.266 41.2182 126.22 41.4881 126.22C41.9308 126.22 42.325 126.326 42.6706 126.536C43.0186 126.747 43.2921 127.035 43.4909 127.399C43.6922 127.761 43.7916 128.178 43.7892 128.649C43.7916 129.12 43.6851 129.54 43.4696 129.91C43.2566 130.279 42.9606 130.57 42.5819 130.783C42.2054 130.994 41.7734 131.099 41.2857 131.099ZM47.1183 131.121C46.5572 131.118 46.0778 130.97 45.68 130.677C45.2823 130.383 44.9781 129.956 44.7674 129.395C44.5567 128.834 44.4513 128.158 44.4513 127.367C44.4513 126.579 44.5567 125.905 44.7674 125.347C44.9805 124.788 45.2859 124.362 45.6836 124.068C46.0837 123.775 46.5619 123.628 47.1183 123.628C47.6746 123.628 48.1516 123.776 48.5494 124.072C48.9471 124.365 49.2513 124.791 49.462 125.35C49.6751 125.906 49.7816 126.579 49.7816 127.367C49.7816 128.16 49.6763 128.837 49.4656 129.398C49.2549 129.957 48.9506 130.384 48.5529 130.68C48.1552 130.974 47.677 131.121 47.1183 131.121ZM47.1183 130.173C47.6107 130.173 47.9954 129.932 48.2724 129.452C48.5517 128.971 48.6914 128.276 48.6914 127.367C48.6914 126.763 48.6275 126.253 48.4996 125.837C48.3742 125.418 48.1931 125.1 47.9563 124.885C47.7219 124.667 47.4426 124.558 47.1183 124.558C46.6282 124.558 46.2435 124.8 45.9641 125.283C45.6848 125.766 45.5439 126.46 45.5415 127.367C45.5415 127.973 45.6043 128.486 45.7298 128.905C45.8576 129.321 46.0387 129.638 46.2731 129.853C46.5075 130.066 46.7892 130.173 47.1183 130.173ZM53.0733 131.121C52.5123 131.118 52.0328 130.97 51.6351 130.677C51.2374 130.383 50.9332 129.956 50.7225 129.395C50.5118 128.834 50.4064 128.158 50.4064 127.367C50.4064 126.579 50.5118 125.905 50.7225 125.347C50.9355 124.788 51.2409 124.362 51.6387 124.068C52.0388 123.775 52.517 123.628 53.0733 123.628C53.6297 123.628 54.1067 123.776 54.5044 124.072C54.9022 124.365 55.2064 124.791 55.4171 125.35C55.6301 125.906 55.7367 126.579 55.7367 127.367C55.7367 128.16 55.6313 128.837 55.4206 129.398C55.2099 129.957 54.9057 130.384 54.508 130.68C54.1103 130.974 53.632 131.121 53.0733 131.121ZM53.0733 130.173C53.5658 130.173 53.9505 129.932 54.2275 129.452C54.5068 128.971 54.6465 128.276 54.6465 127.367C54.6465 126.763 54.5826 126.253 54.4547 125.837C54.3292 125.418 54.1481 125.1 53.9114 124.885C53.677 124.667 53.3977 124.558 53.0733 124.558C52.5833 124.558 52.1986 124.8 51.9192 125.283C51.6399 125.766 51.499 126.46 51.4966 127.367C51.4966 127.973 51.5594 128.486 51.6848 128.905C51.8127 129.321 51.9938 129.638 52.2282 129.853C52.4625 130.066 52.7443 130.173 53.0733 130.173Z" fill="#464646"/>
<path d="M35.1939 169.909V160.818H35.7763V169.909H35.1939ZM37.0156 163.638C36.9777 163.302 36.8215 163.041 36.5469 162.857C36.2723 162.67 35.9266 162.576 35.5099 162.576C35.2116 162.576 34.9536 162.623 34.7358 162.718C34.518 162.81 34.3487 162.938 34.228 163.102C34.1096 163.263 34.0504 163.446 34.0504 163.652C34.0504 163.825 34.0907 163.974 34.1712 164.099C34.254 164.225 34.3617 164.33 34.4943 164.415C34.6293 164.498 34.7737 164.568 34.9276 164.625C35.0814 164.679 35.2294 164.724 35.3714 164.76L36.0817 164.945C36.3137 165.001 36.5516 165.078 36.7955 165.175C37.0393 165.272 37.2654 165.4 37.4737 165.559C37.6821 165.718 37.8501 165.914 37.978 166.148C38.1082 166.383 38.1733 166.663 38.1733 166.99C38.1733 167.402 38.0668 167.768 37.8537 168.087C37.643 168.407 37.3364 168.659 36.9339 168.844C36.5339 169.028 36.0497 169.121 35.4815 169.121C34.937 169.121 34.4659 169.034 34.0682 168.862C33.6705 168.689 33.3591 168.444 33.1342 168.126C32.9093 167.807 32.785 167.428 32.7614 166.99H33.8622C33.8835 167.253 33.9688 167.472 34.1179 167.647C34.2694 167.82 34.4624 167.949 34.6967 168.034C34.9335 168.117 35.1927 168.158 35.4744 168.158C35.7846 168.158 36.0604 168.11 36.3018 168.013C36.5457 167.913 36.7375 167.776 36.8771 167.601C37.0168 167.423 37.0866 167.216 37.0866 166.979C37.0866 166.764 37.0251 166.588 36.902 166.45C36.7813 166.313 36.6167 166.199 36.4084 166.109C36.2024 166.019 35.9692 165.94 35.7088 165.871L34.8494 165.637C34.267 165.478 33.8054 165.245 33.4645 164.938C33.1259 164.63 32.9567 164.223 32.9567 163.716C32.9567 163.297 33.0703 162.931 33.2976 162.619C33.5249 162.306 33.8326 162.063 34.2209 161.891C34.6091 161.715 35.0471 161.628 35.5348 161.628C36.0272 161.628 36.4616 161.714 36.8381 161.887C37.2169 162.06 37.5152 162.298 37.733 162.601C37.9508 162.902 38.0644 163.247 38.0739 163.638H37.0156ZM38.8851 169V168.205L41.3461 165.655C41.6088 165.378 41.8255 165.135 41.9959 164.927C42.1687 164.716 42.2978 164.516 42.383 164.327C42.4682 164.137 42.5108 163.936 42.5108 163.723C42.5108 163.482 42.454 163.273 42.3404 163.098C42.2267 162.92 42.0717 162.784 41.8752 162.69C41.6787 162.593 41.4573 162.544 41.2111 162.544C40.9507 162.544 40.7234 162.597 40.5293 162.704C40.3352 162.81 40.186 162.961 40.0819 163.155C39.9777 163.349 39.9256 163.576 39.9256 163.837H38.878C38.878 163.394 38.9798 163.007 39.1834 162.675C39.387 162.344 39.6664 162.087 40.0215 161.905C40.3766 161.72 40.7802 161.628 41.2324 161.628C41.6893 161.628 42.0918 161.719 42.4398 161.901C42.7902 162.081 43.0636 162.327 43.2601 162.64C43.4566 162.95 43.5549 163.3 43.5549 163.691C43.5549 163.961 43.504 164.225 43.4022 164.483C43.3027 164.741 43.1287 165.029 42.8801 165.346C42.6316 165.661 42.2859 166.043 41.8432 166.493L40.3979 168.006V168.059H43.6721V169H38.8851ZM47.0499 169.121C46.4888 169.118 46.0094 168.97 45.6117 168.677C45.214 168.383 44.9097 167.956 44.699 167.395C44.4883 166.834 44.383 166.158 44.383 165.367C44.383 164.579 44.4883 163.905 44.699 163.347C44.9121 162.788 45.2175 162.362 45.6152 162.068C46.0153 161.775 46.4935 161.628 47.0499 161.628C47.6062 161.628 48.0833 161.776 48.481 162.072C48.8787 162.365 49.1829 162.791 49.3936 163.35C49.6067 163.906 49.7132 164.579 49.7132 165.367C49.7132 166.16 49.6079 166.837 49.3972 167.398C49.1865 167.957 48.8823 168.384 48.4846 168.68C48.0868 168.974 47.6086 169.121 47.0499 169.121ZM47.0499 168.173C47.5423 168.173 47.927 167.932 48.204 167.452C48.4834 166.971 48.623 166.276 48.623 165.367C48.623 164.763 48.5591 164.253 48.4313 163.837C48.3058 163.418 48.1247 163.1 47.888 162.885C47.6536 162.667 47.3742 162.558 47.0499 162.558C46.5598 162.558 46.1751 162.8 45.8958 163.283C45.6164 163.766 45.4756 164.46 45.4732 165.367C45.4732 165.973 45.5359 166.486 45.6614 166.905C45.7892 167.321 45.9703 167.638 46.2047 167.853C46.4391 168.066 46.7208 168.173 47.0499 168.173ZM53.005 169.121C52.4439 169.118 51.9645 168.97 51.5668 168.677C51.169 168.383 50.8648 167.956 50.6541 167.395C50.4434 166.834 50.3381 166.158 50.3381 165.367C50.3381 164.579 50.4434 163.905 50.6541 163.347C50.8672 162.788 51.1726 162.362 51.5703 162.068C51.9704 161.775 52.4486 161.628 53.005 161.628C53.5613 161.628 54.0384 161.776 54.4361 162.072C54.8338 162.365 55.138 162.791 55.3487 163.35C55.5618 163.906 55.6683 164.579 55.6683 165.367C55.6683 166.16 55.563 166.837 55.3523 167.398C55.1416 167.957 54.8374 168.384 54.4396 168.68C54.0419 168.974 53.5637 169.121 53.005 169.121ZM53.005 168.173C53.4974 168.173 53.8821 167.932 54.1591 167.452C54.4384 166.971 54.5781 166.276 54.5781 165.367C54.5781 164.763 54.5142 164.253 54.3864 163.837C54.2609 163.418 54.0798 163.1 53.843 162.885C53.6087 162.667 53.3293 162.558 53.005 162.558C52.5149 162.558 52.1302 162.8 51.8509 163.283C51.5715 163.766 51.4306 164.46 51.4283 165.367C51.4283 165.973 51.491 166.486 51.6165 166.905C51.7443 167.321 51.9254 167.638 52.1598 167.853C52.3942 168.066 52.6759 168.173 53.005 168.173Z" fill="#464646"/>
<path d="M35.1939 207.909V198.818H35.7763V207.909H35.1939ZM37.0156 201.638C36.9777 201.302 36.8215 201.041 36.5469 200.857C36.2723 200.67 35.9266 200.576 35.5099 200.576C35.2116 200.576 34.9536 200.623 34.7358 200.718C34.518 200.81 34.3487 200.938 34.228 201.102C34.1096 201.263 34.0504 201.446 34.0504 201.652C34.0504 201.825 34.0907 201.974 34.1712 202.099C34.254 202.225 34.3617 202.33 34.4943 202.415C34.6293 202.498 34.7737 202.568 34.9276 202.625C35.0814 202.679 35.2294 202.724 35.3714 202.76L36.0817 202.945C36.3137 203.001 36.5516 203.078 36.7955 203.175C37.0393 203.272 37.2654 203.4 37.4737 203.559C37.6821 203.718 37.8501 203.914 37.978 204.148C38.1082 204.383 38.1733 204.663 38.1733 204.99C38.1733 205.402 38.0668 205.768 37.8537 206.087C37.643 206.407 37.3364 206.659 36.9339 206.844C36.5339 207.028 36.0497 207.121 35.4815 207.121C34.937 207.121 34.4659 207.034 34.0682 206.862C33.6705 206.689 33.3591 206.444 33.1342 206.126C32.9093 205.807 32.785 205.428 32.7614 204.99H33.8622C33.8835 205.253 33.9688 205.472 34.1179 205.647C34.2694 205.82 34.4624 205.949 34.6967 206.034C34.9335 206.117 35.1927 206.158 35.4744 206.158C35.7846 206.158 36.0604 206.11 36.3018 206.013C36.5457 205.913 36.7375 205.776 36.8771 205.601C37.0168 205.423 37.0866 205.216 37.0866 204.979C37.0866 204.764 37.0251 204.588 36.902 204.45C36.7813 204.313 36.6167 204.199 36.4084 204.109C36.2024 204.019 35.9692 203.94 35.7088 203.871L34.8494 203.637C34.267 203.478 33.8054 203.245 33.4645 202.938C33.1259 202.63 32.9567 202.223 32.9567 201.716C32.9567 201.297 33.0703 200.931 33.2976 200.619C33.5249 200.306 33.8326 200.063 34.2209 199.891C34.6091 199.715 35.0471 199.628 35.5348 199.628C36.0272 199.628 36.4616 199.714 36.8381 199.887C37.2169 200.06 37.5152 200.298 37.733 200.601C37.9508 200.902 38.0644 201.247 38.0739 201.638H37.0156ZM41.6444 199.727V207H40.5435V200.828H40.5009L38.7608 201.964V200.913L40.5755 199.727H41.6444ZM45.6436 207.121C45.0826 207.118 44.6032 206.97 44.2054 206.677C43.8077 206.383 43.5035 205.956 43.2928 205.395C43.0821 204.834 42.9767 204.158 42.9767 203.367C42.9767 202.579 43.0821 201.905 43.2928 201.347C43.5059 200.788 43.8113 200.362 44.209 200.068C44.6091 199.775 45.0873 199.628 45.6436 199.628C46.2 199.628 46.677 199.776 47.0748 200.072C47.4725 200.365 47.7767 200.791 47.9874 201.35C48.2005 201.906 48.307 202.579 48.307 203.367C48.307 204.16 48.2016 204.837 47.9909 205.398C47.7802 205.957 47.476 206.384 47.0783 206.68C46.6806 206.974 46.2024 207.121 45.6436 207.121ZM45.6436 206.173C46.1361 206.173 46.5208 205.932 46.7978 205.452C47.0771 204.971 47.2168 204.276 47.2168 203.367C47.2168 202.763 47.1529 202.253 47.025 201.837C46.8996 201.418 46.7185 201.1 46.4817 200.885C46.2473 200.667 45.968 200.558 45.6436 200.558C45.1536 200.558 44.7689 200.8 44.4895 201.283C44.2102 201.766 44.0693 202.46 44.0669 203.367C44.0669 203.973 44.1297 204.486 44.2551 204.905C44.383 205.321 44.5641 205.638 44.7985 205.853C45.0328 206.066 45.3146 206.173 45.6436 206.173ZM51.5987 207.121C51.0376 207.118 50.5582 206.97 50.1605 206.677C49.7628 206.383 49.4586 205.956 49.2479 205.395C49.0372 204.834 48.9318 204.158 48.9318 203.367C48.9318 202.579 49.0372 201.905 49.2479 201.347C49.4609 200.788 49.7663 200.362 50.1641 200.068C50.5642 199.775 51.0424 199.628 51.5987 199.628C52.1551 199.628 52.6321 199.776 53.0298 200.072C53.4276 200.365 53.7318 200.791 53.9425 201.35C54.1555 201.906 54.2621 202.579 54.2621 203.367C54.2621 204.16 54.1567 204.837 53.946 205.398C53.7353 205.957 53.4311 206.384 53.0334 206.68C52.6357 206.974 52.1574 207.121 51.5987 207.121ZM51.5987 206.173C52.0911 206.173 52.4759 205.932 52.7528 205.452C53.0322 204.971 53.1719 204.276 53.1719 203.367C53.1719 202.763 53.108 202.253 52.9801 201.837C52.8546 201.418 52.6735 201.1 52.4368 200.885C52.2024 200.667 51.9231 200.558 51.5987 200.558C51.1087 200.558 50.724 200.8 50.4446 201.283C50.1652 201.766 50.0244 202.46 50.022 203.367C50.022 203.973 50.0848 204.486 50.2102 204.905C50.3381 205.321 50.5192 205.638 50.7536 205.853C50.9879 206.066 51.2696 206.173 51.5987 206.173Z" fill="#464646"/>
<line x1="65.5" y1="88.75" x2="442" y2="88.75" stroke="#F2F2F2" stroke-width="0.5" stroke-linecap="round" stroke-dasharray="10 8"/>
<line x1="65.5" y1="126.75" x2="442" y2="126.75" stroke="#F2F2F2" stroke-width="0.5" stroke-linecap="round" stroke-dasharray="10 8"/>
<line x1="65.5" y1="164.75" x2="442" y2="164.75" stroke="#F2F2F2" stroke-width="0.5" stroke-linecap="round" stroke-dasharray="10 8"/>
<line x1="65.5" y1="202.75" x2="442" y2="202.75" stroke="#F2F2F2" stroke-width="0.5" stroke-linecap="round" stroke-dasharray="10 8"/>
<g filter="url(#filter1_bd_871_3051)">
<rect x="200" y="52" width="209.833" height="69.6667" rx="10.2222" fill="#020F25" fill-opacity="0.6" shape-rendering="crispEdges"/>
<path d="M217.573 76.2227V75.4059L220.641 72.0481C221.001 71.6548 221.297 71.313 221.53 71.0226C221.763 70.7292 221.935 70.4539 222.047 70.1968C222.162 69.9366 222.22 69.6644 222.22 69.38C222.22 69.0533 222.141 68.7705 221.984 68.5315C221.83 68.2925 221.618 68.108 221.349 67.9779C221.079 67.8478 220.777 67.7828 220.441 67.7828C220.084 67.7828 219.772 67.8569 219.506 68.0051C219.243 68.1503 219.039 68.3545 218.894 68.6177C218.752 68.8809 218.68 69.1894 218.68 69.5434H217.61C217.61 68.9989 217.735 68.5209 217.986 68.1095C218.237 67.6981 218.579 67.3774 219.012 67.1475C219.447 66.9176 219.936 66.8027 220.477 66.8027C221.022 66.8027 221.504 66.9176 221.925 67.1475C222.345 67.3774 222.675 67.6875 222.914 68.0777C223.153 68.468 223.272 68.9021 223.272 69.38C223.272 69.7218 223.21 70.0561 223.086 70.3828C222.965 70.7065 222.754 71.068 222.451 71.4673C222.152 71.8636 221.736 72.3476 221.203 72.9193L219.116 75.1518V75.2244H223.436V76.2227H217.573ZM227.885 66.8027C228.266 66.8057 228.647 66.8783 229.028 67.0205C229.41 67.1627 229.757 67.3986 230.072 67.7283C230.387 68.055 230.639 68.5012 230.83 69.0669C231.02 69.6326 231.116 70.342 231.116 71.195C231.116 72.0209 231.037 72.7544 230.88 73.3958C230.726 74.034 230.502 74.5725 230.208 75.0111C229.918 75.4498 229.564 75.7825 229.146 76.0094C228.732 76.2363 228.263 76.3497 227.74 76.3497C227.219 76.3497 226.755 76.2469 226.347 76.0412C225.941 75.8324 225.609 75.5435 225.348 75.1745C225.091 74.8024 224.927 74.3713 224.854 73.8813H225.961C226.061 74.3078 226.259 74.6602 226.555 74.9385C226.855 75.2138 227.25 75.3514 227.74 75.3514C228.457 75.3514 229.022 75.0384 229.437 74.4122C229.854 73.786 230.063 72.9012 230.063 71.7577H229.99C229.821 72.0118 229.62 72.2311 229.387 72.4156C229.154 72.6002 228.895 72.7423 228.611 72.8422C228.327 72.942 228.024 72.9919 227.703 72.9919C227.171 72.9919 226.683 72.8603 226.238 72.5971C225.796 72.3309 225.442 71.9664 225.176 71.5036C224.913 71.0377 224.781 70.5053 224.781 69.9064C224.781 69.3377 224.908 68.8174 225.162 68.3454C225.42 67.8705 225.78 67.4924 226.242 67.2111C226.708 66.9297 227.256 66.7936 227.885 66.8027ZM227.885 67.8009C227.504 67.8009 227.16 67.8962 226.855 68.0868C226.552 68.2744 226.312 68.5285 226.133 68.8491C225.958 69.1667 225.87 69.5192 225.87 69.9064C225.87 70.2936 225.955 70.646 226.124 70.9636C226.297 71.2782 226.531 71.5293 226.828 71.7169C227.127 71.9014 227.468 71.9936 227.849 71.9936C228.136 71.9936 228.404 71.9377 228.652 71.8258C228.9 71.7108 229.116 71.555 229.301 71.3584C229.488 71.1587 229.635 70.9334 229.741 70.6823C229.847 70.4282 229.9 70.1635 229.9 69.8882C229.9 69.5252 229.812 69.1849 229.636 68.8673C229.464 68.5496 229.225 68.2925 228.92 68.0959C228.617 67.8993 228.272 67.8009 227.885 67.8009ZM239.448 66.9297H240.573V73.5727C240.573 74.1656 240.464 74.6693 240.247 75.0837C240.029 75.4982 239.722 75.8128 239.326 76.0275C238.929 76.2423 238.462 76.3497 237.923 76.3497C237.415 76.3497 236.963 76.2574 236.567 76.0729C236.17 75.8854 235.859 75.6192 235.632 75.2743C235.405 74.9295 235.292 74.5196 235.292 74.0446H236.399C236.399 74.3078 236.464 74.5377 236.594 74.7343C236.727 74.9279 236.908 75.0792 237.138 75.1881C237.368 75.297 237.63 75.3514 237.923 75.3514C238.247 75.3514 238.522 75.2834 238.749 75.1473C238.976 75.0111 239.149 74.8115 239.267 74.5483C239.388 74.2821 239.448 73.9569 239.448 73.5727V66.9297ZM246.692 73.3731V69.253H247.763V76.2227H246.692V75.0429H246.62C246.456 75.3968 246.202 75.6978 245.857 75.9459C245.513 76.1909 245.077 76.3134 244.551 76.3134C244.115 76.3134 243.728 76.2181 243.389 76.0275C243.05 75.8339 242.784 75.5435 242.59 75.1563C242.397 74.7661 242.3 74.2745 242.3 73.6816V69.253H243.371V73.609C243.371 74.1172 243.513 74.5226 243.797 74.8251C244.085 75.1276 244.451 75.2788 244.895 75.2788C245.162 75.2788 245.432 75.2108 245.708 75.0747C245.986 74.9385 246.219 74.7298 246.406 74.4485C246.597 74.1671 246.692 73.8087 246.692 73.3731ZM250.412 66.9297V76.2227H249.341V66.9297H250.412ZM252.68 78.8363C252.498 78.8363 252.336 78.8212 252.194 78.7909C252.052 78.7637 251.954 78.7365 251.899 78.7092L252.172 77.7654C252.432 77.832 252.662 77.8562 252.861 77.838C253.061 77.8199 253.238 77.7306 253.392 77.5703C253.55 77.413 253.693 77.1574 253.823 76.8035L254.023 76.259L251.446 69.253H252.607L254.531 74.8069H254.604L256.528 69.253H257.689L254.731 77.2391C254.598 77.5991 254.433 77.897 254.236 78.133C254.04 78.3719 253.811 78.5489 253.551 78.6639C253.294 78.7788 253.004 78.8363 252.68 78.8363ZM264.943 76.3497C264.259 76.3497 263.677 76.1637 263.196 75.7916C262.715 75.4165 262.347 74.8735 262.093 74.1626C261.839 73.4487 261.712 72.5866 261.712 71.5762C261.712 70.5719 261.839 69.7143 262.093 69.0034C262.35 68.2895 262.719 67.745 263.2 67.3699C263.684 66.9917 264.265 66.8027 264.943 66.8027C265.62 66.8027 266.2 66.9917 266.681 67.3699C267.165 67.745 267.534 68.2895 267.788 69.0034C268.045 69.7143 268.174 70.5719 268.174 71.5762C268.174 72.5866 268.046 73.4487 267.792 74.1626C267.538 74.8735 267.171 75.4165 266.69 75.7916C266.209 76.1637 265.626 76.3497 264.943 76.3497ZM264.943 75.3514C265.62 75.3514 266.147 75.0247 266.522 74.3713C266.897 73.7179 267.085 72.7862 267.085 71.5762C267.085 70.7715 266.998 70.0864 266.826 69.5207C266.656 68.955 266.411 68.5239 266.091 68.2275C265.773 67.931 265.39 67.7828 264.943 67.7828C264.271 67.7828 263.746 68.114 263.368 68.7765C262.99 69.436 262.801 70.3692 262.801 71.5762C262.801 72.3809 262.886 73.0645 263.055 73.6272C263.225 74.1898 263.468 74.6179 263.786 74.9113C264.106 75.2047 264.492 75.3514 264.943 75.3514ZM272.546 76.3497C271.862 76.3497 271.28 76.1637 270.799 75.7916C270.318 75.4165 269.95 74.8735 269.696 74.1626C269.442 73.4487 269.315 72.5866 269.315 71.5762C269.315 70.5719 269.442 69.7143 269.696 69.0034C269.953 68.2895 270.322 67.745 270.803 67.3699C271.287 66.9917 271.868 66.8027 272.546 66.8027C273.223 66.8027 273.802 66.9917 274.283 67.3699C274.767 67.745 275.136 68.2895 275.391 69.0034C275.648 69.7143 275.776 70.5719 275.776 71.5762C275.776 72.5866 275.649 73.4487 275.395 74.1626C275.141 74.8735 274.773 75.4165 274.293 75.7916C273.812 76.1637 273.229 76.3497 272.546 76.3497ZM272.546 75.3514C273.223 75.3514 273.75 75.0247 274.125 74.3713C274.5 73.7179 274.687 72.7862 274.687 71.5762C274.687 70.7715 274.601 70.0864 274.429 69.5207C274.259 68.955 274.014 68.5239 273.694 68.2275C273.376 67.931 272.993 67.7828 272.546 67.7828C271.874 67.7828 271.349 68.114 270.971 68.7765C270.593 69.436 270.404 70.3692 270.404 71.5762C270.404 72.3809 270.489 73.0645 270.658 73.6272C270.827 74.1898 271.071 74.6179 271.388 74.9113C271.709 75.2047 272.095 75.3514 272.546 75.3514ZM277.916 75.0338C277.692 75.0338 277.5 74.9537 277.34 74.7933C277.179 74.633 277.099 74.4409 277.099 74.2171C277.099 73.9932 277.179 73.8011 277.34 73.6408C277.5 73.4805 277.692 73.4003 277.916 73.4003C278.14 73.4003 278.332 73.4805 278.492 73.6408C278.652 73.8011 278.733 73.9932 278.733 74.2171C278.733 74.3653 278.695 74.5014 278.619 74.6254C278.547 74.7495 278.448 74.8493 278.324 74.9249C278.203 74.9975 278.067 75.0338 277.916 75.0338ZM277.916 70.3329C277.692 70.3329 277.5 70.2527 277.34 70.0924C277.179 69.9321 277.099 69.74 277.099 69.5161C277.099 69.2923 277.179 69.1002 277.34 68.9399C277.5 68.7795 277.692 68.6994 277.916 68.6994C278.14 68.6994 278.332 68.7795 278.492 68.9399C278.652 69.1002 278.733 69.2923 278.733 69.5161C278.733 69.6644 278.695 69.8005 278.619 69.9245C278.547 70.0485 278.448 70.1484 278.324 70.224C278.203 70.2966 278.067 70.3329 277.916 70.3329ZM283.284 76.3497C282.6 76.3497 282.018 76.1637 281.537 75.7916C281.056 75.4165 280.688 74.8735 280.434 74.1626C280.18 73.4487 280.053 72.5866 280.053 71.5762C280.053 70.5719 280.18 69.7143 280.434 69.0034C280.691 68.2895 281.06 67.745 281.541 67.3699C282.025 66.9917 282.606 66.8027 283.284 66.8027C283.961 66.8027 284.541 66.9917 285.022 67.3699C285.506 67.745 285.875 68.2895 286.129 69.0034C286.386 69.7143 286.515 70.5719 286.515 71.5762C286.515 72.5866 286.388 73.4487 286.133 74.1626C285.879 74.8735 285.512 75.4165 285.031 75.7916C284.55 76.1637 283.968 76.3497 283.284 76.3497ZM283.284 75.3514C283.961 75.3514 284.488 75.0247 284.863 74.3713C285.238 73.7179 285.426 72.7862 285.426 71.5762C285.426 70.7715 285.339 70.0864 285.167 69.5207C284.998 68.955 284.753 68.5239 284.432 68.2275C284.114 67.931 283.732 67.7828 283.284 67.7828C282.612 67.7828 282.087 68.114 281.709 68.7765C281.331 69.436 281.142 70.3692 281.142 71.5762C281.142 72.3809 281.227 73.0645 281.396 73.6272C281.566 74.1898 281.809 74.6179 282.127 74.9113C282.447 75.2047 282.833 75.3514 283.284 75.3514ZM290.887 76.3497C290.203 76.3497 289.621 76.1637 289.14 75.7916C288.659 75.4165 288.291 74.8735 288.037 74.1626C287.783 73.4487 287.656 72.5866 287.656 71.5762C287.656 70.5719 287.783 69.7143 288.037 69.0034C288.294 68.2895 288.663 67.745 289.144 67.3699C289.628 66.9917 290.209 66.8027 290.887 66.8027C291.564 66.8027 292.144 66.9917 292.625 67.3699C293.109 67.745 293.478 68.2895 293.732 69.0034C293.989 69.7143 294.117 70.5719 294.117 71.5762C294.117 72.5866 293.99 73.4487 293.736 74.1626C293.482 74.8735 293.115 75.4165 292.634 75.7916C292.153 76.1637 291.57 76.3497 290.887 76.3497ZM290.887 75.3514C291.564 75.3514 292.091 75.0247 292.466 74.3713C292.841 73.7179 293.028 72.7862 293.028 71.5762C293.028 70.7715 292.942 70.0864 292.77 69.5207C292.6 68.955 292.355 68.5239 292.035 68.2275C291.717 67.931 291.334 67.7828 290.887 67.7828C290.215 67.7828 289.69 68.114 289.312 68.7765C288.934 69.436 288.745 70.3692 288.745 71.5762C288.745 72.3809 288.83 73.0645 288.999 73.6272C289.168 74.1898 289.412 74.6179 289.73 74.9113C290.05 75.2047 290.436 75.3514 290.887 75.3514Z" fill="#C4C4C4"/>
<path d="M218.042 100.223V98.5964L223.073 93.3836C223.61 92.8174 224.053 92.3212 224.401 91.8953C224.755 91.4646 225.019 91.0556 225.193 90.6684C225.367 90.2812 225.454 89.8698 225.454 89.4341C225.454 88.9405 225.338 88.5145 225.106 88.1564C224.873 87.7934 224.556 87.5151 224.155 87.3215C223.753 87.123 223.3 87.0238 222.797 87.0238C222.265 87.0238 221.8 87.1327 221.403 87.3505C221.006 87.5683 220.701 87.8756 220.488 88.2725C220.275 88.6694 220.169 89.1341 220.169 89.6665H218.027C218.027 88.7614 218.235 87.97 218.651 87.2924C219.068 86.6148 219.639 86.0897 220.365 85.717C221.091 85.3394 221.916 85.1507 222.84 85.1507C223.775 85.1507 224.597 85.337 225.309 85.7097C226.025 86.0776 226.584 86.5809 226.986 87.2198C227.388 87.8539 227.589 88.5702 227.589 89.3688C227.589 89.9206 227.485 90.4602 227.276 90.9878C227.073 91.5154 226.717 92.1034 226.209 92.752C225.701 93.3957 224.994 94.1774 224.089 95.097L221.134 98.1898V98.2987H227.828V100.223H218.042ZM230.58 100.223V98.5964L235.611 93.3836C236.148 92.8174 236.591 92.3212 236.94 91.8953C237.293 91.4646 237.557 91.0556 237.731 90.6684C237.905 90.2812 237.992 89.8698 237.992 89.4341C237.992 88.9405 237.876 88.5145 237.644 88.1564C237.412 87.7934 237.094 87.5151 236.693 87.3215C236.291 87.123 235.838 87.0238 235.335 87.0238C234.803 87.0238 234.338 87.1327 233.941 87.3505C233.544 87.5683 233.239 87.8756 233.026 88.2725C232.813 88.6694 232.707 89.1341 232.707 89.6665H230.565C230.565 88.7614 230.773 87.97 231.19 87.2924C231.606 86.6148 232.177 86.0897 232.903 85.717C233.629 85.3394 234.454 85.1507 235.379 85.1507C236.313 85.1507 237.136 85.337 237.847 85.7097C238.563 86.0776 239.122 86.5809 239.524 87.2198C239.926 87.8539 240.127 88.5702 240.127 89.3688C240.127 89.9206 240.023 90.4602 239.815 90.9878C239.611 91.5154 239.256 92.1034 238.747 92.752C238.239 93.3957 237.533 94.1774 236.627 95.097L233.673 98.1898V98.2987H240.366V100.223H230.58ZM248.294 100.469C247.147 100.465 246.167 100.162 245.354 99.562C244.541 98.9618 243.919 98.0882 243.488 96.9411C243.057 95.794 242.842 94.4122 242.842 92.7956C242.842 91.1838 243.057 89.8068 243.488 88.6646C243.924 87.5223 244.548 86.6511 245.361 86.0509C246.179 85.4508 247.157 85.1507 248.294 85.1507C249.432 85.1507 250.407 85.4532 251.22 86.0582C252.033 86.6584 252.655 87.5296 253.086 88.6718C253.522 89.8093 253.739 91.1838 253.739 92.7956C253.739 94.417 253.524 95.8013 253.093 96.9484C252.663 98.0906 252.041 98.9642 251.227 99.5692C250.414 100.169 249.437 100.469 248.294 100.469ZM248.294 98.5311C249.301 98.5311 250.088 98.0398 250.654 97.0573C251.225 96.0747 251.511 94.6542 251.511 92.7956C251.511 91.5614 251.38 90.5183 251.119 89.6665C250.862 88.8098 250.492 88.1612 250.008 87.7208C249.529 87.2755 248.957 87.0528 248.294 87.0528C247.293 87.0528 246.506 87.5465 245.935 88.5339C245.364 89.5213 245.076 90.9418 245.071 92.7956C245.071 94.0346 245.199 95.0825 245.456 95.9392C245.717 96.791 246.087 97.4372 246.567 97.8776C247.046 98.3132 247.622 98.5311 248.294 98.5311ZM258.629 98.1898L258.52 98.9812C258.448 99.562 258.324 100.167 258.15 100.796C257.981 101.43 257.804 102.018 257.62 102.56C257.441 103.102 257.293 103.533 257.177 103.853H255.638C255.701 103.553 255.788 103.146 255.899 102.633C256.011 102.125 256.12 101.556 256.226 100.927C256.333 100.298 256.412 99.6564 256.466 99.003L256.538 98.1898H258.629ZM266.303 100.426C265.306 100.426 264.415 100.254 263.631 99.9105C262.852 99.5668 262.235 99.0901 261.78 98.4802C261.33 97.8655 261.088 97.1541 261.054 96.3458H263.334C263.363 96.7862 263.51 97.1686 263.777 97.4929C264.048 97.8123 264.401 98.0591 264.837 98.2334C265.272 98.4076 265.756 98.4948 266.289 98.4948C266.874 98.4948 267.392 98.3931 267.842 98.1898C268.297 97.9865 268.653 97.7034 268.909 97.3404C269.166 96.9726 269.294 96.549 269.294 96.0699C269.294 95.5714 269.166 95.1333 268.909 94.7558C268.658 94.3734 268.288 94.0734 267.799 93.8555C267.315 93.6377 266.729 93.5288 266.042 93.5288H264.786V91.6993H266.042C266.593 91.6993 267.078 91.6001 267.494 91.4016C267.915 91.2032 268.244 90.9273 268.481 90.574C268.718 90.2158 268.837 89.7972 268.837 89.318C268.837 88.8582 268.733 88.4589 268.525 88.1201C268.321 87.7764 268.031 87.5078 267.653 87.3142C267.281 87.1206 266.84 87.0238 266.332 87.0238C265.848 87.0238 265.396 87.1133 264.974 87.2924C264.558 87.4667 264.219 87.7183 263.958 88.0475C263.697 88.3718 263.556 88.7614 263.537 89.2163H261.366C261.39 88.4129 261.628 87.7062 262.078 87.0964C262.533 86.4865 263.133 86.0098 263.878 85.6662C264.624 85.3225 265.451 85.1507 266.361 85.1507C267.315 85.1507 268.137 85.337 268.83 85.7097C269.527 86.0776 270.064 86.5688 270.441 87.1835C270.824 87.7982 271.012 88.471 271.008 89.2018C271.012 90.0343 270.78 90.741 270.311 91.3218C269.846 91.9026 269.226 92.2922 268.452 92.4906V92.6068C269.439 92.7569 270.204 93.1489 270.746 93.7829C271.293 94.417 271.564 95.2035 271.559 96.1425C271.564 96.9605 271.337 97.6937 270.877 98.3423C270.422 98.9909 269.8 99.5015 269.011 99.8742C268.222 100.242 267.32 100.426 266.303 100.426ZM273.992 97.3186V95.5036L280.417 85.354H281.847V88.0257H280.939L276.344 95.3003V95.4165H285.15V97.3186H273.992ZM281.041 100.223V96.7668L281.056 95.9392V85.354H283.183V100.223H281.041ZM287.68 100.223V98.5964L292.712 93.3836C293.249 92.8174 293.692 92.3212 294.04 91.8953C294.394 91.4646 294.657 91.0556 294.832 90.6684C295.006 90.2812 295.093 89.8698 295.093 89.4341C295.093 88.9405 294.977 88.5145 294.745 88.1564C294.512 87.7934 294.195 87.5151 293.793 87.3215C293.392 87.123 292.939 87.0238 292.436 87.0238C291.903 87.0238 291.439 87.1327 291.042 87.3505C290.645 87.5683 290.34 87.8756 290.127 88.2725C289.914 88.6694 289.808 89.1341 289.808 89.6665H287.666C287.666 88.7614 287.874 87.97 288.29 87.2924C288.707 86.6148 289.278 86.0897 290.004 85.717C290.73 85.3394 291.555 85.1507 292.479 85.1507C293.414 85.1507 294.236 85.337 294.948 85.7097C295.664 86.0776 296.223 86.5809 296.625 87.2198C297.027 87.8539 297.227 88.5702 297.227 89.3688C297.227 89.9206 297.123 90.4602 296.915 90.9878C296.712 91.5154 296.356 92.1034 295.848 92.752C295.34 93.3957 294.633 94.1774 293.728 95.097L290.773 98.1898V98.2987H297.467V100.223H287.68ZM301.678 100.361C301.281 100.361 300.94 100.22 300.654 99.9395C300.369 99.6539 300.226 99.3103 300.226 98.9086C300.226 98.5117 300.369 98.1729 300.654 97.8922C300.94 97.6066 301.281 97.4638 301.678 97.4638C302.075 97.4638 302.416 97.6066 302.702 97.8922C302.987 98.1729 303.13 98.5117 303.13 98.9086C303.13 99.1748 303.062 99.4192 302.927 99.6418C302.796 99.8597 302.622 100.034 302.404 100.165C302.186 100.295 301.944 100.361 301.678 100.361ZM306.13 100.223L312.621 87.3868V87.2779H305.114V85.354H314.944V87.3432L308.475 100.223H306.13ZM322.34 100.426C321.677 100.416 321.024 100.295 320.38 100.063C319.741 99.8306 319.16 99.4434 318.638 98.9013C318.115 98.3592 317.696 97.6308 317.382 96.716C317.072 95.8013 316.917 94.659 316.917 93.2893C316.917 91.9921 317.045 90.8402 317.302 89.8335C317.563 88.8267 317.938 87.9773 318.427 87.2852C318.916 86.5882 319.506 86.0582 320.198 85.6952C320.891 85.3322 321.667 85.1507 322.529 85.1507C323.415 85.1507 324.201 85.3249 324.888 85.6734C325.576 86.0219 326.132 86.5035 326.558 87.1182C326.989 87.7329 327.263 88.4323 327.379 89.2163H325.164C325.014 88.5968 324.717 88.091 324.271 87.699C323.826 87.3069 323.245 87.1109 322.529 87.1109C321.44 87.1109 320.59 87.5852 319.981 88.5339C319.376 89.4825 319.071 90.8015 319.066 92.4906H319.175C319.431 92.0696 319.746 91.7114 320.119 91.4162C320.496 91.1161 320.917 90.8862 321.382 90.7264C321.851 90.5619 322.345 90.4796 322.863 90.4796C323.724 90.4796 324.504 90.6901 325.201 91.1112C325.902 91.5275 326.462 92.1034 326.878 92.8391C327.294 93.5748 327.502 94.417 327.502 95.3656C327.502 96.3143 327.287 97.1734 326.856 97.943C326.43 98.7126 325.83 99.3224 325.055 99.7725C324.281 100.218 323.376 100.436 322.34 100.426ZM322.333 98.5383C322.904 98.5383 323.415 98.398 323.865 98.1172C324.315 97.8365 324.671 97.459 324.932 96.9847C325.193 96.5103 325.324 95.9803 325.324 95.3947C325.324 94.8236 325.196 94.3033 324.939 93.8338C324.688 93.3643 324.339 92.9916 323.894 92.7157C323.453 92.4398 322.95 92.3019 322.384 92.3019C321.953 92.3019 321.554 92.3842 321.186 92.5487C320.823 92.7133 320.503 92.9408 320.227 93.2312C319.952 93.5216 319.734 93.8555 319.574 94.2331C319.419 94.6058 319.342 95.0002 319.342 95.4165C319.342 95.9731 319.47 96.4885 319.727 96.9629C319.988 97.4372 320.344 97.8196 320.794 98.11C321.249 98.3955 321.762 98.5383 322.333 98.5383Z" fill="white"/>
<rect x="337.278" y="80.2227" width="57.2222" height="26.1111" rx="5.11111" fill="#E0F0E4"/>
<path d="M346.918 96.9042V89.5425H348.382V96.9042H346.918ZM343.972 93.953V92.4937H351.334V93.953H343.972ZM357.563 98.9298C356.815 98.9298 356.147 98.8009 355.559 98.5432C354.975 98.2855 354.512 97.9279 354.17 97.4705C353.833 97.0095 353.651 96.4759 353.626 95.8697H355.336C355.358 96.2 355.468 96.4868 355.668 96.73C355.871 96.9696 356.136 97.1547 356.463 97.2854C356.79 97.4161 357.153 97.4814 357.552 97.4814C357.991 97.4814 358.38 97.4052 358.717 97.2527C359.058 97.1003 359.325 96.8879 359.518 96.6156C359.71 96.3398 359.806 96.0221 359.806 95.6628C359.806 95.2889 359.71 94.9603 359.518 94.6772C359.329 94.3904 359.051 94.1654 358.684 94.002C358.321 93.8387 357.882 93.757 357.367 93.757H356.425V92.3848H357.367C357.781 92.3848 358.144 92.3104 358.456 92.1616C358.772 92.0127 359.018 91.8058 359.196 91.5408C359.374 91.2722 359.463 90.9582 359.463 90.5988C359.463 90.254 359.385 89.9545 359.229 89.7004C359.076 89.4427 358.859 89.2412 358.576 89.096C358.296 88.9508 357.966 88.8782 357.585 88.8782C357.222 88.8782 356.882 88.9454 356.566 89.0797C356.254 89.2103 356 89.3991 355.804 89.646C355.608 89.8892 355.503 90.1814 355.488 90.5226H353.86C353.878 89.92 354.056 89.39 354.394 88.9326C354.735 88.4753 355.185 88.1177 355.744 87.86C356.303 87.6022 356.924 87.4734 357.606 87.4734C358.321 87.4734 358.939 87.6131 359.458 87.8926C359.98 88.1685 360.383 88.537 360.666 88.998C360.953 89.459 361.095 89.9636 361.091 90.5117C361.095 91.1361 360.921 91.6661 360.568 92.1017C360.22 92.5373 359.755 92.8295 359.175 92.9783V93.0655C359.915 93.178 360.489 93.472 360.895 93.9476C361.305 94.4231 361.509 95.013 361.505 95.7172C361.509 96.3307 361.338 96.8806 360.993 97.3671C360.652 97.8535 360.185 98.2365 359.594 98.516C359.002 98.7919 358.325 98.9298 357.563 98.9298ZM364.328 98.8808C364.031 98.8808 363.775 98.7755 363.561 98.565C363.346 98.3508 363.239 98.0931 363.239 97.7918C363.239 97.4941 363.346 97.24 363.561 97.0295C363.775 96.8153 364.031 96.7082 364.328 96.7082C364.626 96.7082 364.882 96.8153 365.096 97.0295C365.31 97.24 365.417 97.4941 365.417 97.7918C365.417 97.9914 365.366 98.1748 365.265 98.3417C365.167 98.5051 365.036 98.6358 364.873 98.7338C364.709 98.8318 364.528 98.8808 364.328 98.8808ZM367.342 96.5993V95.238L372.161 87.6258H373.234V89.6296H372.553L369.106 95.0856V95.1727H375.711V96.5993H367.342ZM372.629 98.7773V96.1855L372.64 95.5647V87.6258H374.236V98.7773H372.629ZM383.43 96.6864V96.0984C383.43 95.6773 383.517 95.2925 383.691 94.944C383.869 94.5919 384.127 94.3106 384.464 94.1C384.805 93.8859 385.217 93.7788 385.7 93.7788C386.194 93.7788 386.608 93.884 386.942 94.0946C387.276 94.3051 387.528 94.5865 387.699 94.9386C387.873 95.2907 387.96 95.6773 387.96 96.0984V96.6864C387.96 97.1075 387.873 97.4941 387.699 97.8462C387.524 98.1947 387.268 98.476 386.931 98.6902C386.597 98.9008 386.187 99.006 385.7 99.006C385.21 99.006 384.796 98.9008 384.459 98.6902C384.121 98.476 383.865 98.1947 383.691 97.8462C383.517 97.4941 383.43 97.1075 383.43 96.6864ZM384.698 96.0984V96.6864C384.698 96.9986 384.773 97.2818 384.922 97.5359C385.07 97.79 385.33 97.917 385.7 97.917C386.067 97.917 386.323 97.79 386.468 97.5359C386.613 97.2818 386.686 96.9986 386.686 96.6864V96.0984C386.686 95.7862 386.615 95.503 386.473 95.2489C386.335 94.9948 386.078 94.8678 385.7 94.8678C385.337 94.8678 385.079 94.9948 384.927 95.2489C384.775 95.503 384.698 95.7862 384.698 96.0984ZM377.821 90.3048V89.7167C377.821 89.2957 377.908 88.9091 378.083 88.5569C378.26 88.2048 378.518 87.9235 378.856 87.7129C379.197 87.5024 379.609 87.3971 380.092 87.3971C380.585 87.3971 380.999 87.5024 381.333 87.7129C381.667 87.9235 381.919 88.2048 382.09 88.5569C382.261 88.9091 382.346 89.2957 382.346 89.7167V90.3048C382.346 90.7259 382.259 91.1125 382.085 91.4646C381.914 91.8131 381.66 92.0944 381.322 92.3086C380.988 92.5191 380.578 92.6244 380.092 92.6244C379.598 92.6244 379.182 92.5191 378.845 92.3086C378.511 92.0944 378.257 91.8131 378.083 91.4646C377.908 91.1125 377.821 90.7259 377.821 90.3048ZM379.095 89.7167V90.3048C379.095 90.617 379.168 90.9001 379.313 91.1542C379.462 91.4083 379.722 91.5354 380.092 91.5354C380.455 91.5354 380.709 91.4083 380.854 91.1542C381.003 90.9001 381.077 90.617 381.077 90.3048V89.7167C381.077 89.4046 381.007 89.1214 380.865 88.8673C380.723 88.6132 380.466 88.4861 380.092 88.4861C379.729 88.4861 379.471 88.6132 379.319 88.8673C379.17 89.1214 379.095 89.4046 379.095 89.7167ZM378.338 98.7773L386.005 87.6258H387.306L379.64 98.7773H378.338Z" fill="#377E36"/>
</g>
<rect x="4.5" y="2.5" width="611" height="365" rx="15.5" stroke="#F9F9F9" shape-rendering="crispEdges"/>
</g>
<defs>
<filter id="filter0_d_871_3051" x="0" y="0" width="621.5" height="374" filterUnits="userSpaceOnUse" color-interpolation-filters="sRGB">
<feFlood flood-opacity="0" result="BackgroundImageFix"/>
<feColorMatrix in="SourceAlpha" type="matrix" values="0 0 0 0 0 0 0 0 0 0 0 0 0 0 0 0 0 0 127 0" result="hardAlpha"/>
<feOffset dy="2"/>
<feGaussianBlur stdDeviation="2"/>
<feComposite in2="hardAlpha" operator="out"/>
<feColorMatrix type="matrix" values="0 0 0 0 0 0 0 0 0 0 0 0 0 0 0 0 0 0 0.04 0"/>
<feBlend mode="normal" in2="BackgroundImageFix" result="effect1_dropShadow_871_3051"/>
<feBlend mode="normal" in="SourceGraphic" in2="effect1_dropShadow_871_3051" result="shape"/>
</filter>
<filter id="filter1_bd_871_3051" x="194.889" y="46.8889" width="220.055" height="82.7771" filterUnits="userSpaceOnUse" color-interpolation-filters="sRGB">
<feFlood flood-opacity="0" result="BackgroundImageFix"/>
<feGaussianBlur in="BackgroundImageFix" stdDeviation="2.55556"/>
<feComposite in2="SourceAlpha" operator="in" result="effect1_backgroundBlur_871_3051"/>
<feColorMatrix in="SourceAlpha" type="matrix" values="0 0 0 0 0 0 0 0 0 0 0 0 0 0 0 0 0 0 127 0" result="hardAlpha"/>
<feOffset dy="4"/>
<feGaussianBlur stdDeviation="2"/>
<feComposite in2="hardAlpha" operator="out"/>
<feColorMatrix type="matrix" values="0 0 0 0 0 0 0 0 0 0 0 0 0 0 0 0 0 0 0.25 0"/>
<feBlend mode="normal" in2="effect1_backgroundBlur_871_3051" result="effect2_dropShadow_871_3051"/>
<feBlend mode="normal" in="SourceGraphic" in2="effect2_dropShadow_871_3051" result="shape"/>
</filter>
<linearGradient id="paint0_linear_871_3051" x1="423.5" y1="108" x2="423.5" y2="226" gradientUnits="userSpaceOnUse">
<stop stop-color="#245DE0"/>
<stop offset="1" stop-color="#245DE0" stop-opacity="0"/>
</linearGradient>
</defs>
</svg>
