<svg width="1352" height="448" viewBox="0 0 1352 448" fill="none" xmlns="http://www.w3.org/2000/svg">
<g clip-path="url(#clip0_860_1618)">
<path d="M0 20C0 8.95431 8.95431 0 20 0H1332C1343.05 0 1352 8.95431 1352 20V428C1352 439.046 1343.05 448 1332 448H20C8.95433 448 0 439.046 0 428V20Z" fill="#F6F8FC"/>
<g filter="url(#filter0_d_860_1618)">
<circle cx="938.148" cy="-7.30027" r="81" transform="rotate(45 938.148 -7.30027)" fill="white"/>
</g>
<circle cx="938" cy="-7" r="37.625" fill="#0F287F"/>
<path fill-rule="evenodd" clip-rule="evenodd" d="M924.563 -28.5L911.125 -20.4375L924.563 -12.375L911.125 -4.3125L924.563 3.75L938 -4.3125L951.438 3.75L964.875 -4.3125L951.438 -12.375L964.875 -20.4375L951.438 -28.5L938 -20.4375L924.563 -28.5ZM938 -20.4375L951.438 -12.375L938 -4.3125L924.563 -12.375L938 -20.4375Z" fill="#DAF8FE"/>
<path d="M924.563 9.125L938 1.0625L951.438 9.125L938 17.1875L924.563 9.125Z" fill="#DAF8FE"/>
<g filter="url(#filter1_d_860_1618)">
<circle cx="783.998" cy="146.85" r="81" transform="rotate(45 783.998 146.85)" fill="white"/>
</g>
<path fill-rule="evenodd" clip-rule="evenodd" d="M756.361 182.523L747.117 171.008C744.894 168.237 743.687 164.831 743.687 161.324V119.628C743.687 114.375 747.889 110.017 753.31 109.647L796.179 106.72C799.294 106.508 802.389 107.335 804.947 109.065L820.009 119.249C822.706 121.072 824.312 124.051 824.312 127.231V174.636C824.312 179.776 820.18 184.032 814.872 184.359L767.292 187.287C763.056 187.548 758.962 185.764 756.361 182.523Z" fill="white"/>
<path d="M771.228 140.492V139.946C771.228 138.563 772.336 137.415 773.765 137.32L784.169 136.625L798.557 157.813V139.217L794.854 138.723V138.464C794.854 137.064 795.987 135.909 797.434 135.835L806.901 135.35V136.712C806.901 137.352 806.425 137.899 805.773 138.009L803.495 138.394V168.509L800.636 169.493C798.247 170.314 795.588 169.435 794.221 167.372L780.253 146.293V166.411L784.552 167.234L784.492 167.633C784.304 168.882 783.226 169.827 781.921 169.885L771.228 170.361C771.087 169.018 772.093 167.816 773.482 167.67L774.889 167.522V140.698L771.228 140.492Z" fill="black"/>
<path fill-rule="evenodd" clip-rule="evenodd" d="M796.563 111.973L753.693 114.9C751.125 115.075 749.135 117.139 749.135 119.627V161.324C749.135 163.661 749.939 165.932 751.422 167.779L760.665 179.294C762.16 181.156 764.512 182.181 766.945 182.032L814.525 179.103C816.964 178.953 818.862 176.997 818.862 174.636V127.231C818.862 125.77 818.124 124.401 816.886 123.563L801.824 113.38C800.289 112.342 798.431 111.845 796.563 111.973ZM755.819 120.278C755.223 119.836 755.506 118.917 756.255 118.863L796.851 115.951C798.144 115.858 799.43 116.215 800.476 116.956L808.621 122.726C808.93 122.945 808.785 123.418 808.402 123.439L765.412 125.777C764.111 125.848 762.826 125.466 761.792 124.7L755.819 120.278ZM763.395 133.107C763.395 131.71 764.524 130.557 765.966 130.478L811.419 128.003C812.826 127.926 814.009 129.008 814.009 130.369V171.416C814.009 172.81 812.885 173.963 811.445 174.045L766.28 176.615C764.715 176.704 763.395 175.501 763.395 173.986V133.107Z" fill="black"/>
<g filter="url(#filter2_d_860_1618)">
<circle cx="629.849" cy="300.999" r="81" transform="rotate(45 629.849 300.999)" fill="white"/>
</g>
<path d="M658.218 298.311C661.929 298.311 664.937 295.304 664.937 291.593C664.937 287.883 661.928 284.875 658.218 284.875C654.507 284.875 651.499 287.883 651.499 291.594V298.311H658.218ZM639.405 298.311C643.116 298.311 646.124 295.303 646.124 291.593V272.781C646.124 269.071 643.116 266.062 639.405 266.062C635.695 266.062 632.687 269.071 632.687 272.781V291.593C632.687 295.303 635.695 298.311 639.405 298.311Z" fill="#2EB67D"/>
<path d="M601.78 303.689C598.069 303.689 595.062 306.696 595.062 310.407C595.062 314.117 598.07 317.125 601.78 317.125C605.491 317.125 608.499 314.117 608.499 310.406V303.689H601.78ZM620.593 303.689C616.882 303.689 613.874 306.697 613.874 310.407V329.219C613.874 332.929 616.882 335.938 620.593 335.938C624.303 335.938 627.312 332.929 627.312 329.219V310.407C627.312 306.697 624.303 303.689 620.593 303.689Z" fill="#E01E5A"/>
<path d="M632.687 329.219C632.687 332.93 635.695 335.937 639.405 335.937C643.115 335.937 646.123 332.929 646.123 329.219C646.123 325.508 643.115 322.5 639.404 322.5L632.687 322.5L632.687 329.219ZM632.687 310.406C632.687 314.117 635.695 317.125 639.405 317.125L658.217 317.125C661.927 317.125 664.936 314.117 664.936 310.406C664.936 306.696 661.927 303.687 658.217 303.687L639.405 303.687C635.695 303.687 632.687 306.696 632.687 310.406Z" fill="#ECB22E"/>
<path d="M627.311 272.781C627.311 269.07 624.304 266.063 620.593 266.063C616.883 266.063 613.875 269.071 613.875 272.781C613.875 276.492 616.883 279.5 620.594 279.5L627.311 279.5L627.311 272.781ZM627.311 291.594C627.311 287.883 624.303 284.875 620.593 284.875L601.781 284.875C598.071 284.875 595.063 287.883 595.063 291.594C595.063 295.304 598.071 298.313 601.781 298.313L620.593 298.313C624.303 298.313 627.311 295.304 627.311 291.594Z" fill="#36C5F0"/>
<g filter="url(#filter3_d_860_1618)">
<circle cx="475.7" cy="455.149" r="81" transform="rotate(45 475.7 455.149)" fill="white"/>
</g>
<path d="M475.799 417.35C455.143 417.35 438.349 434.144 438.349 454.8C438.349 475.456 455.143 492.25 475.799 492.25C496.455 492.25 513.249 475.456 513.249 454.8C513.249 434.144 496.455 417.35 475.799 417.35Z" fill="#FDDD4C"/>
<path d="M459.398 464.564C458.579 463.324 460.639 461.448 459.801 459.873C459.318 458.964 458.529 458.398 457.581 458.279C456.671 458.165 455.734 458.498 455.137 459.149C454.193 460.175 454.047 461.572 454.229 462.067C454.296 462.248 454.401 462.297 454.476 462.308C454.99 462.375 455.279 461.057 455.456 460.782C455.947 460.026 457.06 459.797 457.829 460.294C459.287 461.237 458.023 462.761 458.132 464.049C458.238 465.302 459.019 465.806 459.72 465.859C460.402 465.885 460.879 465.506 461 465.229C461.288 464.569 460.072 465.584 459.398 464.564Z" fill="black"/>
<path d="M489.863 453.184C489.481 453.131 489.063 453.132 488.628 453.184C488.298 452.767 488.002 452.093 487.835 451.305C487.538 449.905 487.569 448.89 488.398 448.758C489.227 448.627 489.627 449.474 489.924 450.875C490.123 451.816 490.085 452.681 489.863 453.184Z" fill="black"/>
<path d="M480.787 454.017C480.82 454.334 480.831 454.655 480.822 454.951C481.624 454.998 482.192 455.379 482.343 455.62C482.42 455.745 482.389 455.826 482.364 455.864C482.281 455.993 482.104 455.973 481.731 455.931C481.405 455.895 481.055 455.863 480.691 455.879C480.492 456.487 479.905 456.544 479.492 456.095C479.203 456.183 478.637 456.544 478.468 456.151C478.466 455.956 478.67 455.672 479.04 455.422C478.788 454.941 478.619 454.426 478.519 453.892C477.995 453.987 477.524 454.133 477.154 454.248C476.981 454.302 476.295 454.612 476.214 454.263C476.161 454.022 476.536 453.624 476.933 453.337C477.377 453.022 477.869 452.798 478.379 452.669C478.368 451.909 478.562 451.379 479.114 451.291C479.798 451.182 480.223 451.709 480.516 452.685C481.343 452.915 482.169 453.485 482.534 454.074C482.676 454.302 482.703 454.478 482.611 454.571C482.382 454.809 481.112 454.12 480.787 454.017Z" fill="black"/>
<path d="M486.225 457.432C486.75 457.686 487.327 457.586 487.516 457.208C487.704 456.83 487.431 456.318 486.906 456.064C486.382 455.81 485.804 455.91 485.616 456.288C485.428 456.665 485.701 457.177 486.225 457.432Z" fill="black"/>
<path d="M488.808 455.555C488.818 454.978 489.172 454.516 489.597 454.523C490.023 454.531 490.36 455.005 490.351 455.581C490.341 456.158 489.987 456.619 489.562 456.612C489.136 456.605 488.798 456.132 488.808 455.555Z" fill="black"/>
<path fill-rule="evenodd" clip-rule="evenodd" d="M500.351 462.633C500.348 462.621 500.36 462.662 500.351 462.633C501.206 462.633 502.549 463.603 502.549 465.946C502.549 468.278 501.569 470.919 501.338 471.505C497.807 479.857 489.38 484.506 479.343 484.212C469.985 483.938 462.005 479.064 458.512 471.118C456.4 471.12 454.223 470.203 452.568 468.756C450.824 467.23 449.748 465.256 449.538 463.198C449.375 461.595 449.574 460.103 450.083 458.803L448.122 457.162C439.146 449.681 467.22 418.879 476.199 426.61C476.244 426.649 479.254 429.563 479.261 429.57C483.59 427.755 495.19 424.301 495.203 432.343C495.208 435.013 493.483 438.128 490.721 440.954C493.913 443.876 493.072 448.028 493.58 451.837L494.689 452.141C496.803 452.726 498.307 453.506 499.042 454.269C499.778 455.031 500.143 455.769 500.275 456.634C500.399 457.332 500.382 458.564 499.45 459.942C499.786 460.831 500.092 461.718 500.351 462.633ZM458.354 468.951C458.667 468.958 458.978 468.938 459.284 468.886C462.564 468.334 463.422 464.817 462.882 461.364C462.272 457.465 459.6 456.09 457.786 455.992C457.282 455.966 456.813 456.011 456.427 456.088C453.189 456.731 451.361 459.45 451.722 462.981C452.047 466.177 455.321 468.871 458.354 468.951ZM451.022 457.046C452.108 455.488 453.883 454.362 455.898 453.975C458.463 447.179 462.746 440.917 468.415 436.608C472.622 433.144 477.159 430.66 477.159 430.66C477.159 430.66 474.715 427.863 473.977 427.657C469.438 426.447 459.634 433.121 453.374 441.939C450.842 445.506 447.216 451.824 448.949 455.074C449.163 455.477 450.373 456.511 451.022 457.046ZM487.824 467.39C487.832 467.463 487.786 467.539 487.721 467.566C487.721 467.566 484.073 469.24 478.279 467.471C478.488 469.208 480.594 469.866 482.065 470.104C489.244 471.324 495.956 467.271 497.467 466.251C497.727 466.076 497.464 466.526 497.417 466.592C495.568 468.947 490.595 471.674 484.127 471.673C481.306 471.672 478.486 470.692 477.451 469.184C475.845 466.845 477.371 463.431 480.048 463.786C484.572 464.291 489.211 463.912 493.4 461.993C497.052 460.319 498.432 458.478 498.224 456.987C497.903 454.676 494.476 454.314 492.744 453.752C491.991 453.506 491.619 453.31 491.534 451.91C491.497 451.3 491.39 449.168 491.35 448.286C491.281 446.743 491.093 444.633 489.767 443.762C489.421 443.535 489.037 443.425 488.633 443.404C488.31 443.389 488.119 443.433 488.017 443.457C487.994 443.462 487.975 443.467 487.96 443.469C487.244 443.589 486.806 443.951 486.288 444.378C486.258 444.403 486.228 444.428 486.198 444.453C484.544 445.814 483.148 446.036 481.594 445.97C481.11 445.95 480.612 445.902 480.086 445.851C479.602 445.804 479.095 445.754 478.555 445.723L477.895 445.685C475.294 445.553 472.504 447.771 472.04 450.921C471.521 454.436 473.487 456.59 474.764 457.99C475.08 458.336 475.354 458.636 475.538 458.899C475.656 459.058 475.793 459.282 475.793 459.495C475.793 459.749 475.626 459.95 475.463 460.122C472.809 462.816 471.96 467.097 472.96 470.665C473.085 471.11 473.244 471.536 473.431 471.943C475.778 477.356 483.058 479.877 490.17 477.584C495.154 475.977 499.557 472.094 500.454 466.737C500.667 465.341 500.354 464.802 499.927 464.542C499.475 464.268 498.934 464.363 498.934 464.363C498.934 464.363 498.687 462.695 497.988 461.179C495.915 462.794 493.246 463.929 491.214 464.504C487.959 465.426 484.443 465.785 481.079 465.35C479.714 465.174 478.798 465.056 478.405 466.316C482.892 467.938 487.641 467.243 487.641 467.243C487.733 467.234 487.815 467.3 487.824 467.39ZM474.879 435.916C472.425 437.156 469.685 439.362 467.46 441.901C467.381 441.992 467.498 442.117 467.594 442.047C469.517 440.667 472.152 439.384 475.604 438.553C479.471 437.622 483.193 438.012 485.467 438.527C485.582 438.553 485.653 438.358 485.552 438.302C484.049 437.47 481.743 436.905 480.107 436.893C480.027 436.892 479.982 436.8 480.03 436.737C480.312 436.361 480.7 435.99 481.054 435.722C481.133 435.661 481.085 435.535 480.985 435.541C478.95 435.664 474.302 437.783 474.318 437.706C474.438 437.141 474.813 436.395 475.007 436.047C475.054 435.964 474.963 435.874 474.879 435.916Z" fill="black"/>
<g filter="url(#filter4_d_860_1618)">
<circle cx="1251.15" cy="2.69973" r="81" transform="rotate(45 1251.15 2.69973)" fill="white"/>
</g>
<path d="M1279.22 0.311346C1282.93 0.311346 1285.94 -2.69648 1285.94 -6.40683C1285.94 -10.1172 1282.93 -13.125 1279.22 -13.125C1275.51 -13.125 1272.5 -10.1169 1272.5 -6.40625V0.311346H1279.22ZM1260.41 0.311346C1264.12 0.311346 1267.13 -2.69674 1267.13 -6.40741V-25.2188C1267.13 -28.9294 1264.12 -31.9375 1260.41 -31.9375C1256.7 -31.9375 1253.69 -28.9294 1253.69 -25.2187V-6.4074C1253.69 -2.69674 1256.7 0.311346 1260.41 0.311346Z" fill="#2EB67D"/>
<path d="M1222.78 5.68866C1219.07 5.68866 1216.06 8.69649 1216.06 12.4068C1216.06 16.1172 1219.07 19.125 1222.78 19.125C1226.49 19.125 1229.5 16.1169 1229.5 12.4062V5.68866H1222.78ZM1241.59 5.68866C1237.88 5.68866 1234.88 8.69674 1234.88 12.4074V31.2188C1234.88 34.9294 1237.88 37.9375 1241.59 37.9375C1245.3 37.9375 1248.31 34.9294 1248.31 31.2188V12.4074C1248.31 8.69674 1245.3 5.68866 1241.59 5.68866Z" fill="#E01E5A"/>
<path d="M1253.69 31.2193C1253.69 34.9297 1256.7 37.9375 1260.41 37.9375C1264.12 37.9375 1267.12 34.9294 1267.12 31.219C1267.12 27.5084 1264.12 24.5 1260.41 24.5L1253.69 24.5L1253.69 31.2193ZM1253.69 12.4062C1253.69 16.1169 1256.7 19.125 1260.41 19.125L1279.22 19.125C1282.93 19.125 1285.94 16.1169 1285.94 12.4062C1285.94 8.69559 1282.93 5.6875 1279.22 5.6875L1260.41 5.6875C1256.7 5.6875 1253.69 8.69559 1253.69 12.4062Z" fill="#ECB22E"/>
<path d="M1248.31 -25.2193C1248.31 -28.9297 1245.3 -31.9375 1241.59 -31.9375C1237.88 -31.9375 1234.88 -28.9294 1234.88 -25.219C1234.88 -21.5084 1237.88 -18.5 1241.59 -18.5L1248.31 -18.5L1248.31 -25.2193ZM1248.31 -6.40625C1248.31 -10.1169 1245.3 -13.125 1241.59 -13.125L1222.78 -13.125C1219.07 -13.125 1216.06 -10.1169 1216.06 -6.40625C1216.06 -2.69559 1219.07 0.3125 1222.78 0.3125L1241.59 0.312501C1245.3 0.312501 1248.31 -2.69559 1248.31 -6.40625Z" fill="#36C5F0"/>
<g filter="url(#filter5_d_860_1618)">
<circle cx="1097" cy="156.85" r="81" transform="rotate(45 1097 156.85)" fill="white"/>
</g>
<path d="M1099.89 127.645L1099.89 169.877L1134.83 127.645H1099.89Z" fill="#07363D"/>
<path d="M1077.05 146.457C1086.61 146.457 1094.52 136.824 1094.52 127.645H1059.58C1059.58 136.824 1067.49 146.457 1077.05 146.457Z" fill="#07363D"/>
<path d="M1099.89 186.769C1099.89 177.59 1107.81 167.957 1117.36 167.957C1126.92 167.957 1134.83 177.59 1134.83 186.769H1099.89Z" fill="#07363D"/>
<path d="M1094.52 186.77V144.537L1059.58 186.77H1094.52Z" fill="#07363D"/>
<g filter="url(#filter6_d_860_1618)">
<circle cx="942.85" cy="310.999" r="81" transform="rotate(45 942.85 310.999)" fill="white"/>
</g>
<path d="M950.584 318.601C945.479 320.522 939.758 320.526 934.653 318.603C932.729 313.503 932.729 307.783 934.65 302.682C939.754 300.758 945.481 300.758 950.585 302.682C952.508 307.781 952.507 313.502 950.584 318.601ZM979.744 304.371H957.768L973.307 288.841C970.868 285.417 967.857 282.41 964.432 279.973L948.892 295.503V273.54C944.744 272.843 940.491 272.844 936.343 273.54V295.503L920.803 279.973C917.378 282.408 914.367 285.42 911.928 288.841L927.469 304.371H905.493C904.95 308.64 904.774 312.652 905.493 316.912H927.469L911.928 332.442C914.373 335.871 917.372 338.868 920.803 341.311L936.343 325.78V347.744C940.491 348.438 944.743 348.439 948.891 347.744V325.78L964.433 341.311C967.86 338.872 970.865 335.867 973.307 332.442L957.765 316.912H979.744C980.442 312.771 980.442 308.512 979.744 304.371Z" fill="#FF4A00"/>
<g filter="url(#filter7_d_860_1618)">
<circle cx="788.7" cy="465.149" r="81" transform="rotate(45 788.7 465.149)" fill="white"/>
</g>
<circle cx="788.999" cy="465" r="37.625" fill="#0F287F"/>
<path fill-rule="evenodd" clip-rule="evenodd" d="M775.562 443.5L762.124 451.563L775.562 459.625L762.124 467.688L775.562 475.75L788.999 467.688L802.437 475.75L815.874 467.688L802.437 459.625L815.874 451.563L802.437 443.5L788.999 451.563L775.562 443.5ZM788.999 451.563L802.437 459.625L788.999 467.688L775.562 459.625L788.999 451.563Z" fill="#DAF8FE"/>
<path d="M775.562 481.125L788.999 473.063L802.437 481.125L788.999 489.188L775.562 481.125Z" fill="#DAF8FE"/>
<g filter="url(#filter8_d_860_1618)">
<circle cx="1407.15" cy="170.7" r="81" transform="rotate(45 1407.15 170.7)" fill="white"/>
</g>
<g filter="url(#filter9_d_860_1618)">
<circle cx="1253" cy="324.85" r="81" transform="rotate(45 1253 324.85)" fill="white"/>
</g>
<path d="M1289.72 322.894L1256.25 290.514L1253 287.375L1227.8 311.75L1216.28 322.894C1215.07 324.058 1215.07 325.942 1216.28 327.106L1239.3 349.375L1253 362.625L1278.2 338.25L1278.59 337.873L1289.72 327.106C1290.93 325.942 1290.93 324.058 1289.72 322.894ZM1253 336.125L1241.5 325L1253 313.875L1264.5 325L1253 336.125Z" fill="#2684FF"/>
<path fill-rule="evenodd" clip-rule="evenodd" d="M1253 313.876C1245.47 306.591 1245.43 294.793 1252.92 287.465L1227.75 311.8L1241.45 325.05L1253 313.876Z" fill="url(#paint0_linear_860_1618)"/>
<path fill-rule="evenodd" clip-rule="evenodd" d="M1264.53 324.971L1253 336.125C1256.63 339.639 1258.68 344.405 1258.68 349.375C1258.68 354.346 1256.63 359.112 1253 362.625L1278.23 338.221L1264.53 324.971Z" fill="url(#paint1_linear_860_1618)"/>
<g filter="url(#filter10_d_860_1618)">
<circle cx="1098.85" cy="478.999" r="81" transform="rotate(45 1098.85 478.999)" fill="white"/>
</g>
<path fill-rule="evenodd" clip-rule="evenodd" d="M1099 442.719V466.906H1111.09C1117.77 466.906 1123.19 461.492 1123.19 454.813C1123.19 448.133 1117.77 442.719 1111.09 442.719H1099Z" fill="#FF7262"/>
<path fill-rule="evenodd" clip-rule="evenodd" d="M1074.81 454.813C1074.81 461.492 1080.23 466.906 1086.91 466.906H1099V442.719H1086.91C1080.23 442.719 1074.81 448.133 1074.81 454.813Z" fill="#F24E1E"/>
</g>
<defs>
<filter id="filter0_d_860_1618" x="843.148" y="-101.301" width="190" height="190" filterUnits="userSpaceOnUse" color-interpolation-filters="sRGB">
<feFlood flood-opacity="0" result="BackgroundImageFix"/>
<feColorMatrix in="SourceAlpha" type="matrix" values="0 0 0 0 0 0 0 0 0 0 0 0 0 0 0 0 0 0 127 0" result="hardAlpha"/>
<feMorphology radius="2" operator="dilate" in="SourceAlpha" result="effect1_dropShadow_860_1618"/>
<feOffset dy="1"/>
<feGaussianBlur stdDeviation="6"/>
<feComposite in2="hardAlpha" operator="out"/>
<feColorMatrix type="matrix" values="0 0 0 0 0 0 0 0 0 0 0 0 0 0 0 0 0 0 0.1 0"/>
<feBlend mode="normal" in2="BackgroundImageFix" result="effect1_dropShadow_860_1618"/>
<feBlend mode="normal" in="SourceGraphic" in2="effect1_dropShadow_860_1618" result="shape"/>
</filter>
<filter id="filter1_d_860_1618" x="688.998" y="52.8496" width="190" height="190" filterUnits="userSpaceOnUse" color-interpolation-filters="sRGB">
<feFlood flood-opacity="0" result="BackgroundImageFix"/>
<feColorMatrix in="SourceAlpha" type="matrix" values="0 0 0 0 0 0 0 0 0 0 0 0 0 0 0 0 0 0 127 0" result="hardAlpha"/>
<feMorphology radius="2" operator="dilate" in="SourceAlpha" result="effect1_dropShadow_860_1618"/>
<feOffset dy="1"/>
<feGaussianBlur stdDeviation="6"/>
<feComposite in2="hardAlpha" operator="out"/>
<feColorMatrix type="matrix" values="0 0 0 0 0 0 0 0 0 0 0 0 0 0 0 0 0 0 0.1 0"/>
<feBlend mode="normal" in2="BackgroundImageFix" result="effect1_dropShadow_860_1618"/>
<feBlend mode="normal" in="SourceGraphic" in2="effect1_dropShadow_860_1618" result="shape"/>
</filter>
<filter id="filter2_d_860_1618" x="534.849" y="206.998" width="190" height="190" filterUnits="userSpaceOnUse" color-interpolation-filters="sRGB">
<feFlood flood-opacity="0" result="BackgroundImageFix"/>
<feColorMatrix in="SourceAlpha" type="matrix" values="0 0 0 0 0 0 0 0 0 0 0 0 0 0 0 0 0 0 127 0" result="hardAlpha"/>
<feMorphology radius="2" operator="dilate" in="SourceAlpha" result="effect1_dropShadow_860_1618"/>
<feOffset dy="1"/>
<feGaussianBlur stdDeviation="6"/>
<feComposite in2="hardAlpha" operator="out"/>
<feColorMatrix type="matrix" values="0 0 0 0 0 0 0 0 0 0 0 0 0 0 0 0 0 0 0.1 0"/>
<feBlend mode="normal" in2="BackgroundImageFix" result="effect1_dropShadow_860_1618"/>
<feBlend mode="normal" in="SourceGraphic" in2="effect1_dropShadow_860_1618" result="shape"/>
</filter>
<filter id="filter3_d_860_1618" x="380.7" y="361.148" width="190" height="190" filterUnits="userSpaceOnUse" color-interpolation-filters="sRGB">
<feFlood flood-opacity="0" result="BackgroundImageFix"/>
<feColorMatrix in="SourceAlpha" type="matrix" values="0 0 0 0 0 0 0 0 0 0 0 0 0 0 0 0 0 0 127 0" result="hardAlpha"/>
<feMorphology radius="2" operator="dilate" in="SourceAlpha" result="effect1_dropShadow_860_1618"/>
<feOffset dy="1"/>
<feGaussianBlur stdDeviation="6"/>
<feComposite in2="hardAlpha" operator="out"/>
<feColorMatrix type="matrix" values="0 0 0 0 0 0 0 0 0 0 0 0 0 0 0 0 0 0 0.1 0"/>
<feBlend mode="normal" in2="BackgroundImageFix" result="effect1_dropShadow_860_1618"/>
<feBlend mode="normal" in="SourceGraphic" in2="effect1_dropShadow_860_1618" result="shape"/>
</filter>
<filter id="filter4_d_860_1618" x="1156.15" y="-91.3008" width="190" height="190" filterUnits="userSpaceOnUse" color-interpolation-filters="sRGB">
<feFlood flood-opacity="0" result="BackgroundImageFix"/>
<feColorMatrix in="SourceAlpha" type="matrix" values="0 0 0 0 0 0 0 0 0 0 0 0 0 0 0 0 0 0 127 0" result="hardAlpha"/>
<feMorphology radius="2" operator="dilate" in="SourceAlpha" result="effect1_dropShadow_860_1618"/>
<feOffset dy="1"/>
<feGaussianBlur stdDeviation="6"/>
<feComposite in2="hardAlpha" operator="out"/>
<feColorMatrix type="matrix" values="0 0 0 0 0 0 0 0 0 0 0 0 0 0 0 0 0 0 0.1 0"/>
<feBlend mode="normal" in2="BackgroundImageFix" result="effect1_dropShadow_860_1618"/>
<feBlend mode="normal" in="SourceGraphic" in2="effect1_dropShadow_860_1618" result="shape"/>
</filter>
<filter id="filter5_d_860_1618" x="1002" y="62.8496" width="190" height="190" filterUnits="userSpaceOnUse" color-interpolation-filters="sRGB">
<feFlood flood-opacity="0" result="BackgroundImageFix"/>
<feColorMatrix in="SourceAlpha" type="matrix" values="0 0 0 0 0 0 0 0 0 0 0 0 0 0 0 0 0 0 127 0" result="hardAlpha"/>
<feMorphology radius="2" operator="dilate" in="SourceAlpha" result="effect1_dropShadow_860_1618"/>
<feOffset dy="1"/>
<feGaussianBlur stdDeviation="6"/>
<feComposite in2="hardAlpha" operator="out"/>
<feColorMatrix type="matrix" values="0 0 0 0 0 0 0 0 0 0 0 0 0 0 0 0 0 0 0.1 0"/>
<feBlend mode="normal" in2="BackgroundImageFix" result="effect1_dropShadow_860_1618"/>
<feBlend mode="normal" in="SourceGraphic" in2="effect1_dropShadow_860_1618" result="shape"/>
</filter>
<filter id="filter6_d_860_1618" x="847.85" y="216.998" width="190" height="190" filterUnits="userSpaceOnUse" color-interpolation-filters="sRGB">
<feFlood flood-opacity="0" result="BackgroundImageFix"/>
<feColorMatrix in="SourceAlpha" type="matrix" values="0 0 0 0 0 0 0 0 0 0 0 0 0 0 0 0 0 0 127 0" result="hardAlpha"/>
<feMorphology radius="2" operator="dilate" in="SourceAlpha" result="effect1_dropShadow_860_1618"/>
<feOffset dy="1"/>
<feGaussianBlur stdDeviation="6"/>
<feComposite in2="hardAlpha" operator="out"/>
<feColorMatrix type="matrix" values="0 0 0 0 0 0 0 0 0 0 0 0 0 0 0 0 0 0 0.1 0"/>
<feBlend mode="normal" in2="BackgroundImageFix" result="effect1_dropShadow_860_1618"/>
<feBlend mode="normal" in="SourceGraphic" in2="effect1_dropShadow_860_1618" result="shape"/>
</filter>
<filter id="filter7_d_860_1618" x="693.7" y="371.148" width="190" height="190" filterUnits="userSpaceOnUse" color-interpolation-filters="sRGB">
<feFlood flood-opacity="0" result="BackgroundImageFix"/>
<feColorMatrix in="SourceAlpha" type="matrix" values="0 0 0 0 0 0 0 0 0 0 0 0 0 0 0 0 0 0 127 0" result="hardAlpha"/>
<feMorphology radius="2" operator="dilate" in="SourceAlpha" result="effect1_dropShadow_860_1618"/>
<feOffset dy="1"/>
<feGaussianBlur stdDeviation="6"/>
<feComposite in2="hardAlpha" operator="out"/>
<feColorMatrix type="matrix" values="0 0 0 0 0 0 0 0 0 0 0 0 0 0 0 0 0 0 0.1 0"/>
<feBlend mode="normal" in2="BackgroundImageFix" result="effect1_dropShadow_860_1618"/>
<feBlend mode="normal" in="SourceGraphic" in2="effect1_dropShadow_860_1618" result="shape"/>
</filter>
<filter id="filter8_d_860_1618" x="1312.15" y="76.6992" width="190" height="190" filterUnits="userSpaceOnUse" color-interpolation-filters="sRGB">
<feFlood flood-opacity="0" result="BackgroundImageFix"/>
<feColorMatrix in="SourceAlpha" type="matrix" values="0 0 0 0 0 0 0 0 0 0 0 0 0 0 0 0 0 0 127 0" result="hardAlpha"/>
<feMorphology radius="2" operator="dilate" in="SourceAlpha" result="effect1_dropShadow_860_1618"/>
<feOffset dy="1"/>
<feGaussianBlur stdDeviation="6"/>
<feComposite in2="hardAlpha" operator="out"/>
<feColorMatrix type="matrix" values="0 0 0 0 0 0 0 0 0 0 0 0 0 0 0 0 0 0 0.1 0"/>
<feBlend mode="normal" in2="BackgroundImageFix" result="effect1_dropShadow_860_1618"/>
<feBlend mode="normal" in="SourceGraphic" in2="effect1_dropShadow_860_1618" result="shape"/>
</filter>
<filter id="filter9_d_860_1618" x="1158" y="230.85" width="190" height="190" filterUnits="userSpaceOnUse" color-interpolation-filters="sRGB">
<feFlood flood-opacity="0" result="BackgroundImageFix"/>
<feColorMatrix in="SourceAlpha" type="matrix" values="0 0 0 0 0 0 0 0 0 0 0 0 0 0 0 0 0 0 127 0" result="hardAlpha"/>
<feMorphology radius="2" operator="dilate" in="SourceAlpha" result="effect1_dropShadow_860_1618"/>
<feOffset dy="1"/>
<feGaussianBlur stdDeviation="6"/>
<feComposite in2="hardAlpha" operator="out"/>
<feColorMatrix type="matrix" values="0 0 0 0 0 0 0 0 0 0 0 0 0 0 0 0 0 0 0.1 0"/>
<feBlend mode="normal" in2="BackgroundImageFix" result="effect1_dropShadow_860_1618"/>
<feBlend mode="normal" in="SourceGraphic" in2="effect1_dropShadow_860_1618" result="shape"/>
</filter>
<filter id="filter10_d_860_1618" x="1003.85" y="384.998" width="190" height="190" filterUnits="userSpaceOnUse" color-interpolation-filters="sRGB">
<feFlood flood-opacity="0" result="BackgroundImageFix"/>
<feColorMatrix in="SourceAlpha" type="matrix" values="0 0 0 0 0 0 0 0 0 0 0 0 0 0 0 0 0 0 127 0" result="hardAlpha"/>
<feMorphology radius="2" operator="dilate" in="SourceAlpha" result="effect1_dropShadow_860_1618"/>
<feOffset dy="1"/>
<feGaussianBlur stdDeviation="6"/>
<feComposite in2="hardAlpha" operator="out"/>
<feColorMatrix type="matrix" values="0 0 0 0 0 0 0 0 0 0 0 0 0 0 0 0 0 0 0.1 0"/>
<feBlend mode="normal" in2="BackgroundImageFix" result="effect1_dropShadow_860_1618"/>
<feBlend mode="normal" in="SourceGraphic" in2="effect1_dropShadow_860_1618" result="shape"/>
</filter>
<linearGradient id="paint0_linear_860_1618" x1="1250.95" y1="302.622" x2="1231.76" y2="310.999" gradientUnits="userSpaceOnUse">
<stop offset="0.18" stop-color="#0052CC"/>
<stop offset="1" stop-color="#2684FF"/>
</linearGradient>
<linearGradient id="paint1_linear_860_1618" x1="1255.2" y1="347.25" x2="1274.35" y2="338.932" gradientUnits="userSpaceOnUse">
<stop offset="0.18" stop-color="#0052CC"/>
<stop offset="1" stop-color="#2684FF"/>
</linearGradient>
<clipPath id="clip0_860_1618">
<rect width="1352" height="448" fill="white"/>
</clipPath>
</defs>
</svg>
